<svg width="239" height="236" viewBox="0 0 239 236" fill="none" xmlns="http://www.w3.org/2000/svg">
<path fill-rule="evenodd" clip-rule="evenodd" d="M81.2057 69.1848C82.1756 69.9113 82.9031 70.5167 83.6305 71.1222C86.7828 73.5439 90.1776 75.4813 94.1786 76.0867C96.2397 76.3289 98.3008 76.4499 100.241 75.7234C101.211 75.3602 102.181 74.8758 102.908 74.2704C104.12 73.4228 104.848 72.2119 104.848 70.7589C104.848 70.1535 104.969 69.427 104.969 68.8215C106.06 68.7004 106.788 69.427 107.637 69.7902C110.183 71.0011 112.85 71.9698 115.76 71.8487C116.487 71.8487 117.336 71.8487 117.942 71.6065C120.367 70.88 121.701 69.3059 121.458 66.8841C121.458 66.642 121.337 66.5209 121.337 66.2787C121.337 66.1576 121.458 65.9155 121.579 65.6733C122.307 66.0365 123.034 66.3998 123.762 66.7631C126.672 68.2161 129.703 69.0637 132.976 69.0637C135.886 69.0637 139.16 67.6106 140.008 63.4937C140.13 62.6461 140.251 61.7985 140.493 60.8298C140.978 61.3142 141.463 61.5563 141.827 61.9196C143.646 64.0992 145.464 66.1576 147.283 68.3372C149.586 71.1221 152.133 73.786 155.285 75.7234C156.134 76.3289 156.619 76.9343 156.619 78.0241C156.74 81.6566 157.346 85.2892 157.225 88.9218C156.982 95.5816 155.527 101.878 151.041 107.206C145.707 113.623 139.281 118.709 131.643 122.099C127.642 123.916 123.277 124.884 119.033 125.853C111.153 127.548 103.636 126.58 96.1185 124.158C89.0864 121.978 83.5093 117.74 78.6596 112.291C73.8099 106.843 70.9 100.425 68.7177 93.6442C68.5964 93.402 68.5964 93.0388 68.5964 93.1598C70.1726 90.1327 71.6275 87.2266 73.0824 84.4417C75.5073 79.8404 77.8109 75.3602 80.2357 70.7589C80.357 70.3956 80.7207 69.9113 81.2057 69.1848ZM127.52 99.9407C127.52 98.6087 127.157 97.2768 126.429 96.187C126.065 95.7027 125.702 95.3394 124.974 95.5816C124.368 95.8237 124.004 96.5503 124.126 97.1557C124.247 97.3979 124.368 97.6401 124.489 97.8822C125.217 99.6985 124.732 101.636 124.247 103.331C123.883 104.663 122.792 105.511 121.458 105.874C118.306 106.6 116.002 105.995 114.547 103.21C114.305 102.605 113.941 101.999 113.82 101.394C113.577 100.546 113.577 99.5774 113.335 98.6087C113.214 98.2455 112.729 97.7611 112.365 97.7611C112.001 97.7611 111.395 98.1244 111.274 98.4877C111.031 99.0931 110.91 99.8196 111.031 100.425C111.395 101.878 111.88 103.21 112.486 104.663C114.547 109.143 119.882 109.507 122.792 108.053C124.853 107.085 126.308 105.511 126.672 103.21C127.157 102.12 127.278 101.03 127.52 99.9407ZM98.0584 92.4334C97.9371 91.949 97.8159 91.1014 97.4522 90.2538C96.6035 88.3164 94.4211 87.5899 92.6025 88.4375C90.6626 89.2851 89.8139 90.8592 89.6926 92.7966C89.4501 94.3707 89.8139 95.9448 91.39 96.9135C92.8449 97.7611 94.4211 97.7611 95.876 97.0346C97.5734 96.3081 98.0584 94.734 98.0584 92.4334ZM135.522 88.6797C137.947 89.0429 140.372 85.4103 139.523 83.2308C138.917 81.6567 138.311 80.2036 136.613 79.8404C134.674 79.4771 133.461 80.688 132.37 82.0199C131.279 83.473 131.521 85.0471 132.249 86.5001C132.855 87.832 133.946 88.6797 135.522 88.6797Z" fill="#FFEAE3"/>
<path fill-rule="evenodd" clip-rule="evenodd" d="M156.013 72.8173C155.649 72.6963 155.286 72.6962 155.164 72.5752C153.467 71.001 151.648 69.548 150.072 67.8528C148.132 65.6733 146.314 63.3726 144.495 61.1931C142.919 59.3768 141.221 57.5605 139.524 55.8653C138.918 55.2598 138.312 55.1388 137.463 55.502C136.614 55.8653 136.25 56.3496 136.857 57.1972C138.312 59.3768 138.069 61.6774 137.463 63.9781C136.978 65.7944 135.523 66.763 133.704 66.763C132.492 66.8841 131.279 66.763 130.067 66.5208C127.036 65.9154 124.369 64.5835 121.944 62.8883C121.216 62.4039 120.368 61.7985 119.519 61.4352C119.034 61.1931 118.428 61.3142 117.943 61.5563C117.337 61.9196 117.215 62.6461 117.458 63.2515C117.7 64.0991 118.185 64.8257 118.428 65.5522C118.67 66.1576 118.913 66.763 119.034 67.3685C119.155 68.095 118.913 68.7004 118.185 68.9426C117.458 69.1847 116.609 69.548 115.76 69.548C113.942 69.6691 112.244 69.1848 110.547 68.4582C107.516 67.1263 104.727 65.5522 102.424 63.1304C102.06 62.7672 101.696 62.525 101.333 62.4039C101.09 62.2828 100.605 62.4039 100.363 62.6461C100.12 62.8883 99.8777 63.3726 99.9989 63.6148C100.12 64.0991 100.484 64.5835 100.726 65.0678C101.333 66.1576 101.939 67.1263 102.303 68.3371C103.151 71.001 102.181 72.6963 99.514 73.5439C97.0891 74.2704 94.6643 74.0282 92.3607 73.3017C88.4809 72.0908 85.0861 69.9113 82.4188 66.763C82.2975 66.6419 82.1763 66.3998 82.055 66.2787C81.4488 65.6733 80.7214 65.6733 80.1152 66.3998C79.7514 66.8841 79.2665 67.4896 79.024 67.9739C75.2655 74.6336 71.507 81.2934 68.5971 88.4375C68.3547 89.164 67.9909 89.7694 67.506 90.7381C67.1422 90.1327 66.7785 89.8905 66.6573 89.5272C65.4448 86.1368 64.5961 82.5043 63.9899 78.9928C63.7474 77.903 63.7474 76.8132 63.7474 75.6023C63.3837 68.3371 64.8386 61.4352 67.6272 54.7755C68.2334 53.4436 68.7184 51.9905 69.3246 50.6586C72.8406 42.6669 78.9027 37.218 86.2985 32.98C91.8757 29.8317 97.9378 28.2576 104.121 27.1678C107.152 26.6835 110.305 26.0781 113.336 26.1991C124.611 26.3202 134.553 29.9528 142.676 38.0656C147.526 42.909 150.557 48.6001 152.254 55.2598C153.224 59.0135 154.194 62.8883 155.164 66.6419C155.77 68.4582 156.134 70.5167 156.013 72.8173Z" fill="#C5AE07"/>
<path fill-rule="evenodd" clip-rule="evenodd" d="M119.761 183.853C116.487 184.217 110.182 183.369 107.515 182.279C106.788 179.615 107.636 176.951 107.758 174.288C107.879 171.624 108 168.96 108.121 166.296C108.97 165.448 109.819 165.569 110.667 165.569C113.698 165.327 116.608 165.085 119.639 165.085C123.277 165.085 126.914 164.237 130.43 163.632C134.188 162.905 137.947 162.3 141.948 161.573C142.19 162.058 142.433 162.421 142.554 163.027C143.282 165.812 144.009 168.597 144.615 171.503C145.1 174.288 145.464 177.073 145.828 179.858C145.949 180.826 145.585 181.311 144.858 181.553C142.797 182.158 140.736 182.643 138.674 183.127C137.704 183.369 137.219 183.006 136.856 182.158C136.492 181.432 136.25 180.584 136.007 179.736C135.28 177.436 134.552 175.135 133.703 172.835C133.461 172.229 133.34 171.624 132.976 171.018C132.612 170.292 132.006 169.928 131.157 169.928C130.43 169.928 129.702 169.928 128.975 170.171C126.793 170.655 124.732 170.776 122.549 170.292C121.337 170.05 120.731 170.413 120.609 171.745C120.246 174.893 120.124 178.041 119.882 181.189C119.761 182.037 119.761 182.885 119.761 183.853Z" fill="#5C7CB3"/>
<path fill-rule="evenodd" clip-rule="evenodd" d="M140.736 146.317C141.463 150.555 142.797 154.308 143.039 158.183C141.463 159.152 140.008 159.515 138.553 159.757C133.582 160.605 128.611 161.574 123.641 162.3C122.428 162.542 121.216 162.542 120.003 162.663C116.972 162.906 114.062 163.027 111.031 163.148C110.061 163.148 108.97 163.148 107.879 163.148C107.758 162.663 107.394 162.179 107.394 161.816C107.515 159.273 107.758 156.73 107.879 154.308C107.879 153.945 108.121 153.582 108.243 153.219C108.606 153.219 108.97 153.098 109.334 153.098C113.456 153.461 117.336 152.734 121.337 151.766C125.58 150.797 129.824 150.07 133.946 149.102C135.037 148.86 136.129 148.496 137.098 148.012C138.311 147.649 139.281 147.043 140.736 146.317Z" fill="#63B57A"/>
<path fill-rule="evenodd" clip-rule="evenodd" d="M138.19 133.482C136.492 134.813 134.674 135.177 132.855 135.661C125.096 137.598 117.336 139.052 109.213 138.446C108.607 136.993 108.97 135.419 108.97 133.845C108.97 132.392 109.092 130.939 109.213 129.244C118.549 129.122 127.036 126.822 135.401 123.189C135.644 123.431 135.886 123.552 136.007 123.674C137.099 126.943 137.462 130.333 138.19 133.482Z" fill="#63B57A"/>
<path fill-rule="evenodd" clip-rule="evenodd" d="M108.244 150.191C108.123 147.406 108.244 144.985 108.487 142.442C108.487 141.958 108.729 141.594 108.972 140.989C112.367 140.868 115.761 140.747 119.035 140.626C122.309 140.505 125.461 139.899 128.613 139.051C131.887 138.204 135.16 137.477 138.555 136.509C138.676 136.751 138.919 137.114 139.04 137.477C139.404 139.415 139.768 141.352 140.131 143.411C138.07 144.864 136.13 146.196 133.705 146.68C128.249 147.891 122.794 148.981 117.338 150.07C114.913 150.555 112.488 150.918 110.063 150.555C109.578 150.555 109.093 150.434 108.244 150.191Z" fill="#FFEA66"/>
<path fill-rule="evenodd" clip-rule="evenodd" d="M43.2573 136.751C42.8935 135.419 43.0148 134.329 43.621 133.36C43.8635 132.997 44.2272 132.513 44.2272 132.15C44.2272 131.786 43.9847 131.181 43.7422 130.939C43.4998 130.697 43.0148 130.697 42.6511 130.818C42.2873 130.939 41.9236 131.302 41.5599 131.665C40.7112 132.392 39.7412 132.513 38.6501 132.028C38.1651 131.786 37.4376 131.544 37.5589 130.939C37.6801 130.454 38.1651 129.97 38.5288 129.728C39.135 129.365 39.9837 129.243 40.5899 128.88C40.9537 128.638 41.1961 128.033 41.1961 127.79C41.1961 127.427 40.7112 127.064 40.3474 126.822C39.8625 126.58 39.2563 126.701 38.6501 126.459C37.8014 126.095 36.9527 125.732 36.104 125.248C35.8615 125.127 35.7402 124.763 35.7402 124.521C35.7402 124.279 36.104 124.037 36.2252 124.037C37.0739 123.916 37.9226 124.037 38.7713 123.916C39.3775 123.916 39.8625 123.916 40.4687 123.795C41.1961 123.674 41.5599 122.463 40.9537 121.978C40.4687 121.494 39.8625 121.252 39.3775 120.767C38.4076 120.041 37.5589 119.193 37.0739 117.982C36.5889 116.893 37.1951 116.045 38.2863 116.166C40.8324 116.287 43.2573 117.014 45.3184 118.588C46.1671 119.193 47.0158 119.678 47.9857 120.041C49.0769 120.404 49.8044 119.678 49.5619 118.467C49.4406 117.861 49.3194 117.377 49.1981 116.893C49.0769 115.561 49.6831 114.35 50.6531 113.381C51.3805 112.655 52.3505 112.655 52.8354 113.502C53.3204 114.229 53.6841 115.198 54.0478 116.045C54.7753 118.467 55.0178 121.01 54.6541 123.552C54.4116 125.732 54.0478 127.79 53.6841 129.849C53.5629 130.454 53.3204 131.181 52.8354 131.544C50.8955 133.482 48.8344 135.419 46.0458 136.388C45.3184 136.751 44.3484 137.114 43.2573 136.751Z" fill="#FFEAE3"/>
<path fill-rule="evenodd" clip-rule="evenodd" d="M174.806 85.4104C176.018 85.2893 176.382 86.0158 176.745 86.6213C177.23 87.3478 177.473 88.1954 177.958 88.8008C178.2 89.043 178.807 89.2852 179.17 89.1641C179.534 89.043 180.019 88.6797 180.019 88.3165C180.14 87.3478 180.14 86.258 180.14 85.2893C180.14 83.5941 180.504 81.8989 181.474 80.5669C181.838 79.9615 182.323 79.3561 183.414 79.3561C183.656 79.7193 184.02 80.2037 184.02 80.688C184.02 82.3832 183.899 84.0785 183.778 85.6526C183.778 86.5002 183.535 87.3478 183.535 88.0743C183.535 88.3165 184.02 88.8008 184.263 88.8008C184.626 88.8008 185.354 88.6797 185.475 88.4375C185.839 87.8321 185.96 87.1056 186.202 86.3791C186.809 84.4417 187.9 82.8676 189.84 82.02C190.931 82.9887 190.81 84.0785 190.446 85.0471C190.082 86.1369 189.233 86.8634 188.385 87.711C187.779 88.3165 187.172 88.8008 186.566 89.4063C186.324 89.6484 186.324 90.2538 186.445 90.3749C186.687 90.7382 187.172 91.1015 187.536 91.1015C188.021 91.1015 188.627 90.7382 189.112 90.6171C190.082 90.375 191.052 90.0117 192.022 89.8906C192.871 89.7695 193.477 90.2538 193.719 90.9804C194.083 91.7069 193.962 92.5545 193.356 93.0388C192.75 93.5232 192.143 93.7654 191.416 94.0075C190.931 94.2497 190.325 94.2497 189.718 94.2497C189.112 94.3708 188.627 94.613 188.506 95.2184C188.264 95.9449 188.749 96.4292 189.355 96.7925C189.961 97.1558 190.446 97.398 190.931 97.8823C191.173 98.1245 191.537 98.7299 191.416 99.0932C191.416 99.6986 190.81 99.9408 190.203 100.062C189.718 100.183 189.233 100.183 188.87 100.183C186.081 99.6986 183.293 99.3353 180.625 98.7299C179.413 98.4877 178.322 97.8823 177.837 96.5503C177.594 95.8238 177.109 95.5816 176.503 95.2184C175.533 94.613 174.927 93.6442 174.684 92.5545C174.442 90.1327 174.078 87.8321 174.806 85.4104Z" fill="#FFEAE3"/>
<path fill-rule="evenodd" clip-rule="evenodd" d="M65.4445 93.4019C67.7481 99.093 70.4154 104.663 73.5677 110.233C73.204 110.354 72.9615 110.596 72.719 110.596C67.6268 109.991 63.1409 108.174 59.3823 104.663C59.0186 104.3 58.7761 104.058 58.4124 103.694C55.9875 101.151 56.23 98.1243 57.5637 95.3393C58.5336 93.4019 60.231 92.5543 62.4134 92.5543C63.5046 92.6754 64.4745 92.7965 65.4445 93.4019Z" fill="#FFEAE3"/>
<path fill-rule="evenodd" clip-rule="evenodd" d="M159.529 89.2851C159.529 87.3477 159.287 85.8947 159.408 84.4417C159.65 82.141 159.408 79.7193 159.044 77.5397C158.68 75.7234 158.68 73.786 158.923 71.9698C159.287 69.3059 160.863 67.6107 163.288 66.642C164.258 66.2787 165.106 66.3998 165.834 67.1263C166.682 67.8528 167.289 68.8215 167.652 69.9113C168.259 71.8487 168.259 73.7861 167.895 75.7234C167.531 78.9928 164.258 85.5314 159.529 89.2851Z" fill="#FFEAE3"/>
<path fill-rule="evenodd" clip-rule="evenodd" d="M152.739 204.801C150.799 204.801 149.951 203.59 150.557 202.137C150.678 201.895 150.799 201.653 151.042 201.411C153.588 198.747 156.498 196.567 160.499 196.81C161.105 196.81 161.59 196.931 162.196 197.052C163.409 197.294 163.894 198.384 163.287 199.474C162.802 200.2 162.318 200.927 161.711 201.411C158.801 203.348 155.649 204.438 152.739 204.801Z" fill="#86CAD4"/>
<path fill-rule="evenodd" clip-rule="evenodd" d="M95.149 202.138C95.634 201.895 96.119 201.532 96.604 201.532C98.1801 201.532 99.8775 201.411 101.332 201.653C103.879 202.138 106.425 202.985 108.849 203.712C109.698 203.954 110.062 204.68 109.941 205.407C109.819 206.133 109.334 206.618 108.728 206.739C104.485 207.344 100.362 207.102 96.604 204.438C95.8765 203.954 95.8765 203.833 95.149 202.138Z" fill="#86CAD4"/>
<path fill-rule="evenodd" clip-rule="evenodd" d="M89.8156 98.8509C85.4509 97.6401 81.6923 100.546 80.1162 104.421C78.54 108.296 81.5711 112.655 85.4509 113.26C88.9669 113.866 91.998 112.17 93.4529 109.022C93.5741 108.901 93.5741 108.78 93.6953 108.659C96.3627 104.784 94.0591 100.062 89.8156 98.8509Z" fill="#FFC2BD"/>
<path fill-rule="evenodd" clip-rule="evenodd" d="M151.405 86.5C150.072 85.6524 148.374 85.2892 146.798 85.5314C145.828 85.4103 144.979 85.4103 144.009 85.5314C141.221 86.0157 139.402 88.4374 139.16 91.1013C138.917 93.5231 140.493 95.7026 142.312 97.0346C144.252 98.4876 146.434 98.7298 148.738 98.3665C151.405 98.0033 153.345 95.5815 154.194 93.2809C155.285 90.7381 153.588 87.9531 151.405 86.5Z" fill="#FFC2BD"/>
<path fill-rule="evenodd" clip-rule="evenodd" d="M144.617 160.968C145.223 163.511 145.708 165.933 146.436 168.233C147.284 171.382 147.769 174.651 148.133 177.92C148.254 178.526 148.254 179.252 148.254 179.858C148.375 181.674 147.769 183.127 145.951 183.854C145.708 183.975 145.466 184.217 145.223 184.459C146.314 189.06 147.406 193.662 148.497 198.263C148.618 198.747 148.86 199.11 149.103 199.716C150.194 198.868 151.043 198.142 152.013 197.415C154.195 195.72 156.62 194.509 159.409 194.509C160.621 194.509 161.833 194.509 163.046 194.872C165.713 195.599 166.683 198.263 165.471 200.685C164.864 202.016 163.895 202.985 162.682 203.833C159.53 205.77 156.256 207.102 152.498 207.465C150.558 207.586 149.103 207.102 148.254 205.044C147.769 203.833 147.163 202.743 146.799 201.411C145.708 196.81 144.496 192.208 143.405 187.486C143.162 186.639 142.92 185.912 142.556 184.943C141.343 185.185 140.252 185.428 139.282 185.67C136.736 186.154 135.403 185.428 134.554 183.006C133.463 180.1 132.614 177.194 131.644 174.167C131.523 173.682 131.159 173.198 131.038 172.593C128.492 172.835 125.946 173.077 123.4 173.319C123.278 173.924 123.036 174.53 123.036 175.135C122.915 177.315 122.793 179.373 122.672 181.553C122.672 182.279 122.672 183.006 122.672 183.854C122.43 185.791 121.823 186.517 119.883 186.76C119.035 186.881 118.186 186.76 117.337 186.76C116.367 186.76 115.276 186.639 114.185 186.517C114.064 187.244 113.821 187.97 113.821 188.576C113.7 192.935 113.7 197.415 113.7 201.774C113.7 203.591 113.215 205.286 112.73 206.981C112.366 208.434 111.397 209.282 109.942 209.524C104.971 210.493 100.242 210.008 95.8775 207.102C94.7863 206.376 93.9376 205.407 93.3314 204.196C92.3614 202.259 93.0889 200.442 95.2713 199.716C95.8775 199.474 96.6049 199.474 97.2111 199.353C100.848 198.989 104.243 199.837 107.638 200.927C108.608 201.29 109.578 201.532 110.669 201.895C111.518 199.231 111.033 196.568 111.033 194.025C111.154 191.482 111.397 188.818 111.154 186.154C110.063 185.912 109.093 185.791 108.123 185.549C105.941 185.064 105.092 183.975 105.092 181.795C105.092 179.616 105.334 177.557 105.456 175.378C105.577 172.835 105.698 170.292 105.819 167.87C105.819 167.386 105.941 166.78 105.698 166.538C104.728 165.085 105.092 163.39 105.213 161.937C105.577 155.519 105.941 149.102 106.304 142.563C106.426 140.626 106.789 138.688 106.426 136.751C106.304 135.903 106.668 134.935 106.668 133.966C106.668 133.239 106.668 132.513 106.668 131.786C106.426 131.786 106.183 131.786 106.062 131.908C100.242 136.509 93.4526 139.173 86.1781 140.626C80.9646 141.716 75.7512 141.594 70.659 140.141C66.658 138.931 62.7783 137.235 59.141 135.177C58.1711 134.571 57.2011 134.087 56.2312 133.482C55.14 133.603 54.655 134.571 53.9276 135.177C52.1089 136.872 50.1691 138.567 47.623 139.294C46.7743 139.536 46.0468 139.778 45.1981 139.899C42.4095 140.384 41.1971 139.415 40.7121 136.751C40.5909 136.388 40.5909 136.024 40.4697 135.661C39.621 135.419 38.7723 135.298 38.0448 135.056C35.62 134.208 34.8925 132.755 35.62 130.212C35.7412 129.849 35.8624 129.486 36.1049 129.123C35.62 128.759 35.135 128.275 34.65 127.912C32.5889 126.095 32.8314 124.158 35.135 122.705C35.4987 122.463 35.7412 122.342 36.2262 122.221C35.8624 121.615 35.62 121.01 35.3775 120.404C34.8925 119.436 34.7713 118.467 34.8925 117.377C35.135 115.682 36.1049 114.713 37.8023 114.592C39.9847 114.471 42.0458 114.834 44.1069 115.682C44.9556 116.045 45.8043 116.408 46.7743 116.893C47.0168 116.166 47.3805 115.561 47.623 114.834C48.1079 113.624 48.7142 112.655 49.8053 111.928C51.624 110.596 53.6851 110.839 55.0188 112.655C55.7462 113.745 56.3524 114.955 56.7162 116.166C57.6861 119.072 57.5649 122.1 57.3224 125.006C57.2011 125.974 57.0799 126.943 57.3224 128.033C57.5649 128.88 57.2011 129.849 57.0799 130.939C57.5648 131.302 58.0498 131.665 58.656 132.029C62.7783 134.571 67.0218 136.509 71.629 137.841C75.9937 139.173 80.3584 139.052 84.7232 138.446C89.8154 137.72 94.6651 135.903 99.2723 133.482C101.212 132.513 103.031 131.423 104.486 129.849C104.364 129.123 103.879 129.123 103.395 129.123C99.151 128.396 95.0288 127.306 91.0278 125.49C86.0568 123.189 81.8134 119.799 78.0548 115.803C77.3274 115.077 76.5999 114.35 75.9937 113.624C71.0228 114.229 66.5368 112.655 62.2933 110.354C60.2322 109.143 58.2923 107.569 56.7162 105.753C53.9276 102.484 53.8063 97.2769 56.3524 93.8864C57.6861 92.0702 59.5047 90.9804 61.8083 90.9804C62.657 90.9804 63.3845 90.8593 64.3544 90.8593C64.1119 90.0117 63.9907 89.4063 63.8695 88.8008C63.142 85.7737 62.4145 82.7465 61.6871 79.8404C60.5959 75.3602 60.9596 70.88 61.9296 66.5209C63.2632 59.619 65.6881 52.9593 69.0829 46.7839C70.659 43.7567 72.7202 41.2139 75.2663 38.7922C80.3584 33.9487 86.1781 30.3162 92.8464 28.1366C99.5147 25.9571 106.426 24.6251 113.458 24.2618C118.55 24.0197 123.278 25.1094 128.007 26.6836C134.311 28.742 139.889 32.1324 144.617 36.8548C144.981 37.2181 145.223 37.7024 145.587 37.8235C147.406 38.55 148.133 40.1241 148.982 41.6983C151.043 45.3308 153.225 49.0845 154.316 53.0804C155.65 57.6817 156.741 62.2829 157.832 66.8842C157.954 67.1264 157.954 67.3685 158.075 67.8529C158.56 67.6107 158.924 67.3685 159.287 67.1264C160.257 66.5209 161.227 65.6734 162.318 65.189C164.379 64.2203 166.319 64.5836 168.017 66.1577C169.472 67.6107 170.442 69.306 170.684 71.2433C171.048 74.0283 170.927 76.8133 169.835 79.4772C167.896 84.4417 164.986 88.6797 160.863 92.1912C159.651 93.281 159.045 94.3708 158.802 95.9449C158.075 102.12 155.044 107.206 150.8 111.686C147.527 115.198 143.89 118.346 139.889 120.889C139.404 121.252 138.919 121.615 138.07 122.221C138.797 122.463 139.161 122.705 139.646 122.705C146.193 122.705 152.498 121.978 158.681 119.436C163.046 117.619 166.562 114.713 169.229 110.96C170.199 109.507 171.169 107.932 172.018 106.358C173.351 103.937 174.564 101.394 175.898 98.851C175.534 98.3666 175.291 97.8823 174.928 97.519C171.654 94.1286 171.412 90.0117 172.26 85.7737C172.624 83.7152 174.2 82.9887 176.261 83.5941C176.746 83.7152 177.11 83.9574 177.595 84.0784C177.959 83.1098 178.201 82.2622 178.565 81.4146C179.171 79.9615 180.02 78.6296 181.475 77.782C183.293 76.6922 184.991 77.1766 185.839 79.1139C186.203 79.8405 186.324 80.567 186.567 81.4146C187.173 81.1724 187.779 80.9302 188.264 80.688C190.81 79.5983 192.508 80.567 192.993 83.2309C193.114 83.9574 193.114 84.6839 192.993 85.4104C192.871 86.1369 192.629 86.8635 192.508 87.59C197.236 89.4063 198.085 93.8864 193.356 96.9136C193.599 97.3979 193.841 97.8823 193.963 98.3666C194.569 100.546 193.72 101.999 191.659 102.847C190.568 103.21 189.477 103.331 188.385 103.21C184.991 102.605 181.475 102.362 178.201 101.031C178.08 101.031 177.837 101.031 177.352 101.031C176.989 101.757 176.504 102.726 176.019 103.573C174.564 106.237 173.109 109.022 171.533 111.686C167.896 117.377 162.803 121.01 156.256 122.947C151.77 124.279 147.163 125.006 142.435 125.248C141.465 125.248 140.616 125.369 139.525 125.369C139.404 125.853 139.161 126.338 139.282 126.701C139.767 129.244 139.646 131.908 140.858 134.329C141.222 135.056 140.98 136.146 141.222 136.993C141.707 139.778 142.192 142.563 142.798 145.227C143.405 148.496 144.132 151.887 144.859 155.156C145.102 156.125 145.466 157.093 145.708 158.062C146.314 158.789 146.193 160 144.617 160.968ZM81.2071 69.1849C80.7222 69.9114 80.3584 70.3957 80.116 70.8801C77.6911 75.4813 75.3875 79.9615 72.9626 84.5628C71.5077 87.3478 70.0528 90.2539 68.4767 93.281C68.4767 93.281 68.4767 93.5232 68.5979 93.7654C70.9015 100.546 73.8113 106.964 78.5398 112.413C83.3895 117.862 88.9667 122.1 95.9987 124.279C103.516 126.58 111.154 127.67 118.914 125.974C123.278 125.006 127.522 124.037 131.523 122.221C139.161 118.709 145.587 113.745 150.922 107.327C155.408 101.999 156.741 95.7027 157.105 89.043C157.226 85.4104 156.741 81.7778 156.499 78.1452C156.499 77.0555 156.014 76.45 155.165 75.8446C152.134 73.7861 149.467 71.2433 147.163 68.4583C145.344 66.2788 143.526 64.0992 141.707 62.0408C141.343 61.6775 140.858 61.3143 140.373 60.951C140.252 62.0408 140.131 62.8884 139.889 63.6149C139.04 67.7318 135.766 69.3059 132.856 69.1849C129.583 69.1849 126.552 68.3373 123.642 66.8842C122.915 66.521 122.187 66.1577 121.46 65.7945C121.338 66.1577 121.217 66.2788 121.217 66.3999C121.217 66.521 121.217 66.7631 121.338 67.0053C121.581 69.306 120.247 71.0012 117.822 71.7277C117.095 71.9698 116.367 71.9698 115.64 71.9698C112.73 72.0909 110.184 71.1222 107.517 69.9114C106.668 69.5481 106.062 68.7005 104.849 68.9427C104.849 69.5481 104.728 70.2746 104.728 70.8801C104.607 72.3331 104.001 73.5439 102.788 74.3915C101.94 74.997 100.97 75.4813 100.121 75.8446C98.1811 76.5711 96.12 76.45 94.0588 76.2078C90.0578 75.6024 86.6631 73.6651 83.5107 71.2433C82.9045 70.5168 82.1771 69.9114 81.2071 69.1849ZM156.014 72.8174C156.135 70.5168 155.771 68.4584 155.286 66.3999C154.316 62.6462 153.346 58.7714 152.376 55.0177C150.679 48.4791 147.648 42.667 142.798 37.8235C134.675 29.8318 124.733 26.0781 113.458 25.957C110.427 25.957 107.274 26.4414 104.243 26.9258C98.0598 28.0155 91.9977 29.5896 86.4206 32.7379C79.0248 36.8548 72.8414 42.4248 69.4466 50.4165C68.8404 51.7484 68.2342 53.2015 67.7492 54.5334C64.9606 61.1931 63.5057 68.0951 63.8695 75.3603C63.8695 76.45 63.9907 77.6609 64.1119 78.7507C64.7182 82.3832 65.5669 85.8948 66.7793 89.2852C66.9005 89.6484 67.2643 90.0117 67.628 90.496C68.1129 89.5274 68.4767 88.9219 68.7192 88.1954C71.629 81.0513 75.3875 74.3915 79.146 67.7318C79.5097 67.1264 79.8735 66.642 80.2372 66.1577C80.8434 65.4312 81.5709 65.4312 82.1771 66.0366C82.2983 66.1577 82.4196 66.3999 82.5408 66.5209C85.2081 69.6692 88.4817 71.8488 92.4827 73.0596C94.7863 73.7861 97.2111 74.0283 99.636 73.3018C102.303 72.5753 103.273 70.759 102.425 68.0951C102.061 67.0053 101.333 65.9155 100.848 64.8257C100.606 64.3414 100.242 63.8571 100.121 63.3727C99.9997 63.1306 100.242 62.6462 100.485 62.404C100.727 62.1618 101.212 62.0408 101.455 62.1619C101.818 62.2829 102.303 62.6462 102.546 62.8883C104.849 65.3101 107.759 66.8842 110.669 68.2162C112.366 68.9427 114.064 69.3059 115.882 69.3059C116.731 69.3059 117.58 69.0638 118.307 68.7005C119.035 68.4583 119.277 67.7318 119.156 67.1264C119.035 66.5209 118.792 65.9155 118.55 65.3101C118.186 64.5836 117.822 63.736 117.58 63.0094C117.337 62.404 117.459 61.5564 118.065 61.3142C118.55 61.0721 119.156 61.0721 119.641 61.1931C120.49 61.5564 121.217 62.1619 122.066 62.6462C124.491 64.3414 127.158 65.7944 130.189 66.2788C131.402 66.521 132.614 66.642 133.826 66.5209C135.645 66.3999 137.1 65.5523 137.585 63.736C138.191 61.4353 138.434 59.1347 136.979 56.9551C136.372 56.1075 136.615 55.6232 137.585 55.2599C138.434 54.8967 139.04 55.0177 139.646 55.6232C141.343 57.4395 143.041 59.1347 144.617 60.951C146.557 63.1306 148.254 65.4312 150.194 67.6107C151.77 69.306 153.589 70.8801 155.286 72.3331C155.286 72.6964 155.65 72.6964 156.014 72.8174ZM119.762 183.854C119.762 182.885 119.883 182.037 119.883 181.19C120.126 178.041 120.368 174.893 120.611 171.745C120.732 170.534 121.338 170.05 122.551 170.292C124.733 170.776 126.794 170.655 128.977 170.171C129.704 170.05 130.432 170.05 131.159 169.929C132.008 169.929 132.614 170.292 132.978 171.018C133.22 171.624 133.463 172.229 133.705 172.835C134.433 175.135 135.16 177.436 136.009 179.737C136.251 180.584 136.494 181.311 136.857 182.158C137.221 183.006 137.706 183.248 138.676 183.127C140.737 182.643 142.798 182.037 144.859 181.553C145.708 181.311 145.951 180.826 145.829 179.858C145.466 177.073 145.223 174.288 144.617 171.503C144.132 168.718 143.283 165.812 142.556 163.027C142.435 162.542 142.071 162.058 141.95 161.574C137.949 162.3 134.311 163.027 130.432 163.632C126.794 164.238 123.278 164.964 119.641 165.085C116.61 165.085 113.7 165.327 110.669 165.57C109.82 165.57 108.972 165.448 108.123 166.296C108.002 168.839 107.88 171.503 107.759 174.288C107.638 176.952 106.789 179.616 107.517 182.279C110.063 183.369 116.489 184.217 119.762 183.854ZM140.737 146.317C139.404 147.043 138.312 147.649 137.221 148.012C136.251 148.496 135.16 148.86 134.069 149.102C129.825 150.07 125.582 150.797 121.46 151.766C117.459 152.613 113.579 153.461 109.457 153.098C109.093 153.098 108.729 153.219 108.365 153.219C108.244 153.582 108.002 153.945 108.002 154.308C107.759 156.851 107.638 159.394 107.517 161.816C107.517 162.179 107.759 162.663 108.002 163.148C109.093 163.148 110.184 163.148 111.154 163.148C114.185 163.027 117.095 162.785 120.126 162.663C121.338 162.542 122.551 162.542 123.763 162.3C128.734 161.453 133.705 160.605 138.676 159.757C140.131 159.515 141.586 159.152 143.162 158.183C142.677 154.309 141.465 150.676 140.737 146.317ZM138.191 133.482C137.464 130.212 137.1 126.943 136.009 123.674C135.887 123.431 135.645 123.31 135.403 123.189C127.158 126.822 118.55 129.123 109.214 129.244C109.093 130.818 108.972 132.271 108.972 133.845C108.972 135.419 108.487 136.993 109.214 138.446C117.337 139.052 125.097 137.599 132.856 135.661C134.675 135.177 136.494 134.814 138.191 133.482ZM108.244 150.192C109.093 150.313 109.578 150.555 110.063 150.555C112.488 150.918 114.913 150.555 117.337 150.07C122.793 148.981 128.249 147.891 133.705 146.68C136.13 146.196 138.07 144.864 140.131 143.411C139.767 141.352 139.404 139.415 139.04 137.478C138.919 137.114 138.676 136.751 138.555 136.509C135.039 137.356 131.886 138.083 128.613 139.052C125.461 139.899 122.187 140.505 119.035 140.626C115.64 140.747 112.366 140.868 108.972 140.989C108.729 141.594 108.487 141.958 108.487 142.442C108.244 144.985 108.123 147.528 108.244 150.192ZM43.2582 136.751C44.3494 136.993 45.3194 136.751 46.1681 136.509C48.9566 135.661 51.0178 133.724 52.9576 131.665C53.4426 131.181 53.6851 130.576 53.8063 129.97C54.1701 127.912 54.5338 125.732 54.7763 123.674C55.0188 121.131 54.8975 118.588 54.1701 116.166C53.9276 115.319 53.4426 114.471 52.9576 113.624C52.4727 112.776 51.5027 112.776 50.7753 113.502C49.8053 114.471 49.1991 115.682 49.3204 117.014C49.3204 117.619 49.5628 118.104 49.6841 118.588C49.9266 119.799 49.1991 120.525 48.1079 120.162C47.138 119.799 46.2893 119.315 45.4406 118.709C43.3795 117.135 40.9546 116.408 38.4085 116.287C37.1961 116.166 36.7111 117.014 37.1961 118.104C37.6811 119.315 38.5298 120.162 39.4997 120.889C39.9847 121.252 40.5909 121.615 41.0759 122.1C41.5608 122.584 41.3184 123.795 40.5909 123.916C40.1059 124.037 39.4997 124.037 38.8935 124.037C38.0448 124.037 37.1961 124.037 36.3474 124.158C36.1049 124.158 35.8624 124.521 35.8624 124.642C35.8624 124.885 35.9837 125.248 36.2262 125.369C37.0749 125.853 37.9236 126.216 38.7723 126.58C39.2572 126.822 39.8634 126.701 40.4697 126.943C40.8334 127.064 41.3184 127.548 41.3184 127.912C41.3184 128.275 41.0759 128.88 40.7121 129.001C40.1059 129.365 39.2572 129.486 38.651 129.849C38.1661 130.091 37.8023 130.576 37.6811 131.06C37.5598 131.665 38.1661 131.908 38.7723 132.15C39.8635 132.634 40.7121 132.513 41.6821 131.786C42.0458 131.544 42.4095 131.181 42.7733 130.939C43.137 130.818 43.622 130.818 43.8644 131.06C44.1069 131.302 44.3494 131.908 44.3494 132.271C44.3494 132.755 43.9857 133.118 43.7432 133.482C43.0158 134.329 42.8945 135.419 43.2582 136.751ZM174.806 85.4104C174.079 87.8321 174.443 90.1328 174.928 92.3123C175.17 93.4021 175.776 94.3708 176.746 94.9762C177.352 95.3395 177.837 95.7027 178.08 96.3082C178.565 97.6401 179.656 98.2456 180.868 98.4877C183.657 99.0932 186.446 99.4564 189.113 99.9408C189.598 100.062 190.083 99.9408 190.447 99.8197C191.053 99.6986 191.659 99.5775 191.659 98.851C191.659 98.4877 191.417 98.0034 191.174 97.6401C190.689 97.1558 190.083 96.9136 189.598 96.5504C188.992 96.1871 188.507 95.8238 188.749 94.9762C188.87 94.3708 189.477 94.1286 189.962 94.0075C190.568 93.8865 191.053 93.8864 191.659 93.7654C192.387 93.5232 192.993 93.1599 193.599 92.7967C194.205 92.3123 194.326 91.5858 193.963 90.7382C193.599 90.0117 192.993 89.5273 192.265 89.6484C191.295 89.7695 190.325 90.1328 189.355 90.3749C188.87 90.496 188.264 90.8593 187.779 90.8593C187.416 90.8593 186.931 90.496 186.688 90.1328C186.567 89.8906 186.567 89.2852 186.809 89.1641C187.294 88.5587 188.022 87.9532 188.628 87.4689C189.477 86.7424 190.325 85.8947 190.689 84.805C191.053 83.7152 191.295 82.6254 190.083 81.7778C188.143 82.6254 187.052 84.1996 186.446 86.1369C186.203 86.8634 186.082 87.59 185.718 88.1954C185.597 88.4376 184.869 88.5587 184.506 88.5587C184.263 88.5587 183.778 88.0743 183.778 87.8321C183.778 86.9845 183.9 86.1369 184.021 85.4104C184.142 83.7152 184.263 82.02 184.263 80.4459C184.263 79.9615 183.9 79.4772 183.657 79.1139C182.566 79.1139 182.202 79.7194 181.717 80.3248C180.747 81.7778 180.383 83.352 180.383 85.0472C180.383 86.0159 180.383 87.1056 180.262 88.0743C180.262 88.4376 179.777 88.9219 179.414 88.9219C179.05 89.043 178.444 88.8008 178.201 88.5587C177.716 87.8321 177.474 87.1056 176.989 86.3791C176.382 86.0159 176.019 85.2893 174.806 85.4104ZM65.4456 93.4021C64.4757 92.6756 63.5057 92.5545 62.4146 92.5545C60.2322 92.4334 58.5348 93.4021 57.5649 95.3395C56.1099 98.1245 55.9887 101.031 58.4135 103.694C58.7773 104.058 59.0198 104.421 59.3835 104.663C63.142 108.175 67.628 110.112 72.7202 110.596C72.9626 110.596 73.2051 110.475 73.5689 110.233C70.4166 104.784 67.7492 99.2142 65.4456 93.4021ZM159.53 89.2852C164.258 85.5315 167.532 78.9928 168.138 75.6024C168.502 73.665 168.502 71.7277 167.896 69.7903C167.532 68.7005 166.926 67.8529 166.077 67.0053C165.349 66.2788 164.501 66.1577 163.531 66.5209C161.106 67.4896 159.53 69.1849 159.166 71.8488C158.924 73.6651 158.924 75.4813 159.287 77.4187C159.651 79.7193 159.894 82.02 159.651 84.3206C159.287 85.8948 159.53 87.3478 159.53 89.2852ZM152.74 204.801C155.65 204.438 158.802 203.348 161.591 201.29C162.197 200.806 162.803 200.079 163.167 199.353C163.773 198.384 163.288 197.294 162.076 196.931C161.591 196.81 160.985 196.689 160.378 196.689C156.377 196.446 153.468 198.626 150.922 201.29C150.679 201.532 150.558 201.774 150.437 202.016C149.83 203.591 150.679 204.801 152.74 204.801ZM95.15 202.138C95.7562 203.833 95.8775 203.954 96.6049 204.559C100.242 207.223 104.364 207.465 108.729 206.86C109.335 206.739 109.942 206.255 109.942 205.528C110.063 204.68 109.699 204.075 108.85 203.833C106.304 203.106 103.879 202.259 101.333 201.774C99.7572 201.411 98.1811 201.532 96.6049 201.653C96.12 201.532 95.635 201.895 95.15 202.138Z" fill="#1D262D"/>
<path fill-rule="evenodd" clip-rule="evenodd" d="M127.522 99.9407C127.4 101.03 127.158 102.12 127.037 103.21C126.552 105.511 125.097 106.964 123.157 108.054C120.247 109.507 114.912 109.143 112.851 104.663C112.245 103.331 111.76 101.878 111.396 100.425C111.275 99.8196 111.396 99.0931 111.639 98.4877C111.76 98.1244 112.366 97.7612 112.73 97.7612C113.094 97.7612 113.579 98.2455 113.7 98.6088C113.942 99.4564 113.942 100.425 114.185 101.394C114.306 101.999 114.67 102.605 114.912 103.21C116.246 106.116 118.671 106.722 121.823 105.874C123.157 105.511 124.248 104.663 124.612 103.331C125.097 101.515 125.582 99.6986 124.854 97.8823C124.733 97.6401 124.612 97.3979 124.491 97.1557C124.369 96.5503 124.612 95.8238 125.339 95.5816C125.945 95.3394 126.43 95.7027 126.794 96.187C127.158 97.2768 127.522 98.4877 127.522 99.9407Z" fill="#1D262D"/>
<path fill-rule="evenodd" clip-rule="evenodd" d="M98.0588 92.4335C98.0588 94.7341 97.695 96.3083 95.8764 97.0348C94.3002 97.7613 92.8453 97.7613 91.3904 96.9137C89.8143 95.945 89.4505 94.3709 89.693 92.7967C89.9355 90.8594 90.7842 89.2852 92.6028 88.4376C94.5427 87.59 96.6038 88.3165 97.4525 90.2539C97.8163 91.1015 97.9375 92.0702 98.0588 92.4335Z" fill="#1D262D"/>
<path fill-rule="evenodd" clip-rule="evenodd" d="M135.524 88.6798C133.948 88.6798 132.857 87.8321 132.13 86.5002C131.402 85.0472 131.16 83.352 132.251 82.02C133.342 80.6881 134.555 79.4772 136.494 79.8404C138.192 80.2037 138.798 81.6568 139.404 83.2309C140.374 85.4104 137.949 89.043 135.524 88.6798Z" fill="#1D262D"/>
</svg>
