<svg width="170" height="190" viewBox="0 0 170 190" fill="none" xmlns="http://www.w3.org/2000/svg">
<path fill-rule="evenodd" clip-rule="evenodd" d="M76.7406 45.8803C77.5037 46.2519 78.1985 46.5126 78.7826 46.8414C84.3666 49.2167 89.8612 51.5705 95.4452 53.9457C99.0556 55.4708 102.666 56.9959 106.277 58.521C112.108 61.05 118.219 62.7938 124.368 63.9786C126.716 64.4447 129.148 64.5524 131.734 64.4127C131.718 64.8821 131.723 65.262 131.638 65.6204C131.394 67.4555 130.97 69.2478 131.105 71.0787C131.183 71.9494 131.261 72.82 131.539 73.6438C131.843 74.7578 132.522 75.4879 133.838 75.5183C134.038 75.4715 134.196 75.6038 134.575 75.5997C134.717 76.2015 134.858 76.8034 135.089 77.4266C135.598 78.8735 136.434 79.736 138.083 79.5617C138.193 79.4934 138.351 79.6258 138.53 79.6686C138.62 79.6899 138.62 79.69 138.777 79.8223C138.354 81.6146 137.684 83.2532 136.813 84.9386C133.694 90.5366 129.151 94.5635 123.545 97.4846C119.003 99.9025 114.063 100.805 108.998 100.637C102.616 100.438 96.4249 99.4321 90.4617 97.061C87.5932 95.9971 84.9623 94.3273 82.7058 92.2736C80.991 90.7279 79.4763 89.1354 78.004 87.3637C74.8804 83.7774 72.9528 79.5302 71.8893 74.8267C70.8941 70.2341 70.3887 65.5692 70.8418 60.8492C71.2899 55.7494 73.0381 51.1495 75.9969 47.0281C76.0815 46.6696 76.3452 46.3539 76.7406 45.8803ZM95.8964 73.6502C94.5329 73.4192 92.722 73.0813 90.8687 72.9226C89.7736 72.7557 89.331 73.0287 89.2771 74.0572C89.0751 75.713 88.852 77.4584 89.0291 79.1101C89.4238 83.8433 92.7005 87.182 97.3231 87.6236C99.4449 87.8464 101.199 87.224 102.202 85.3807C103.489 83.1322 104.619 80.7512 105.659 78.3489C106.028 77.5851 105.639 76.8296 104.787 76.4366C104.629 76.3042 104.361 76.2401 104.182 76.1973C101.629 75.3982 98.9863 74.5776 95.8964 73.6502ZM84.6385 60.074C82.891 59.4672 80.2141 61.1946 80.4269 63.8962C80.5828 65.6375 81.6664 66.6537 83.4254 66.4111C84.0258 66.2706 84.6474 66.0404 85.269 65.8102C86.5334 65.2601 87.1877 64.0911 87.126 62.7509C86.9537 61.4791 85.9808 60.3946 84.6385 60.074ZM116.271 76.245C117.972 76.6512 119.879 75.7814 120.328 74.2793C120.714 73.0461 119.573 71.0696 118.342 70.6807C116.573 70.1636 114.666 71.0334 114.396 72.5782C113.951 74.4601 114.592 75.7493 116.271 76.245Z" fill="#FFEAE3"/>
<path fill-rule="evenodd" clip-rule="evenodd" d="M77.8756 129.8C77.5291 128.865 77.7879 128.169 78.0256 127.563C79.6375 122.74 81.181 117.805 82.7929 112.982C84.1035 109.034 85.5249 105.018 86.8355 101.07C87.1367 100.195 87.4379 99.3195 87.7179 98.5342C88.561 98.1674 89.2136 98.6074 89.819 98.8467C93.8093 100.368 97.9478 101.262 102.239 101.908C104.34 102.221 106.505 102.265 108.627 102.487C108.806 102.53 109.075 102.594 109.343 102.658C109.485 103.26 109.626 103.862 109.768 104.464C110.192 106.27 110.527 108.055 110.952 109.861C111.548 112.939 112.145 116.017 112.653 119.074C113.186 122.421 113.698 125.857 114.142 129.183C114.314 130.455 114.487 131.727 114.569 132.978C114.647 133.849 114.073 134.28 113.293 134.378C113.093 134.425 112.914 134.382 112.624 134.407C108.222 133.829 103.809 134.101 99.4535 133.723C95.367 133.41 91.2805 133.096 87.1468 132.582C84.9352 132.338 82.8081 131.735 80.6811 131.133C79.8072 130.829 78.9073 130.235 77.8756 129.8ZM97.4955 123.597C97.969 123.994 98.4425 124.391 99.0056 124.81C99.816 125.382 100.605 126.044 101.437 126.527C102.021 126.856 102.716 127.116 103.432 127.287C104.527 127.454 105.212 126.955 105.198 125.815C105.183 124.676 105.058 123.604 104.865 122.421C104.74 121.35 104.504 120.347 104.447 119.386C104.711 119.07 104.864 118.823 105.017 118.575C105.94 117.47 106.973 116.296 107.896 115.191C108.708 114.154 108.678 113.484 107.641 112.668C106.852 112.006 105.909 111.592 104.993 111.468C103.83 111.19 102.645 111.001 101.371 110.792C101.114 109.878 100.767 108.943 100.531 107.94C100.321 107.227 100.112 106.514 99.7699 105.959C99.1288 104.669 98.0547 104.412 96.974 105.385C96.4889 105.838 95.9827 106.38 95.566 106.943C94.8221 108.091 94.057 109.329 93.292 110.566C92.4229 110.643 91.5326 110.809 90.5529 110.954C89.5731 111.098 88.5934 111.243 87.6136 111.388C87.1237 111.46 86.6339 111.532 86.2123 111.716C85.4588 112.104 84.7572 113.073 85.4406 114.183C86.2818 115.426 87.2549 116.51 88.56 117.39C89.2125 117.83 89.9334 118.381 90.4964 118.8C90.4002 120.008 90.1462 121.083 90.1819 122.134C90.1492 123.073 90.1848 124.123 90.4207 125.126C90.7297 126.62 92.0511 127.031 93.3793 126.212C93.7113 126.007 93.9538 125.781 94.1963 125.555C95.0557 124.718 96.1625 124.036 97.4955 123.597Z" fill="#9AD1E8"/>
<path fill-rule="evenodd" clip-rule="evenodd" d="M131.723 62.0968C129.901 62.6077 128.449 62.3555 126.954 62.2824C122.801 61.8586 118.728 60.6971 114.745 59.5569C110.246 58.1991 105.985 56.2359 101.681 54.4518C95.2252 51.7756 88.859 49.1208 82.4245 46.3551C80.8777 45.702 79.3944 44.7804 77.8687 44.0379C77.532 43.8629 77.1953 43.6879 76.927 43.6239C74.5067 42.6677 72.3923 41.2171 70.5203 39.5406C69.8892 39.0116 69.39 38.3249 68.9119 37.5487C67.6141 35.4417 68.8703 32.5257 71.3395 32.0748C72.4294 31.8621 73.5876 31.7602 74.7505 32.0379C79.3554 32.948 83.9602 33.8581 88.2005 35.9109C90.1523 36.8497 91.8617 38.0145 93.8346 38.8639C103.594 43.5583 112.72 49.3312 121.714 55.2618C124.66 57.1946 127.584 59.2169 130.508 61.2392C130.777 61.3033 131.092 61.5678 131.723 62.0968Z" fill="#9AD1E8"/>
<path fill-rule="evenodd" clip-rule="evenodd" d="M122.22 33.1205C123.283 34.2265 124.145 35.3793 125.203 36.1053C126.26 36.8314 127.513 37.1307 128.724 37.6093C129.139 38.6552 128.953 39.8417 128.968 40.9813C128.931 45.1387 128.268 49.1463 127.405 53.2009C127.067 54.6349 127.067 54.6349 126.233 55.7614C123.56 54.2706 121.061 52.4427 118.43 50.7727C115.799 49.1027 113.167 47.4327 110.515 45.8523C107.884 44.1823 105.232 42.6019 102.49 41.0001C102.77 40.2149 103.434 39.8054 104.077 39.4855C105.494 38.688 106.912 37.8904 108.377 37.2934C112.37 35.5963 116.505 34.5011 120.751 33.3376C121.241 33.2652 121.731 33.1929 122.22 33.1205Z" fill="#E87768"/>
<path fill-rule="evenodd" clip-rule="evenodd" d="M113.092 136.345C114.855 141.686 115.35 145.589 114.537 148.233C113.11 148.271 111.726 148.129 110.384 147.809C109.489 147.595 108.858 147.066 108.58 146.243C108.302 145.419 108.113 144.617 107.835 143.794C107.373 142.548 106.89 141.392 106.497 140.258C106.129 139.413 105.477 138.973 104.561 138.849C103.177 138.708 101.703 138.545 100.319 138.404C97.4604 138.1 94.4917 137.864 91.6335 137.56C91.2545 137.564 90.8966 137.479 90.6282 137.415C88.886 137.188 87.443 137.695 86.3463 139.136C85.3815 140.419 84.1694 141.549 83.1151 142.811C82.435 143.69 81.524 143.945 80.4292 143.778C78.1713 143.334 75.8875 142.599 73.6883 141.506C75.4342 138.517 77.1589 135.617 78.926 132.539C79.3734 132.645 79.8419 132.663 80.268 132.859C84.2306 134.089 88.2519 134.671 92.4261 135.005C97.3372 135.421 102.359 135.769 107.265 135.805C109.139 135.874 111.06 136.143 113.092 136.345Z" fill="#5C7CB3"/>
<path fill-rule="evenodd" clip-rule="evenodd" d="M128.258 57.0928C129.11 53.8863 129.873 50.6583 130.345 47.4559C130.797 44.3431 130.8 41.1234 130.915 37.8354C137.269 42.5737 142.525 57.5642 140.992 66.8598C140.723 66.7956 140.455 66.7314 140.297 66.599C136.686 63.4632 132.854 60.4639 128.869 57.7123C128.711 57.5798 128.574 57.3577 128.258 57.0928Z" fill="#5C7CB3"/>
<path fill-rule="evenodd" clip-rule="evenodd" d="M100.415 39.8391C95.6842 37.8575 91.6645 35.6671 90.355 34.408C90.7081 34.1137 90.9505 33.8877 91.2824 33.6831C94.6699 31.7475 98.3306 30.2558 102.18 29.5662C103.27 29.3534 104.36 29.1405 105.471 28.838C107.894 28.1863 110.326 28.294 112.695 28.6704C115.063 29.0469 117.369 29.692 119.785 30.269C120.321 30.3972 120.816 30.7046 121.579 31.0761C120.957 31.3063 120.536 31.4895 120.225 31.6046C116.67 32.6484 113.115 33.6922 109.629 34.8469C106.453 35.8866 103.461 37.3487 100.858 39.5662C100.726 39.724 100.615 39.7922 100.415 39.8391Z" fill="#5C7CB3"/>
<path fill-rule="evenodd" clip-rule="evenodd" d="M50.9073 74.5046C51.3597 74.9915 51.7649 75.2777 52.1277 75.7431C53.1268 77.1181 54.1259 78.4931 54.6822 80.1411C54.7977 80.4528 54.8449 80.6534 54.9604 80.9651C55.2126 81.4988 55.5966 81.8746 56.2655 81.845C56.8448 81.794 57.1085 81.4782 57.3251 80.9618C57.6734 80.2875 57.8216 79.66 58.2383 79.0967C58.655 78.5334 59.2296 78.1025 59.7146 77.6502C59.936 77.5137 60.2045 77.5778 60.6048 77.4841C60.7203 77.7957 60.9254 78.1288 61.0197 78.5301C61.218 80.0926 61.0583 81.5695 60.2721 82.8968C59.507 84.1344 58.6053 85.15 57.7507 86.3663C57.5977 86.6138 57.3551 86.84 57.0655 86.8655C56.0174 86.8992 55.5583 87.6418 54.8308 88.3202C53.4863 89.6088 51.8002 90.3424 49.909 90.7428C49.6193 90.7683 49.3085 90.8835 49.04 90.8193C47.4077 90.5241 45.6647 90.2971 44.1546 89.0841C44.4183 88.7683 44.6137 88.3415 44.9457 88.1368C45.2989 87.8424 45.8783 87.7914 46.2315 87.497C46.4528 87.3605 46.5375 87.0019 46.4904 86.8013C46.4432 86.6006 46.2382 86.2676 45.9696 86.2034C45.6328 86.0283 45.2536 86.0324 44.9851 85.9682C43.9793 85.8227 43.1689 85.2503 42.3797 84.5883C41.7695 83.9691 41.9389 83.252 42.6925 82.8638C43.1352 82.5908 43.6039 82.6081 44.1197 82.826C44.4566 83.0012 44.8618 83.2874 45.1986 83.4625C45.625 83.6591 46.0042 83.655 46.3786 83.2709C46.7529 82.8869 46.6586 82.4856 46.3641 82.1311C46.0224 81.576 45.6595 81.1106 45.4285 80.4872C45.2918 80.2652 45.3765 79.9067 45.5084 79.7488C45.6402 79.5909 46.1089 79.6082 46.2879 79.6509C47.1407 80.044 47.8615 80.595 48.6931 81.0777C48.9404 81.2315 49.4091 81.2488 49.6517 81.0226C49.873 80.8861 50.0683 80.4593 50.0423 80.169C49.9903 79.5884 49.717 79.1444 49.5755 78.5424C49.3983 76.8903 49.6947 75.6354 50.9073 74.5046Z" fill="#FFEAE3"/>
<path fill-rule="evenodd" clip-rule="evenodd" d="M123.643 129.258C123.629 128.119 124.335 127.53 125.042 126.941C125.395 126.647 125.838 126.374 126.28 126.101C127.097 125.444 126.93 124.551 125.898 124.116C125.382 123.898 124.824 123.859 124.308 123.641C124.04 123.577 123.682 123.491 123.545 123.269C123.34 122.936 123.156 122.514 123.151 122.134C123.215 121.865 123.5 121.459 123.789 121.434C124.501 121.225 125.191 121.106 125.859 121.076C127.576 121.013 129.277 121.419 130.782 122.252C132.129 122.953 133.26 124.17 133.748 125.707C134.142 126.842 134.646 127.91 135.019 129.135C135.533 130.962 135.668 132.793 135.044 134.633C135.002 134.812 134.67 135.017 134.38 135.042C134.269 135.111 133.954 134.846 133.907 134.645C133.744 134.133 133.602 133.531 133.44 133.019C132.281 133.121 132.095 134.307 131.231 134.764C130.673 134.725 130.51 134.213 130.326 133.79C130.143 133.367 130.138 132.987 129.954 132.565C129.702 132.031 128.986 131.86 128.522 132.223C128.058 132.585 127.684 132.969 127.22 133.332C126.998 133.468 126.619 133.473 126.461 133.34C126.304 133.208 126.209 132.807 126.252 132.627C126.51 131.932 126.88 131.168 127.139 130.472C127.419 129.687 126.809 129.067 126.029 129.165C125.718 129.28 125.318 129.374 125.007 129.489C124.717 129.515 124.407 129.63 124.138 129.566C124.091 129.365 123.912 129.322 123.643 129.258Z" fill="#FFEAE3"/>
<path fill-rule="evenodd" clip-rule="evenodd" d="M135.651 90.1301C135.714 89.8611 135.778 89.5922 135.91 89.4342C138.083 86.6383 139.562 83.5817 140.546 80.2173C140.889 79.1628 141.506 78.5524 142.529 78.2284C143.773 77.7677 144.974 77.4864 146.228 77.7858C147.123 77.9997 147.754 78.5294 147.922 79.4219C148.299 81.0276 148.14 82.5049 147.422 83.9436C146.117 86.663 143.839 88.2975 141.22 89.3767C139.665 89.9525 138.063 90.3276 136.456 90.3226C136.256 90.3695 136.009 90.2157 135.651 90.1301Z" fill="#FFEAE3"/>
<path fill-rule="evenodd" clip-rule="evenodd" d="M68.5423 65.1436C68.0684 64.7462 67.6417 64.5495 67.4365 64.2163C64.6207 60.5121 63.4078 56.4328 64.4884 51.8589C64.7003 50.9621 65.0017 50.0867 65.3927 49.2326C66.328 47.2769 68.4586 46.2698 70.2763 46.9881C70.7926 47.2061 71.2878 47.5139 71.6509 47.9796C72.1037 48.4667 72.2453 49.0689 71.8966 49.7436C71.5056 50.5976 71.1146 51.4517 70.7447 52.2161C69.3761 55.2052 68.9716 58.5194 68.678 61.7652C68.7137 62.8159 68.6386 63.9349 68.5423 65.1436Z" fill="#FFEAE3"/>
<path fill-rule="evenodd" clip-rule="evenodd" d="M133.531 73.1395C132.496 70.7136 132.875 67.1099 134.221 64.2111C134.469 64.3649 134.737 64.4291 134.985 64.5829C136.632 66.0183 138.279 67.4538 140.016 68.9106C140.716 69.5514 140.926 70.2645 140.714 71.1612C140.397 72.5061 140.147 73.9621 139.83 75.307C139.533 76.5623 138.763 77.4203 137.404 77.5691C136.546 76.7959 136.51 75.7454 136.453 74.7847C136.354 74.0032 136.434 73.2645 136.245 72.4617C136.146 71.6802 135.182 71.3553 134.655 71.987C134.412 72.2132 134.349 72.4822 134.127 72.6188C133.995 72.7767 133.774 72.9132 133.531 73.1395Z" fill="#976B47"/>
<path fill-rule="evenodd" clip-rule="evenodd" d="M67.7206 158.777C67.3838 158.602 67.0258 158.517 66.7785 158.363C65.1791 157.129 63.3161 156.21 61.4743 155.202C60.6428 154.72 59.9009 154.258 59.2013 153.618C58.2755 152.734 58.1552 152.043 58.6094 150.92C59.153 149.819 60.1489 149.205 61.3547 149.304C62.4498 149.471 63.413 149.796 64.2704 150.569C66.2326 152.268 67.3095 154.513 68.0756 156.874C68.3065 157.497 68.3374 158.167 67.7206 158.777Z" fill="#63B57A"/>
<path fill-rule="evenodd" clip-rule="evenodd" d="M123.865 155.857C124.587 156.408 124.976 157.165 124.964 158.015C125.045 160.876 124.094 163.302 122.267 165.424C122.157 165.492 122.025 165.65 121.914 165.718C121.45 166.081 120.985 166.444 120.379 166.205C119.774 165.965 119.832 165.316 119.78 164.735C119.775 164.355 119.86 163.996 119.924 163.727C120.385 161.374 121.294 159.128 122.541 157.057C122.958 156.493 123.174 155.976 123.865 155.857Z" fill="#63B57A"/>
<path fill-rule="evenodd" clip-rule="evenodd" d="M128.119 35.3623C126.666 35.11 125.609 34.3842 124.857 33.1635C124.563 32.8093 124.468 32.4081 124.753 32.0029C125.038 31.5977 125.438 31.504 125.907 31.5212C126.444 31.6495 126.981 31.7777 127.496 31.9955C128.685 32.5635 129.611 33.4471 130.315 34.4672C130.452 34.6891 130.478 34.9793 130.325 35.2267C130.283 35.4059 129.972 35.521 129.793 35.4782C129.214 35.5292 128.656 35.4905 128.119 35.3623Z" fill="#FFD16F"/>
<path fill-rule="evenodd" clip-rule="evenodd" d="M103.489 77.9357C103.494 78.3156 103.541 78.5162 103.409 78.6741C102.628 80.3811 101.868 81.9984 100.997 83.684C100.105 85.4592 98.7509 85.9879 96.8079 85.8078C94.507 85.5422 92.9076 84.308 91.7672 82.3314C90.5112 80.0431 90.4139 77.6528 91.1384 74.9855C91.8756 75.0669 92.5444 75.0373 93.2815 75.1187C96.8142 75.7732 100.13 76.9441 103.489 77.9357Z" fill="#FF9DA2"/>
<path fill-rule="evenodd" clip-rule="evenodd" d="M106.3 113.958C105.224 115.311 104.39 116.438 103.489 117.453C102.608 118.379 102.375 119.365 102.658 120.569C102.962 121.684 103.066 122.845 103.192 123.917C103.196 124.297 103.18 124.766 103.164 125.236C102.158 125.09 101.548 124.471 100.916 123.941C100.195 123.39 99.4956 122.75 98.7958 122.109C98.4118 121.733 97.9642 121.626 97.4531 121.788C96.8314 122.018 96.1201 122.227 95.4772 122.547C94.4127 123.051 93.4638 123.866 92.2415 124.236C91.7534 122.699 91.9603 121.423 92.3674 120.1C92.9861 117.88 92.7176 117.816 91.0072 116.65C89.7704 115.881 88.4441 115.091 87.6452 113.669C87.8877 113.442 88.0407 113.195 88.3304 113.169C90.0215 112.816 91.6442 112.351 93.3661 112.668C94.3719 112.813 94.4825 112.745 95.0051 111.734C95.6807 110.474 96.3563 109.215 97.1003 108.067C97.3852 107.662 97.7595 107.278 98.0232 106.962C98.7441 107.513 98.6643 108.251 98.8953 108.875C99.289 110.011 99.6827 111.146 100.166 112.303C100.465 113.038 100.892 113.234 101.714 112.957C103.247 112.471 104.594 113.172 106.3 113.958Z" fill="#FFC700"/>
<path fill-rule="evenodd" clip-rule="evenodd" d="M80.4247 64.0031C78.796 60.4889 74.0027 60.7643 71.556 63.1157C68.6032 66.009 69.9125 72.4774 74.3151 73.0556C76.4374 73.2785 78.3451 72.4084 79.5318 70.9872C81.7195 69.3317 81.4123 66.2278 80.4247 64.0031Z" fill="#FFC2BD"/>
<path fill-rule="evenodd" clip-rule="evenodd" d="M128.339 79.1163C127.814 78.1385 126.978 77.2759 126.056 76.7717C122.909 74.8836 118.694 76.7174 116.968 79.6196C114.847 82.9954 117.67 87.4576 120.681 89.1237C123.939 90.9437 127.865 89.1353 129.769 86.2759C131.299 83.8006 130.26 80.9955 128.339 79.1163Z" fill="#FFC2BD"/>
<path fill-rule="evenodd" clip-rule="evenodd" d="M123.526 125.542C123.032 125.235 122.606 125.038 122.29 124.773C121.254 123.958 120.86 122.822 121.157 121.566C121.454 120.311 122.271 119.653 123.472 119.371C125.964 118.829 128.244 119.184 130.597 120.03C131.292 120.29 131.897 120.529 132.481 120.858C133.235 120.47 133.294 119.821 133.353 119.171C133.411 118.522 133.381 117.852 132.929 117.365C132.272 116.545 131.615 115.725 130.847 114.973C128.049 112.411 124.966 110.254 121.751 108.255C118.784 106.41 115.774 104.745 112.674 103.057C112.337 102.882 111.89 102.776 111.285 102.536C111.358 103.027 111.273 103.386 111.299 103.677C111.633 105.462 111.899 107.136 112.323 108.942C113.124 112.354 113.835 115.745 114.257 119.161C114.652 122.287 115.116 125.524 115.601 128.672C115.726 129.744 115.851 130.816 116.086 131.819C116.258 133.092 116.23 134.411 115.328 135.428C114.821 135.97 114.963 136.572 115.083 137.264C115.554 139.271 116.025 141.278 116.296 143.332C116.493 144.895 116.47 146.595 116.467 148.205C116.465 149.815 115.89 150.246 114.173 150.31C113.794 150.314 113.504 150.34 113.215 150.365C113.083 150.523 112.951 150.681 113.019 150.792C113.106 152.424 113.104 154.034 113.281 155.686C113.431 157.049 114.173 157.51 115.596 157.092C116.507 156.835 117.461 156.4 118.415 155.964C119.769 155.435 121.034 154.884 122.299 154.333C123.453 153.851 124.59 153.838 125.78 154.406C127.591 158.344 126.743 161.931 124.689 165.42C124.055 166.5 123.285 167.358 122.199 167.952C120.249 169.002 118.476 168.105 118.047 165.919C117.854 164.736 117.951 163.527 118.427 162.315C118.987 160.743 119.437 159.24 120.04 157.489C119.661 157.493 119.371 157.519 119.06 157.634C118.038 157.959 117.063 158.484 116.041 158.808C113.507 159.53 111.844 158.565 111.432 155.908C111.213 154.435 111.194 152.915 111.064 151.463C111.06 151.083 110.987 150.592 110.914 150.1C110.398 149.883 109.882 149.665 109.345 149.537C108.003 149.216 107.077 148.332 106.616 147.085C106.338 146.261 106.06 145.437 105.782 144.613C105.41 143.387 104.927 142.23 104.534 141.094C103.434 140.547 102.228 140.449 101.112 140.372C97.6518 140.209 94.2132 139.957 90.7487 139.414C90.0115 139.333 89.3426 139.363 88.4948 139.35C87.8353 140.14 87.1075 140.819 86.3374 141.677C85.5672 142.536 84.8182 143.304 84.1163 144.273C83.1295 145.648 81.7281 145.977 80.1431 145.883C79.4059 145.802 78.7794 145.652 77.9527 145.55C77.6889 145.866 77.3568 146.071 77.1613 146.498C74.5375 150.798 71.9137 155.098 69.5372 159.552C68.8612 160.812 68.3289 161.064 66.9182 160.632C66.2917 160.483 65.6864 160.243 65.213 159.846C63.84 158.855 62.335 158.023 60.8089 157.279C59.6195 156.711 58.4513 156.054 57.4787 154.969C56.1221 153.508 55.7924 152.103 56.4637 150.463C57.2669 148.666 58.9697 147.461 60.8444 147.53C62.7192 147.598 64.2453 148.342 65.6231 149.713C66.7748 150.84 67.705 152.104 68.3244 153.484C68.6447 154.128 68.9862 154.684 69.3748 155.439C70.4512 154.086 71.1272 152.826 71.8243 151.477C73.1127 149.226 74.5376 147.198 75.8684 144.768C75.0158 144.375 74.321 144.115 73.5579 143.743C73.1317 143.547 72.5947 143.418 72.1896 143.132C71.2687 142.628 70.9696 141.894 71.4713 140.971C71.8623 140.117 72.4111 139.396 72.8915 138.563C74.0056 136.65 75.1197 134.737 76.2337 132.824C76.408 132.486 76.6035 132.059 76.7095 131.611C76.5729 131.389 76.4575 131.077 76.2102 130.923C75.5319 130.193 75.433 129.412 75.645 128.515C76.0266 126.901 76.4082 125.286 76.8581 123.783C78.7942 117.993 80.8198 112.224 82.8454 106.454C83.5332 104.345 84.221 102.235 84.9087 100.126C84.9935 99.767 85.0995 99.3186 85.2055 98.8702C84.5107 98.6097 84.2045 99.105 83.8513 99.3997C80.999 101.466 77.869 102.709 74.4869 103.417C72.7063 103.75 70.9894 103.814 69.157 103.566C66.3873 103.284 64.0298 102.059 62.042 100.068C59.8753 98.0355 58.1937 95.55 56.7335 92.9278C56.1872 92.0395 55.7515 91.0829 55.1368 90.0836C54.694 90.3568 54.2936 90.4507 53.9403 90.7454C52.7015 91.5866 51.2106 91.8939 49.788 92.3123C49.4984 92.3379 49.2087 92.3635 48.919 92.3891C47.0866 92.1413 45.2967 91.7141 43.6127 90.8385C43.3654 90.6847 43.1181 90.531 42.8708 90.3772C42.1501 89.8263 41.7616 89.0704 42.0842 88.1053C42.1902 87.6569 42.3645 87.3196 42.56 86.8925C41.9972 86.474 41.5238 86.0768 41.0504 85.6796C39.2887 83.9329 39.4654 81.9856 41.6369 80.7985C42.0797 80.5253 42.5696 80.4527 43.1019 80.2008C43.4929 79.3467 43.3681 78.2748 44.296 77.5489C45.224 76.823 46.1661 77.2374 47.2825 77.3143C47.4309 76.6866 47.5792 76.0588 47.8171 75.4524C48.0974 74.6667 48.4672 73.9023 48.9265 73.1593C49.6284 72.19 50.7188 71.9765 51.7763 72.7026C52.2497 73.0998 52.7019 73.5867 53.0646 74.0522C53.9736 75.406 54.8827 76.7598 55.8601 78.2246C56.2558 77.7506 56.6515 77.2766 57.1367 76.824C57.6642 76.192 58.3708 75.6027 59.1716 75.4149C60.7048 74.9282 61.8942 75.4963 62.3817 77.0337C62.5701 77.8365 62.7373 78.7291 62.636 79.5575C62.57 81.4365 62.0565 83.2087 60.8483 84.7203C59.7295 86.2533 58.3635 87.6326 57.0445 89.2125C57.1599 89.5243 57.2541 89.9257 57.5273 90.3699C58.8085 92.9493 60.3322 95.3024 62.1881 97.4506C65.4476 101.26 69.5433 102.332 74.2843 101.474C77.8454 100.808 81.0391 99.297 83.8442 97.0296C84.0868 96.8033 84.3294 96.5769 84.7039 96.1926C83.6418 95.0865 82.3629 94.4971 81.369 93.502C80.3751 92.5069 79.2706 91.5801 78.2979 90.4954C77.304 89.5003 76.3313 88.4155 75.4694 87.2624C74.6074 86.1093 73.7454 84.9562 73.0836 83.7562C72.4218 82.5561 71.8495 81.3774 71.2984 80.1091C70.7686 78.751 70.3282 77.4144 69.9773 76.099C69.6476 74.694 69.3179 73.289 69.0777 71.9054C68.8375 70.5218 68.708 69.0698 68.489 67.5965C67.9261 67.1779 67.2737 66.738 66.7532 66.1401C62.9826 62.4929 60.0129 55.0578 63.626 47.7727C65.2582 44.4675 69.7732 43.3661 72.4816 45.9072C72.7077 46.1507 72.8655 46.2831 73.2706 46.5692C73.6874 46.0055 74.1938 45.4632 74.6319 44.8099C74.248 44.4341 74.0219 44.1906 73.7063 43.9258C72.2438 42.9136 70.7812 41.9014 69.3399 40.7995C68.3036 39.9838 67.4887 39.0314 66.9164 37.8527C65.2514 34.8975 66.8483 30.5417 70.5201 29.8075C72.1004 29.5215 73.6384 29.4149 75.1598 29.778C79.0082 30.6964 82.8354 31.7046 86.7521 32.7341C87.0206 32.7981 87.2891 32.8622 87.6259 33.0373C88.0687 32.7641 88.5798 32.6018 89.0437 32.2389C93.1183 29.8008 97.4708 28.1869 102.075 27.1068C104.967 26.4708 107.749 25.903 110.698 26.2278C114.673 26.6082 118.564 27.3473 122.243 28.9832C123.006 29.3547 123.811 29.547 124.723 29.2908C126.014 29.0304 127.245 29.4191 128.413 30.0769C129.65 30.8457 130.665 31.7511 131.527 32.9042C132.231 33.9249 132.735 34.9925 132.549 36.1797C133.432 37.2431 134.337 38.2168 135.041 39.2375C138.442 43.6491 140.446 48.7695 141.739 54.0992C142.728 58.3142 143.116 62.67 142.836 67.0558C142.749 69.0244 142.661 70.9931 142.016 72.9233C141.715 73.7987 141.682 74.7382 141.427 75.8143C142.028 75.6734 142.518 75.6009 143.008 75.5283C143.877 75.4515 144.677 75.2637 145.525 75.2766C147.958 75.3835 149.268 76.6434 149.654 79.0093C149.925 81.0634 149.659 82.9893 148.566 84.8127C146.797 87.8958 144.187 89.7362 140.899 90.8462C138.834 91.5849 136.674 91.922 134.415 91.4777C134.147 91.4137 133.857 91.4393 133.768 91.4179C131.801 92.938 130.013 94.5009 128.158 95.9527C126.302 97.4045 124.172 98.4121 122.043 99.4198C119.935 100.338 117.712 100.944 115.289 101.597C115.946 102.417 116.64 102.678 117.314 103.028C120.84 104.911 124.212 107.043 127.342 109.4C128.941 110.634 130.451 111.847 131.94 113.15C132.639 113.791 133.317 114.521 133.974 115.341C135.267 117.071 135.402 118.903 134.488 120.769C134.313 121.106 134.118 121.533 133.944 121.87C134.495 123.139 135.046 124.407 135.618 125.586C136.81 128.144 137.043 130.757 136.675 133.512C136.388 135.527 135.46 136.253 133.385 136.232C133.206 136.189 132.938 136.125 132.737 136.172C130.936 136.595 129.699 135.826 128.679 134.54C128.611 134.429 128.453 134.297 128.296 134.165C127.874 134.348 127.363 134.51 126.852 134.673C125.25 135.048 124.214 134.233 124.127 132.601C124.143 132.132 124.16 131.662 124.198 131.102C123.571 130.953 123.034 130.825 122.518 130.607C121.466 130.261 121.098 129.415 121.331 128.429C121.501 127.711 121.828 127.126 122.177 126.452C122.735 126.49 123.088 126.196 123.526 125.542ZM76.7422 45.8819C76.3465 46.3559 75.9932 46.6506 75.8189 46.9879C72.8583 51.1129 71.1083 55.7163 70.6583 60.8195C70.2036 65.5425 70.7075 70.2102 71.7013 74.8052C72.7634 79.5113 74.6899 83.7606 77.8128 87.348C79.306 89.0307 80.8886 90.7347 82.5137 92.2594C84.7699 94.3136 87.4218 95.8939 90.2693 97.0472C96.2538 99.3281 102.446 100.332 108.807 100.619C113.963 100.807 118.814 99.8807 123.358 97.4598C128.965 94.5349 133.511 90.504 136.632 84.9014C137.482 83.3044 138.264 81.5963 138.599 79.7813C138.441 79.6489 138.351 79.6276 138.351 79.6276C138.172 79.5849 138.083 79.5635 137.904 79.5208C136.255 79.6957 135.419 78.833 134.91 77.3853C134.68 76.7618 134.538 76.1597 134.397 75.5575C134.128 75.4935 133.949 75.4507 133.66 75.4763C132.322 75.536 131.665 74.716 131.361 73.6014C131.083 72.7772 131.006 71.906 130.928 71.0349C130.794 69.2028 131.239 67.3196 131.463 65.573C131.547 65.2143 131.543 64.8342 131.559 64.3645C128.973 64.5052 126.54 64.3983 124.192 63.9326C117.953 62.7278 111.931 61.0064 106.1 58.4778C102.489 56.953 98.8786 55.4281 95.2681 53.9033C89.6839 51.5285 84.1893 49.175 78.6051 46.8002C78.2 46.5141 77.5052 46.2535 76.7422 45.8819ZM77.8919 129.809C78.9022 130.334 79.8019 130.928 80.7864 131.163C82.9131 131.765 85.0398 132.368 87.2514 132.611C91.2953 133.103 95.4711 133.436 99.5573 133.748C103.933 134.035 108.347 133.762 112.728 134.428C112.907 134.471 113.196 134.445 113.397 134.398C114.176 134.3 114.772 133.779 114.673 132.998C114.591 131.746 114.419 130.474 114.247 129.201C113.715 125.853 113.293 122.437 112.761 119.089C112.255 116.031 111.659 112.952 111.063 109.873C110.729 108.088 110.305 106.281 109.881 104.475C109.74 103.873 109.598 103.271 109.457 102.669C109.099 102.583 108.941 102.451 108.741 102.498C106.619 102.275 104.455 102.233 102.354 101.921C98.1308 101.387 93.9928 100.494 89.9348 98.8621C89.3295 98.6229 88.6771 98.183 87.8339 98.5502C87.5536 99.3359 87.2522 100.211 86.9507 101.087C85.6387 105.037 84.2161 109.055 82.9041 113.005C81.2907 117.831 79.6561 122.746 78.1321 127.593C77.8942 128.199 77.6352 128.895 77.8919 129.809ZM131.71 62.1268C131.079 61.5972 130.763 61.3324 130.448 61.0676C127.523 59.0432 124.597 57.0188 121.651 55.084C112.654 49.1474 103.526 43.3688 93.7634 38.6705C91.811 37.7309 89.9904 36.6332 88.1275 35.7149C83.8858 33.6605 79.279 32.7505 74.6723 31.8406C73.5983 31.5843 72.4395 31.6867 71.2596 31.8787C68.7678 32.4209 67.5312 35.2521 68.8289 37.3618C69.3281 38.0494 69.8274 38.737 70.4374 39.3562C72.2886 41.1243 74.4035 42.5764 76.8458 43.4435C77.1826 43.6186 77.5406 43.7041 77.7879 43.8578C79.3141 44.601 80.7978 45.5236 82.3452 46.1771C88.7819 48.9448 95.1503 51.6015 101.608 54.2796C105.914 56.065 110.176 58.0297 114.677 59.3881C118.73 60.6396 122.715 61.7802 126.891 62.1136C128.413 62.4767 129.866 62.7288 131.71 62.1268ZM122.205 33.1426C121.715 33.2151 121.225 33.2877 120.714 33.4499C116.578 34.5471 112.332 35.7126 108.337 37.4119C106.873 38.0096 105.433 38.8978 104.037 39.6066C103.394 39.9268 102.751 40.247 102.449 41.1224C105.101 42.7027 107.753 44.283 110.473 45.9743C113.104 47.6443 115.735 49.3142 118.387 50.8945C121.018 52.5644 123.516 54.3924 126.19 55.883C127.023 54.7556 127.023 54.7556 127.362 53.3208C128.227 49.264 128.802 45.2327 128.929 41.0947C128.915 39.9544 129.08 38.857 128.686 37.721C127.476 37.2426 126.223 36.9436 125.165 36.2175C124.129 35.4018 123.267 34.2487 122.205 33.1426ZM113.13 136.324C111.187 136.145 109.265 135.875 107.28 135.875C102.282 135.819 97.3481 135.494 92.4351 135.08C88.3489 134.768 84.2367 134.165 80.2729 132.935C79.8254 132.828 79.3779 132.722 78.9304 132.615C77.1616 135.698 75.4352 138.602 73.6875 141.595C75.8661 142.778 78.0823 143.402 80.4304 143.867C81.5256 144.034 82.3476 143.757 83.1178 142.898C84.1729 141.634 85.3859 140.503 86.3515 139.217C87.4491 137.774 88.8034 137.245 90.6357 137.493C90.9937 137.578 91.3729 137.574 91.6414 137.638C94.5006 137.941 97.4705 138.176 100.33 138.48C101.715 138.621 103.189 138.783 104.574 138.924C105.511 138.958 106.164 139.398 106.51 140.334C106.993 141.491 107.454 142.738 107.847 143.874C108.125 144.698 108.403 145.522 108.592 146.325C108.848 147.239 109.501 147.679 110.396 147.893C111.738 148.213 113.123 148.354 114.55 148.316C115.276 145.647 114.802 141.65 113.13 136.324ZM128.257 57.1344C128.573 57.3992 128.71 57.6212 128.867 57.7536C132.85 60.5041 136.701 63.4126 140.288 66.6371C140.445 66.7695 140.714 66.8335 140.982 66.8976C142.429 57.5796 137.269 42.6113 130.919 37.8749C130.714 41.1418 130.731 44.272 130.347 47.4962C129.873 50.699 129.11 53.9273 128.257 57.1344ZM100.382 39.871C100.603 39.7344 100.803 39.6874 100.914 39.6191C103.519 37.3987 106.512 35.9342 109.689 34.8925C113.178 33.7354 116.734 32.6895 120.29 31.6435C120.691 31.5496 121.023 31.3446 121.645 31.1141C120.792 30.7211 120.387 30.435 119.85 30.3068C117.523 29.7515 115.128 29.0851 112.758 28.7091C110.389 28.3331 107.956 28.2262 105.533 28.8793C104.421 29.1825 103.331 29.3959 102.24 29.6093C98.3893 30.3008 94.7269 31.7952 91.3377 33.7337C91.0056 33.9387 90.7418 34.2547 90.4097 34.4596C91.6085 35.7878 95.6288 37.9789 100.382 39.871ZM50.8836 74.479C49.7602 75.632 49.4634 76.8874 49.7931 78.2924C49.9556 78.8049 50.2076 79.3387 50.2594 79.9195C50.2853 80.2099 50.0898 80.6369 49.8684 80.7736C49.647 80.9102 49.1783 80.8931 48.9098 80.829C48.0572 80.4361 47.3366 79.8851 46.5052 79.4025C46.3474 79.2701 45.8575 79.3427 45.7256 79.5007C45.5937 79.6586 45.5089 80.0174 45.6455 80.2394C45.8975 80.7733 46.3285 81.3498 46.5805 81.8836C46.7854 82.2167 46.9691 82.6395 46.5946 83.0238C46.2201 83.4081 45.8409 83.4124 45.4146 83.2159C45.0779 83.0408 44.6727 82.7546 44.336 82.5795C43.8202 82.3617 43.3515 82.3446 42.9087 82.6178C42.155 83.0064 41.9854 83.7238 42.5954 84.3431C43.2737 85.0734 44.1051 85.556 45.2003 85.7226C45.5582 85.8081 45.9374 85.8038 46.1847 85.9576C46.432 86.1113 46.6581 86.3548 46.7052 86.5555C46.7523 86.7562 46.6463 87.2046 46.4461 87.2516C46.0033 87.5248 45.5135 87.5974 45.1602 87.892C44.8281 88.097 44.6326 88.524 44.3688 88.84C45.8784 90.0529 47.6425 90.1897 49.2535 90.5742C49.5219 90.6383 49.8328 90.523 50.1225 90.4974C51.9926 90.1858 53.6106 89.3404 55.045 88.0722C55.7515 87.4829 56.2108 86.7399 57.2801 86.6161C57.4803 86.5692 57.7229 86.3429 57.9655 86.1165C58.7993 84.9892 59.7225 83.8832 60.488 82.6449C61.2747 81.3168 61.4349 79.8393 61.2371 78.2763C61.2112 77.9859 61.0062 77.6528 60.8226 77.23C60.5329 77.2556 60.1537 77.2598 59.9323 77.3964C59.3576 77.8277 58.8724 78.2804 58.4555 78.844C58.0386 79.4077 57.7795 80.1037 57.5417 80.7101C57.325 81.2268 56.9717 81.5215 56.4818 81.594C55.8129 81.6239 55.429 81.248 55.177 80.7142C55.0404 80.4921 54.925 80.1804 54.8991 79.89C54.3433 78.2416 53.3448 76.8664 52.3462 75.4912C51.7197 75.3417 51.2463 74.9445 50.8836 74.479ZM123.684 129.275C124.042 129.36 124.132 129.381 124.311 129.424C124.6 129.398 124.89 129.373 125.18 129.347C125.491 129.232 125.891 129.138 126.202 129.023C127.092 128.856 127.591 129.544 127.311 130.33C127.052 131.026 126.682 131.79 126.423 132.486C126.381 132.665 126.475 133.067 126.633 133.199C126.791 133.332 127.191 133.238 127.391 133.191C127.855 132.828 128.23 132.444 128.694 132.081C129.158 131.718 129.874 131.889 130.126 132.422C130.309 132.845 130.314 133.225 130.498 133.648C130.681 134.071 130.844 134.583 131.402 134.622C132.245 134.255 132.431 133.067 133.611 132.875C133.753 133.477 133.915 133.99 134.078 134.502C134.125 134.703 134.372 134.857 134.551 134.9C134.751 134.853 135.083 134.648 135.215 134.49C135.75 132.628 135.705 130.817 135.192 128.989C134.888 127.875 134.316 126.696 133.922 125.56C133.345 124.001 132.304 122.806 130.957 122.105C129.452 121.272 127.731 120.956 126.035 120.93C125.366 120.96 124.586 121.058 123.965 121.289C123.654 121.404 123.369 121.81 123.326 121.989C123.331 122.369 123.515 122.792 123.72 123.125C123.856 123.347 124.214 123.433 124.483 123.497C125.02 123.625 125.557 123.753 126.073 123.971C127.125 124.317 127.292 125.209 126.454 125.957C126.101 126.251 125.658 126.525 125.215 126.798C124.377 127.545 123.67 128.134 123.684 129.275ZM135.671 90.1668C135.939 90.2309 136.276 90.406 136.476 90.359C138.083 90.3634 139.684 89.9878 141.239 89.4114C143.947 88.3525 146.156 86.6061 147.44 83.9756C148.158 82.5365 148.25 80.9479 147.942 79.4533C147.685 78.5394 147.143 78.0311 146.248 77.8175C144.906 77.4972 143.684 77.8686 142.551 78.2614C141.618 78.6072 140.911 79.1965 140.568 80.2512C139.583 83.6163 138.083 86.7635 135.93 89.4708C135.887 89.6501 135.824 89.9191 135.671 90.1668ZM68.5032 65.1367C68.621 63.8385 68.6752 62.8093 68.7294 61.7802C69.0238 58.5346 69.4078 55.3105 70.7975 52.2316C71.1884 51.3776 71.5794 50.5235 71.9492 49.7591C72.2978 49.0844 72.1565 48.4823 71.7043 47.9954C71.3204 47.6196 70.847 47.2224 70.3313 47.0046C68.4259 46.2656 66.318 47.1836 65.4512 49.2504C65.0602 50.1045 64.7587 50.9799 64.5467 51.8767C63.3549 56.5185 64.6761 60.5286 67.4881 64.2313C67.6035 64.543 68.0298 64.7395 68.5032 65.1367ZM133.542 73.1746C133.785 72.9482 134.006 72.8116 134.138 72.6536C134.291 72.4059 134.444 72.1583 134.666 72.0216C135.261 71.5007 136.156 71.7143 136.255 72.4958C136.354 73.2773 136.364 74.0374 136.463 74.8189C136.609 75.8011 136.554 76.8303 137.412 77.6033C138.771 77.454 139.541 76.5957 139.838 75.3402C140.155 73.995 140.405 72.5388 140.723 71.1937C140.935 70.2969 140.726 69.5837 140.026 68.9431C138.38 67.5081 136.734 66.0731 134.998 64.6167C134.751 64.463 134.482 64.3989 134.235 64.2451C132.887 67.1447 132.619 70.6805 133.542 73.1746ZM67.7426 158.745C68.3597 158.134 68.3291 157.464 68.1666 156.951C67.4012 154.59 66.2142 152.412 64.363 150.643C63.5058 149.87 62.5425 149.546 61.4473 149.379C60.2627 149.191 59.2452 149.896 58.7011 150.997C58.1782 152.009 58.2771 152.791 59.2922 153.696C59.9917 154.337 60.7336 154.798 61.5649 155.281C63.3172 156.267 65.1802 157.186 66.8688 158.441C67.0478 158.484 67.4058 158.57 67.7426 158.745ZM123.924 155.858C123.234 155.978 123.017 156.494 122.711 156.99C121.465 159.061 120.556 161.307 120.094 163.66C120.009 164.019 119.924 164.377 119.95 164.668C119.913 165.227 119.943 165.898 120.549 166.137C121.154 166.376 121.618 166.013 122.082 165.65C122.192 165.582 122.303 165.513 122.435 165.355C124.171 163.212 125.212 160.808 125.132 157.946C125.033 157.165 124.734 156.43 123.924 155.858ZM128.1 35.4021C128.658 35.4406 129.195 35.5687 129.753 35.6072C129.932 35.6499 130.265 35.445 130.286 35.3553C130.349 35.0863 130.413 34.8172 130.276 34.5952C129.572 33.5745 128.647 32.6904 127.457 32.1223C126.941 31.9045 126.404 31.7764 125.867 31.6482C125.42 31.5414 124.998 31.725 124.713 32.1307C124.428 32.5363 124.612 32.9591 124.817 33.2922C125.589 34.424 126.647 35.15 128.1 35.4021Z" fill="#1D262D"/>
<path fill-rule="evenodd" clip-rule="evenodd" d="M95.8978 73.6579C98.9871 74.5846 101.629 75.4046 104.292 76.1349C104.471 76.1776 104.74 76.2416 104.897 76.374C105.75 76.7669 106.138 77.5226 105.768 78.2868C104.638 80.6691 103.597 83.0727 102.309 85.3226C101.306 87.167 99.4624 87.7688 97.4304 87.568C92.8082 87.1278 89.5329 83.7889 89.1398 79.054C88.9632 77.4017 89.2764 75.6768 89.3895 73.9989C89.4437 72.97 89.8864 72.6968 90.9813 72.8634C92.7025 73.1795 94.5133 73.5169 95.8978 73.6579ZM103.489 77.9322C100.131 76.9415 96.7266 75.75 93.2841 75.1179C92.6577 74.9684 91.8996 74.9768 91.1414 74.9853C90.4161 77.6537 90.5125 80.0446 91.7675 82.3332C92.9071 84.31 94.4165 85.5227 96.8064 85.8089C98.7278 86.078 100.192 85.4804 100.995 83.683C101.777 81.9753 102.627 80.3786 103.409 78.6709C103.541 78.5129 103.494 78.3122 103.489 77.9322Z" fill="#1D262D"/>
<path fill-rule="evenodd" clip-rule="evenodd" d="M84.6583 60.0791C85.9111 60.3781 86.9731 61.4841 87.0555 62.7352C87.2062 64.0973 86.5515 65.2673 85.1974 65.7966C84.5757 66.0272 84.0435 66.279 83.3535 66.3985C81.5944 66.6418 80.5111 65.6255 80.3557 63.8833C80.2334 61.2017 82.9109 59.4726 84.6583 60.0791Z" fill="#1D262D"/>
<path fill-rule="evenodd" clip-rule="evenodd" d="M116.269 76.2305C114.68 75.7564 113.928 74.5352 114.305 72.5412C114.576 70.9955 116.573 70.146 118.252 70.6414C119.484 71.0301 120.623 73.0071 120.237 74.2411C119.787 75.744 117.88 76.6149 116.269 76.2305Z" fill="#1D262D"/>
<path fill-rule="evenodd" clip-rule="evenodd" d="M97.498 123.6C96.2546 124.061 95.169 124.654 94.1305 125.448C93.8879 125.675 93.5559 125.879 93.3133 126.106C92.0747 126.947 90.6641 126.515 90.3556 125.021C90.1202 124.017 90.0637 123.057 90.1179 122.028C90.1721 120.999 90.3369 119.901 90.4335 118.693C89.8707 118.274 89.1501 117.724 88.4978 117.284C87.2827 116.425 86.3102 115.341 85.38 114.077C84.6076 112.945 85.3094 111.976 86.1525 111.609C86.574 111.425 87.0638 111.353 87.5536 111.28C88.5333 111.135 89.5129 110.99 90.4925 110.845C91.3827 110.678 92.3411 110.623 93.2313 110.456C93.9967 109.218 94.762 107.98 95.5062 106.831C95.923 106.268 96.3399 105.704 96.9145 105.273C97.9742 104.389 99.048 104.645 99.7097 105.845C100.03 106.49 100.15 107.182 100.47 107.827C100.816 108.762 101.073 109.676 101.309 110.679C102.583 110.888 103.746 111.166 104.93 111.354C105.915 111.589 106.788 111.892 107.577 112.554C108.592 113.459 108.623 114.13 107.831 115.078C106.908 116.183 105.875 117.358 104.951 118.463C104.798 118.711 104.645 118.959 104.381 119.275C104.527 120.257 104.673 121.239 104.798 122.311C104.902 123.472 105.116 124.565 105.13 125.705C105.144 126.845 104.438 127.435 103.364 127.178C102.648 127.007 102.043 126.768 101.369 126.418C100.538 125.936 99.7493 125.274 98.9392 124.701C98.4235 124.484 97.9714 123.997 97.498 123.6ZM106.301 113.955C104.685 113.19 103.228 112.558 101.516 113.002C100.694 113.279 100.268 113.083 99.9686 112.349C99.4859 111.191 99.1821 110.077 98.6994 108.92C98.4686 108.296 98.4804 107.447 97.8281 107.007C97.5432 107.412 97.1899 107.707 96.905 108.112C96.1396 109.351 95.4637 110.61 94.809 111.78C94.3074 112.702 94.1755 112.86 93.17 112.715C91.4486 112.399 89.8261 112.864 88.1352 113.219C87.9351 113.266 87.6925 113.492 87.45 113.718C88.2482 115.14 89.574 115.93 90.8103 116.699C92.6306 117.796 92.7884 117.929 92.169 120.149C91.8723 121.404 91.5543 122.749 92.0417 124.287C93.2639 123.915 94.1235 123.078 95.2774 122.596C95.9203 122.276 96.6315 122.067 97.2532 121.836C97.7642 121.674 98.2116 121.781 98.5955 122.156C99.2948 122.797 99.9942 123.438 100.715 123.988C101.346 124.518 101.977 125.047 102.961 125.282C102.999 124.723 103.084 124.364 102.99 123.963C102.886 122.802 102.761 121.73 102.457 120.615C102.175 119.411 102.408 118.425 103.289 117.498C104.391 116.435 105.246 115.218 106.301 113.955Z" fill="#1D262D"/>
</svg>
