<svg width="127" height="209" viewBox="0 0 127 209" fill="none" xmlns="http://www.w3.org/2000/svg">
<path fill-rule="evenodd" clip-rule="evenodd" d="M41.5219 57.4924C42.3849 58.5398 43.14 59.5872 44.003 60.4252C44.9739 61.3678 45.9448 62.4152 47.1314 63.1484C49.7204 64.8242 52.4173 65.0337 55.2221 63.6721C58.7819 61.9962 61.1552 59.273 62.3418 55.6071C62.5576 54.9787 62.7733 54.2455 62.9891 53.3029C63.7442 53.9313 64.2836 54.3503 64.823 54.874C66.6568 56.4451 68.5986 57.8067 70.9719 58.4351C71.727 58.6446 72.59 58.7493 73.453 58.8541C76.1499 59.0635 77.6601 57.3877 78.3074 55.8166C78.5231 55.1882 78.7389 54.5597 78.8467 54.036C79.494 53.7218 79.6019 54.2455 79.9255 54.455C81.3279 55.7119 82.6224 57.0735 84.1326 58.2256C85.7508 59.4825 87.4768 60.2157 89.5264 60.5299C90.0658 60.5299 90.4973 60.6346 91.0366 60.6346C94.0571 60.5299 95.5674 59.273 96.6462 56.1308C96.9698 56.5498 97.1855 56.864 97.4013 57.283C98.9115 61.0536 99.6667 65.0337 99.9903 69.1185C100.53 76.974 98.3722 84.201 95.028 91.1138C94.165 92.8944 93.302 94.5702 92.2233 96.2461C88.2319 102.53 82.5145 106.825 75.8262 109.967C73.8845 110.91 71.8349 111.538 69.7852 111.957C67.0883 112.585 64.3915 113.004 61.6946 113.214C53.2803 113.842 45.2975 112.585 37.6384 109.024C33.4313 107.139 29.5478 104.73 26.2036 101.693C21.1335 97.084 16.7106 91.9517 13.798 85.7721C13.4743 85.1437 13.2586 84.4105 13.0428 83.7821C13.0428 83.6773 13.1507 83.4678 13.2586 83.1536C13.6901 83.1536 14.2295 83.1536 14.661 83.2584C16.0634 83.5726 17.3579 83.1536 18.3287 82.1062C19.1917 81.2683 20.0547 80.3257 20.702 79.2783C22.428 76.6598 23.7225 73.8318 24.8012 71.0038C25.1249 70.2707 25.1249 69.4328 25.9879 68.8043C26.4194 69.328 26.8509 69.8517 27.2824 70.1659C28.0375 70.6896 28.7926 71.1086 29.6556 71.4228C31.058 71.9465 32.4604 71.6323 33.647 70.6896C34.8336 69.747 35.6966 68.4901 36.3439 67.2332C37.8542 64.4053 39.3644 61.5773 40.7668 58.8541C40.8747 58.5398 41.1983 58.1209 41.5219 57.4924ZM67.5198 89.9617C67.5198 90.9043 67.6277 91.9517 67.5198 92.8944C67.3041 94.5702 65.4702 96.4555 63.8521 96.7697C61.371 97.2934 58.4583 95.8271 57.7032 93.4181C57.3796 92.4754 57.3796 91.5328 57.1638 90.5901C57.0559 90.0664 56.8402 89.6475 56.3008 89.5427C55.7614 89.438 55.1142 89.8569 55.0063 90.4854C54.8984 90.7996 54.8984 91.1138 54.8984 91.428C55.0063 95.1987 57.1638 97.8171 61.0473 98.6551C64.6072 99.493 68.4907 97.3982 69.4616 93.9418C70.1089 91.7423 69.6773 89.438 69.2458 87.2385C69.138 86.8195 68.4907 86.4005 68.0592 86.61C67.7356 86.8195 67.3041 87.1337 67.3041 87.4479C67.3041 88.3906 67.412 89.1238 67.5198 89.9617ZM45.2975 85.5626C45.2975 83.6773 44.003 82.6299 41.8455 82.6299C39.7959 82.6299 38.2857 83.8868 38.2857 85.7721C38.2857 87.5527 39.7959 89.019 41.5219 89.019C43.5715 89.019 45.2975 87.4479 45.2975 85.5626ZM81.22 75.0887C81.3279 73.7271 80.5727 72.5749 79.494 72.156C77.5522 71.5275 75.0711 72.7844 74.5317 74.6697C74.2081 76.0313 74.8554 77.6024 76.1499 78.1261C78.3074 79.0688 81.1121 77.393 81.22 75.0887Z" fill="#FFEAE3"/>
<path fill-rule="evenodd" clip-rule="evenodd" d="M22.7519 46.4947C25.0173 46.809 26.7433 45.971 28.1457 44.6094C29.6559 43.3526 31.0583 41.8862 32.4607 40.6294C33.1079 40.1057 33.6473 39.4772 34.2945 39.0583C34.9418 38.6393 35.589 38.3251 36.3442 38.2203C37.5308 38.0109 38.8253 37.6967 39.9041 37.2777C41.3064 36.754 42.4931 36.1256 42.9246 34.764C45.7293 34.0308 48.4262 33.4023 51.0152 32.7739C52.7412 32.355 54.4672 32.1455 56.1932 32.0407C64.4996 31.4123 72.2666 33.2976 79.4943 37.173C85.6432 40.5246 90.4975 45.2379 94.1653 51.1033C94.4889 51.7317 94.7047 52.2554 94.4889 52.9886C94.2732 54.036 94.1653 55.0834 93.9496 56.1308C93.6259 57.7018 92.8708 58.3303 91.2527 58.435C89.8503 58.5397 88.5558 58.435 87.3692 57.7018C85.9668 56.9687 84.6723 56.1308 83.4857 55.0834C81.7597 53.617 80.2494 52.0459 79.0628 50.1606C78.847 49.8464 78.5234 49.5322 78.1998 49.218C77.8761 48.9037 77.0131 49.1132 76.9053 49.5322C76.7974 49.9511 76.6895 50.2654 76.5816 50.6843C76.4738 51.8364 76.4738 52.9886 76.258 54.036C75.9344 56.1308 74.6399 56.9687 72.4824 56.5497C69.0304 55.9213 66.4414 54.036 64.2839 51.4175C63.7445 50.6843 63.313 49.9511 62.7736 49.218C62.5579 48.9037 62.3421 48.6943 62.1264 48.4848C61.6949 48.1706 60.8319 48.3801 60.724 48.9038C60.6161 49.3227 60.6161 49.8464 60.6161 50.3701C60.5082 51.5222 60.5082 52.6744 60.2925 53.7217C59.6452 57.2829 57.4877 59.9014 54.2515 61.5772C52.094 62.6246 49.9365 62.5198 47.8868 61.1582C45.8372 59.6919 44.3269 57.8066 43.0324 55.6071C42.7088 55.0834 42.4931 54.5597 42.1694 54.1407C41.7379 53.617 40.7671 53.617 40.4434 54.1407C40.1198 54.5597 39.9041 55.0834 39.5804 55.6071C37.8544 58.9587 36.1284 62.4151 34.2945 65.7668C33.7552 66.7094 33.1079 67.6521 32.3528 68.5947C31.3819 69.6421 30.3032 69.7468 29.0087 69.0137C28.0378 68.3852 27.3905 67.4426 26.7433 66.3952C26.3118 65.7668 25.9882 65.1383 25.5567 64.5099C25.0173 63.8815 24.0464 64.0909 23.7228 64.8241C23.6149 65.2431 23.507 65.662 23.507 65.9762C22.644 70.48 20.5944 74.5649 18.2211 78.4402C18.0054 78.7544 17.7896 79.0686 17.466 79.3829C16.0636 81.0587 14.014 81.2682 12.1801 80.116C11.5329 79.6971 11.425 79.0686 11.3171 78.4402C10.9935 75.717 10.7777 72.9938 11.1014 70.1658C11.7486 64.5099 13.6904 59.2729 16.7109 54.4549C18.6526 52.0459 20.7023 49.4274 22.7519 46.4947Z" fill="#AE7251"/>
<path fill-rule="evenodd" clip-rule="evenodd" d="M57.0574 115.623C62.667 115.413 68.0607 114.89 73.2387 113.318C74.749 115.204 75.612 117.299 76.7986 119.289C82.516 129.448 87.5861 139.817 91.4696 150.815C90.8224 152.491 89.3121 153.119 87.8019 153.643C83.5947 155.319 79.2797 156.366 74.749 156.471C70.434 156.471 66.119 156.785 61.804 156.052C57.8126 155.319 53.8212 154.376 49.8298 153.538C48.751 153.329 47.6723 152.7 46.5935 152.177C45.8384 151.758 45.6227 151.339 45.9463 150.606C46.0542 150.187 46.2699 149.872 46.4857 149.558C49.1825 144.216 51.1243 138.665 52.7424 132.905C54.1448 127.877 55.5472 122.954 56.4102 117.822C56.6259 116.984 56.8417 116.461 57.0574 115.623Z" fill="#FFBD22"/>
<path fill-rule="evenodd" clip-rule="evenodd" d="M39.6895 162.232C40.3367 160.451 42.9257 155.947 44.6517 153.643C44.9753 153.748 45.299 153.852 45.7305 154.062C47.6722 155.005 49.7219 155.738 51.7715 156.261C56.9495 157.518 62.1275 158.67 67.5213 158.775C71.7284 158.88 76.0434 158.88 80.2506 158.251C84.2419 157.623 88.0176 156.366 91.4696 154.376C91.7932 154.167 92.2247 154.062 92.6562 153.852C93.9507 156.576 94.3822 159.404 94.1665 162.232C94.0586 163.07 93.6271 163.803 92.872 164.222C92.009 164.641 91.0381 165.06 90.0672 165.374C86.1837 166.526 82.0844 167.154 77.9852 167.259C74.8568 167.364 71.6205 167.364 68.4921 167.469C62.1275 167.573 55.8707 166.631 49.7218 165.269C46.8092 164.641 43.8966 163.803 41.0918 163.07C40.5525 162.651 40.121 162.336 39.6895 162.232Z" fill="#FF824C"/>
<path fill-rule="evenodd" clip-rule="evenodd" d="M38.7185 27.7465C37.1004 28.2702 35.4823 28.7939 33.7563 29.4223C29.2255 26.6991 25.1262 23.5569 22.1057 19.0531C19.9482 15.8062 19.5167 12.2451 20.3797 8.57919C20.5955 7.84601 20.9191 7.11283 21.3506 6.37965C21.7821 5.64648 22.6451 5.54174 23.2924 6.06544C23.9396 6.69388 24.5869 7.32231 25.1262 8.05549C25.8814 9.20762 26.5286 10.4645 27.1759 11.6166C27.4995 12.1403 27.7152 12.664 28.0389 13.083C28.2546 13.2924 28.794 13.5019 29.1176 13.3972C29.4412 13.2924 29.7649 12.8735 29.8727 12.5593C29.9806 12.1403 29.9806 11.6166 29.9806 11.0929C30.1964 9.31235 30.4121 7.53179 30.7358 5.85596C30.8436 4.9133 31.2751 3.97065 32.0303 3.13274C32.3539 3.44696 32.6775 3.65644 32.7854 3.97066C33.2169 4.91331 33.4326 5.9607 33.8641 6.90335C33.972 7.32231 34.0799 7.74127 34.2956 8.05549C34.5114 8.26497 34.835 8.57919 35.0508 8.57919C35.3744 8.57919 35.9138 8.26497 36.0216 8.05549C36.3453 7.21757 36.561 6.37966 36.7768 5.54174C36.8846 5.12279 37.2083 4.70383 37.424 4.18013C38.287 5.437 38.3949 6.79862 38.6106 8.05549C38.8264 9.31236 39.0421 10.5692 39.0421 11.9308C39.4736 17.1678 39.4736 22.4048 38.7185 27.7465Z" fill="#AE7251"/>
<path fill-rule="evenodd" clip-rule="evenodd" d="M5.16851 124.211C5.38426 122.954 6.24727 122.535 6.89452 122.012C7.32602 121.698 7.75752 121.488 8.08114 121.174C8.62052 120.755 8.40477 119.812 7.75752 119.603C7.21814 119.393 6.67876 119.393 6.03151 119.184C5.38426 118.974 4.73701 118.87 4.08976 118.66C3.55039 118.451 3.22676 118.136 3.33463 117.508C3.44251 116.984 3.76614 116.565 4.30551 116.461C4.73701 116.356 5.16851 116.461 5.49214 116.461C6.03151 116.461 6.46302 116.251 6.67877 115.727C6.89452 115.204 6.57089 114.785 5.92364 114.366C5.70789 114.261 5.49214 114.156 5.27639 114.052C3.44251 113.004 3.11888 112.166 3.55039 109.757C4.52126 109.443 5.49214 109.862 6.35514 110.176C7.75752 110.595 9.15989 111.224 10.5623 111.747C11.2095 111.957 11.641 112.376 12.0725 112.9C12.3962 113.318 12.8277 113.528 13.367 113.318C13.9064 113.109 14.1222 112.69 14.1222 112.166C14.1222 111.747 13.9064 111.224 13.9064 110.805C13.7985 110.072 13.7985 109.338 13.7985 108.605C13.9064 107.977 14.3379 107.453 14.8773 107.034C15.6324 106.615 16.3875 106.825 16.819 107.558C17.0348 107.977 17.2505 108.396 17.3584 108.919C17.682 110.595 17.8978 112.271 18.2214 113.947C18.3293 114.471 18.2214 115.099 18.3293 115.623C19.0844 118.66 18.545 121.593 17.3584 124.316C16.1718 127.249 13.9064 128.61 10.5623 128.61C9.91502 127.772 10.2386 126.725 10.4544 125.887C10.5623 125.468 10.778 124.944 10.8859 124.526C10.9938 123.792 10.2386 123.269 9.5914 123.478C9.1599 123.688 8.7284 124.002 8.29689 124.211C7.32602 124.63 6.35514 124.735 5.16851 124.211Z" fill="#FFEAE3"/>
<path fill-rule="evenodd" clip-rule="evenodd" d="M19.1923 97.9217C18.3293 98.1312 17.8978 98.4454 17.4663 98.4454C13.7985 98.5501 10.2387 98.1312 7.32603 95.7222C4.19764 93.2084 2.68739 89.8567 3.33464 85.7719C3.65826 83.7819 5.06065 82.525 7.0024 81.8966C8.62053 81.4776 9.80716 82.0013 10.4544 83.4676C10.8859 84.4103 11.2095 85.4577 11.641 86.4004C13.1513 89.8568 15.2009 92.9989 17.5742 95.9316C18.1136 96.4553 18.5451 97.0838 19.1923 97.9217Z" fill="#FFEAE3"/>
<path fill-rule="evenodd" clip-rule="evenodd" d="M113.152 86.5051C114.015 86.6099 114.231 87.1336 114.339 87.6573C114.447 88.5999 114.447 89.5426 114.447 90.59C114.447 91.9516 114.662 92.4753 115.31 92.58C116.281 92.6847 116.496 91.9516 116.928 91.3231C117.359 90.6947 117.683 90.0663 118.222 89.5426C118.546 89.2284 119.085 88.9141 119.517 89.2284C119.84 89.4378 120.056 89.9615 120.056 90.2757C119.948 91.1137 119.733 91.8468 119.517 92.58C119.409 92.9989 119.085 93.3132 119.085 93.7321C119.085 94.0463 119.301 94.57 119.517 94.7795C119.733 94.989 120.38 94.989 120.596 94.7795C121.351 94.2558 121.89 93.5226 122.969 93.5226C123.4 93.5226 123.724 93.6274 124.048 93.7321C124.263 94.3606 123.94 94.6748 123.616 94.8842C123.292 95.0937 122.861 95.3032 122.537 95.5127C121.566 96.1411 121.566 97.0838 122.645 97.6075C123.077 97.8169 123.616 97.9217 124.048 98.2359C124.371 98.4454 124.695 98.7596 125.126 99.0738C124.695 99.388 124.479 99.7022 124.155 99.9117C122.429 100.645 120.703 100.854 118.87 100.959C117.899 100.959 116.928 100.959 115.957 101.064C113.907 101.273 112.181 100.959 110.779 99.388C109.376 97.8169 108.082 96.3506 106.68 94.7795C106.14 94.0463 105.709 93.3132 105.709 92.3705C105.709 92.0563 105.924 91.6373 106.14 91.5326C106.464 91.4279 107.003 91.3231 107.219 91.5326C107.974 92.161 108.621 92.8942 109.269 93.6274C109.7 94.1511 110.132 94.989 110.995 94.57C111.75 94.2558 111.75 93.5226 111.75 92.8942C111.858 91.1137 111.965 89.3331 112.613 87.6573C112.613 87.2383 112.936 86.9241 113.152 86.5051Z" fill="#FFEAE3"/>
<path fill-rule="evenodd" clip-rule="evenodd" d="M102.364 74.8792C102.364 73.6223 102.256 72.8891 102.256 72.0512C102.256 67.5474 101.609 63.1483 100.314 58.9587C100.206 58.7492 100.206 58.5397 100.099 58.2255C99.3435 56.5497 100.314 55.188 101.609 54.2454C102.688 53.4074 104.629 53.198 106.032 54.2454C107.758 55.607 108.836 57.1781 109.052 59.3776C109.484 64.3004 107.973 68.5948 105.169 72.5749C104.845 73.0986 104.306 73.5176 103.766 73.9365C103.551 74.146 103.119 74.3555 102.364 74.8792Z" fill="#FFEAE3"/>
<path fill-rule="evenodd" clip-rule="evenodd" d="M122.104 164.85C122.644 166.003 122.644 167.155 122.32 168.202C120.918 172.182 118.545 175.324 114.769 177.524C114.661 177.628 114.445 177.628 114.23 177.628C113.582 177 113.259 176.162 113.582 175.324C114.553 172.077 115.848 169.04 118.329 166.736C119.084 166.003 120.055 165.479 120.918 164.955C121.241 164.746 121.673 164.85 122.104 164.85Z" fill="#DB9245"/>
<path fill-rule="evenodd" clip-rule="evenodd" d="M51.3381 195.015C51.7696 195.853 52.309 196.796 52.7405 197.739C53.4957 199.414 54.2508 201.195 55.0059 202.871C55.4374 203.813 55.5453 204.756 55.4374 205.699C55.3295 206.432 54.6823 206.746 53.9272 206.641C53.0642 206.432 52.4169 206.013 51.8775 205.385C50.0436 203.29 49.0728 200.881 48.9649 198.158C48.857 196.482 49.5043 195.434 51.3381 195.015Z" fill="#DB9245"/>
<path fill-rule="evenodd" clip-rule="evenodd" d="M42.2777 32.4597C41.1989 31.4123 40.9832 30.3649 40.9832 29.2127C40.9832 27.5369 41.3068 25.861 41.7383 24.1852C42.4934 21.2525 43.68 18.5293 45.406 16.0155C46.0533 14.9681 46.9163 14.0255 47.8872 13.2923C49.0738 12.3496 50.1525 12.5591 51.1234 13.816C52.2022 15.1776 52.6337 16.8534 52.8494 18.5293C53.1731 21.8809 53.173 25.1279 52.9573 28.4795C52.8494 29.4222 52.6337 30.1554 51.5549 30.5743C48.5344 31.4123 45.5139 32.3549 42.2777 32.4597Z" fill="#E84A6E"/>
<path fill-rule="evenodd" clip-rule="evenodd" d="M33.4316 36.9634C31.382 38.8487 29.3324 40.734 27.2827 42.6193C26.7434 43.143 26.0961 43.5619 25.4489 43.8762C24.2622 44.5046 23.2913 44.2951 22.3205 43.3525C22.1047 43.143 21.889 42.8288 21.7811 42.5146C19.6236 39.2676 17.8976 35.916 16.3873 32.3548C15.9558 31.2027 15.4165 30.0506 15.9558 28.8984C16.711 28.3748 17.574 28.4795 18.437 28.5842C20.8102 28.689 28.9009 30.1553 31.382 30.9932C31.7056 31.8311 32.0292 32.8785 32.3529 33.8212C32.6765 34.9733 33.0001 35.916 33.4316 36.9634Z" fill="#E84A6E"/>
<path fill-rule="evenodd" clip-rule="evenodd" d="M40.5521 34.6592C39.3655 35.6019 38.2868 35.9161 37.1001 36.1256C36.0214 36.3351 35.482 36.1256 35.0505 35.1829C34.7269 34.345 34.5111 33.5071 34.1875 32.6692C35.0505 31.2028 36.4529 30.6791 37.9631 30.3649C39.2576 31.517 39.4734 33.1929 40.5521 34.6592Z" fill="#E84A6E"/>
<path fill-rule="evenodd" clip-rule="evenodd" d="M33.4313 87.2385C29.0085 87.5527 25.8801 91.6376 26.6352 95.8271C26.9588 97.7124 28.0376 99.1788 29.44 100.121C30.6266 101.169 32.2447 101.797 33.8629 101.902C37.4227 102.216 40.4432 98.5503 40.9826 95.4081C41.4141 91.2186 37.9621 86.9243 33.4313 87.2385Z" fill="#FFC2BD"/>
<path fill-rule="evenodd" clip-rule="evenodd" d="M97.0779 78.6498C96.9701 77.9166 96.7543 77.2882 96.5386 76.7645C95.6755 73.6223 92.5472 71.6323 89.203 72.0512C85.4274 72.4702 81.7596 75.0887 81.9754 79.1735C82.1911 83.5726 86.8298 86.4006 91.0369 85.6674C94.1653 85.0389 97.5094 82.0015 97.0779 78.6498Z" fill="#FFC2BD"/>
<path fill-rule="evenodd" clip-rule="evenodd" d="M54.3596 117.298C52.9572 117.822 52.2021 118.66 51.3391 119.498C48.9658 121.802 46.4847 123.897 43.6799 125.678C41.4145 127.039 39.0413 127.877 36.4523 128.087C31.1664 128.506 25.9884 128.191 21.134 125.782C20.8104 125.573 20.3789 125.468 19.9474 125.363C19.5159 125.992 19.1922 126.515 18.7607 127.039C17.0347 129.134 14.9851 130.6 12.0725 130.915C11.641 130.915 11.2095 131.019 10.778 131.019C9.15984 130.915 8.29683 130.181 8.08108 128.715C7.97321 128.191 7.97321 127.772 7.97321 127.144C7.54171 127.039 7.00233 127.039 6.57083 126.934C6.13933 126.83 5.70783 126.83 5.3842 126.725C2.90307 126.201 2.25582 124.84 3.44245 122.64C3.6582 122.221 3.98183 121.802 4.30545 121.383C3.87395 121.069 3.44245 120.86 3.01095 120.65C1.28494 119.812 0.96132 118.66 1.5007 116.775C1.60857 116.146 2.04007 115.623 2.3637 114.889C2.14795 114.366 1.82432 113.842 1.60857 113.214C1.17707 112.061 1.06919 110.805 1.28495 109.652C1.5007 108.291 2.25582 107.662 3.6582 107.558C5.06058 107.453 6.24721 107.872 7.54171 108.291C8.72834 108.71 9.91496 109.129 10.9937 109.548C11.8567 109.129 11.7488 108.396 11.9646 107.872C12.504 106.51 13.367 105.463 14.7694 105.044C16.4954 104.52 17.8977 104.939 18.7607 106.51C19.1922 107.243 19.5159 108.186 19.7316 109.024C20.1631 111.538 20.5946 113.947 20.8104 116.461C21.0261 118.66 20.9182 120.964 21.0261 123.373C23.5072 124.944 26.312 125.782 29.3325 125.992C31.5979 126.097 33.8633 126.097 36.0208 126.097C38.0704 126.097 39.9043 125.468 41.7382 124.421C44.5429 122.85 47.0241 120.755 49.3973 118.555C50.3682 117.717 51.2312 116.67 52.2021 115.623C51.2312 115.099 50.1524 115.204 49.1815 114.994C48.1028 114.68 47.024 114.575 46.0532 114.366C44.9744 114.052 43.7878 113.737 42.709 113.423C41.6303 113.109 40.6594 112.69 39.6885 112.376C38.7177 111.957 37.6389 111.538 36.668 111.119C35.6971 110.7 34.7263 110.176 33.7554 109.652C32.7845 109.129 31.9215 108.605 30.9506 108.081C30.0876 107.558 29.1168 106.929 28.2537 106.301C27.2829 105.672 26.4199 104.939 25.5569 104.206C24.6939 103.578 23.9387 102.844 23.0757 102.111C22.3206 101.378 21.5655 100.645 20.8104 99.9117C15.5245 101.692 10.6701 100.854 6.2472 97.8169C2.47157 95.1985 0.74557 91.4279 0.96132 86.9241C1.17707 82.944 3.98183 80.2207 8.08108 79.9065C8.40471 79.9065 8.72833 79.9065 9.26771 79.8018C9.26771 79.3828 9.26771 78.9639 9.26771 78.6497C8.29683 71.8416 9.59134 65.4525 12.2882 59.2729C14.1221 54.9786 16.7111 51.1033 19.6237 47.5421C20.0552 47.0184 20.4867 46.4947 20.9182 45.8663C20.5946 45.3426 20.3789 44.7142 19.9474 44.1905C18.0056 41.153 16.2796 38.0109 14.8772 34.7639C14.4457 33.7165 14.0142 32.6691 13.6906 31.517C13.4748 30.8886 13.4748 30.2602 13.4748 29.6317C13.5827 27.9559 14.3378 27.118 16.0639 26.8038C16.9269 26.699 17.682 26.699 18.545 26.8038C20.9182 27.118 23.2915 27.5369 25.6648 27.8511C25.9884 27.8511 26.312 27.8512 26.9593 27.9559C26.4199 27.4322 26.0962 27.118 25.8805 26.699C24.2624 25.0232 22.5364 23.4521 21.134 21.6715C17.8977 17.5867 17.0347 12.8734 18.3292 7.95069C18.545 7.00804 19.0844 5.96065 19.7316 5.12274C20.9182 3.44691 22.86 3.23743 24.4781 4.59904C25.2332 5.22748 25.8805 5.96065 26.5277 6.69383C26.9592 7.11278 27.175 7.53174 27.7144 8.16018C27.9301 7.74122 28.1459 7.53174 28.2537 7.32226C28.4695 6.48435 28.5774 5.54169 28.901 4.70378C29.2246 3.76113 29.6561 2.92321 30.1955 2.0853C31.3821 0.51421 32.7845 0.51421 34.079 2.0853C34.4026 2.50426 34.6184 2.92322 35.0499 3.44691C35.3735 3.02795 35.5893 2.71374 35.9129 2.50426C37.0995 1.24739 38.5019 1.45687 39.3649 2.92322C39.7964 3.65639 40.12 4.38956 40.3358 5.12274C40.7673 7.21752 41.1988 9.20757 41.4145 11.3024C41.6303 12.9782 41.5224 14.654 41.5224 16.4346C41.5224 16.8535 41.6303 17.1677 41.6303 18.0057C42.1697 17.1677 42.4933 16.7488 42.8169 16.2251C43.572 15.1777 44.2193 14.0256 45.0823 13.0829C45.6217 12.4545 46.2689 11.9308 46.9162 11.5118C48.8579 10.255 51.0154 10.5692 52.5257 12.245C54.0359 13.9208 54.6832 16.0156 55.0068 18.2151C55.4383 21.881 55.5462 25.4421 55.1147 29.108C55.1147 29.3175 55.1147 29.6317 55.1147 29.9459C55.5462 29.9459 56.0856 30.0507 56.5171 30.0507C65.3628 29.4222 73.5614 31.6218 81.2205 35.7066C86.5064 38.6393 90.9293 42.6194 94.3813 47.4374C95.5679 49.1132 96.5388 50.8938 97.6175 52.5696C97.9412 52.9886 98.2648 53.5122 98.5884 54.0359C99.0199 53.617 99.4514 53.3028 99.775 52.9886C102.148 50.9985 105.061 50.8938 107.542 52.7791C109.484 54.2454 110.67 56.1307 111.102 58.435C111.426 60.2156 111.426 61.9961 111.102 63.7767C110.67 66.2904 109.915 68.8042 108.621 71.1084C106.787 74.5648 105.6 75.717 101.933 77.4975C101.717 78.126 101.609 78.9639 101.393 79.6971C99.6672 86.9241 96.7545 93.7321 92.3316 99.807C91.5765 100.854 90.7135 101.902 89.7426 102.844C86.1828 106.301 82.2992 109.338 77.7685 111.433C77.337 111.643 76.9055 111.957 76.474 112.166C76.3661 112.166 76.3661 112.271 76.2582 112.585C76.474 112.795 76.6897 113.109 77.0134 113.318C79.6024 115.308 82.2992 116.984 85.4276 118.032C89.8505 119.498 94.2734 119.498 98.5884 117.717C101.501 116.461 103.874 114.575 105.6 112.061C107.111 109.862 108.513 107.558 110.023 105.253C110.563 104.416 110.994 103.578 110.886 102.425C108.297 100.645 106.248 98.3406 104.414 95.8269C103.551 94.57 103.011 93.2084 103.227 91.7421C103.443 90.0662 104.953 88.9141 106.571 89.1236C107.003 89.2283 107.326 89.3331 107.758 89.5425C108.189 89.752 108.621 90.0662 109.16 90.3804C109.376 89.8568 109.484 89.4378 109.7 89.0189C110.131 87.8667 110.455 86.7146 110.994 85.6672C112.073 83.8866 114.015 83.7819 115.309 85.353C115.848 85.9814 116.172 86.8193 116.711 87.6572C117.251 87.4478 117.79 87.2383 118.33 87.1335C119.948 86.8193 121.35 87.5525 121.782 89.1236C121.997 89.8568 122.105 90.4852 122.321 91.3231C122.968 91.4278 123.615 91.4279 124.263 91.6373C125.989 92.0563 126.744 93.3132 126.097 94.989C125.881 95.5127 125.557 96.0364 125.341 96.5601C125.773 97.0838 126.312 97.5027 126.636 98.0264C127.283 99.1786 127.067 100.435 125.989 101.273C125.557 101.588 125.018 101.902 124.478 102.111C123.076 102.53 121.566 103.054 120.163 103.054C117.682 103.054 115.417 103.787 113.259 104.206C111.318 107.243 109.484 110.176 107.65 113.004C104.737 117.194 100.746 119.917 95.5679 120.964C92.1159 121.593 88.7718 121.383 85.4276 120.336C83.5938 119.707 81.8678 118.87 80.1417 118.136C79.6024 117.927 79.1709 117.613 78.6315 117.403C78.2 118.032 78.6315 118.451 78.8472 118.765C80.6811 122.326 82.6229 125.782 84.4568 129.343C88.556 137.094 91.6844 145.159 94.7049 153.329C95.6758 155.947 96.2152 158.566 96.323 161.394C96.323 164.117 95.0285 165.793 92.4395 166.735C91.2529 167.154 90.1741 167.573 88.8796 167.992C94.0576 173.439 104.306 177.838 110.778 177C110.886 176.476 111.102 175.848 111.318 175.219C112.289 171.763 113.799 168.516 116.28 165.793C116.927 165.059 117.79 164.536 118.545 163.907C118.869 163.698 119.3 163.488 119.624 163.279C121.997 162.336 124.263 162.755 124.586 166.002C124.694 167.259 124.478 168.411 124.047 169.563C122.645 173.334 120.271 176.371 117.035 178.78C116.28 179.304 115.309 179.723 114.338 180.037C113.475 180.351 112.72 180.351 112.073 179.618C111.641 179.095 111.102 179.095 110.563 179.095C105.169 179.095 100.207 177.733 95.5679 175.219C92.1159 173.334 88.9875 171.134 86.0749 168.411C77.0134 169.563 67.844 169.563 58.6746 168.935C57.8116 169.563 57.4879 170.401 57.2722 171.449C56.7328 173.858 56.1934 176.162 55.6541 178.571C54.6832 182.446 53.6044 186.426 52.6336 190.302C52.5257 190.825 52.4178 191.454 52.2021 192.082C52.7414 192.711 53.3887 193.339 53.4966 194.282C53.6044 195.015 54.0359 195.643 54.3596 196.272C55.2226 198.157 56.0856 200.147 56.9486 202.032C57.4879 203.289 57.7037 204.546 57.5958 205.803C57.3801 208.422 55.2226 209.678 52.7414 208.631C51.8784 208.212 51.0154 207.688 50.3682 206.955C47.7792 204.127 46.4847 200.776 46.9162 196.9C47.024 195.748 47.4555 194.701 48.5343 194.072C49.5052 193.549 49.8288 192.711 50.0446 191.663C51.5548 185.903 53.1729 180.247 54.3596 174.486C54.7911 172.496 55.3304 170.611 55.8698 168.516C55.4383 168.411 55.1147 168.202 54.6832 168.202C51.6627 167.573 48.6422 167.05 45.6217 166.316C43.2484 165.793 40.983 165.06 38.7177 164.326C38.2862 164.222 37.9625 164.012 37.6389 163.803C37.0995 163.488 36.8838 162.86 37.0995 162.336C37.3153 161.708 37.6389 161.184 37.9625 160.66C39.5807 157.937 41.0909 155.109 42.709 152.386C46.4847 145.892 48.9658 138.979 50.9076 131.857C52.0942 127.458 53.0651 123.059 54.1438 118.66C54.2517 118.241 54.2517 117.927 54.3596 117.298ZM41.5224 57.4923C41.1988 58.1208 40.8752 58.5397 40.5515 59.0634C39.0413 61.8914 37.6389 64.7193 36.1286 67.4426C35.4814 68.6994 34.6184 69.9563 33.4318 70.899C32.2451 71.8416 30.9506 72.2606 29.4404 71.6321C28.5774 71.3179 27.8223 70.7942 27.0671 70.3753C26.5277 69.9563 26.2041 69.4326 25.7726 69.0137C24.9096 69.6421 24.9096 70.48 24.586 71.2132C23.5072 74.1459 22.2127 76.8691 20.4867 79.4876C19.8395 80.535 18.9765 81.4776 18.1135 82.3155C17.1426 83.2582 15.956 83.7819 14.4457 83.4677C14.0142 83.3629 13.4748 83.3629 13.0433 83.3629C12.9355 83.6771 12.8276 83.8866 12.8276 83.9914C13.0433 84.7245 13.2591 85.353 13.5827 85.9814C16.4954 92.2658 20.9182 97.2932 25.9884 101.902C29.3325 104.939 33.216 107.348 37.4231 109.234C45.0823 112.69 53.0651 114.052 61.4793 113.423C64.1762 113.214 66.981 112.795 69.57 112.166C71.6196 111.747 73.7771 111.014 75.611 110.176C82.2992 107.034 88.0166 102.74 92.008 96.4553C93.0868 94.7795 93.9498 93.1037 94.8128 91.3231C98.1569 84.3056 100.314 77.1833 99.775 69.3279C99.4514 65.243 98.6963 61.3677 97.186 57.4923C97.0782 57.0734 96.7545 56.7592 96.4309 56.3402C95.3521 59.4824 93.8419 60.7393 90.8214 60.844C90.282 60.844 89.8505 60.844 89.3111 60.7393C87.2615 60.5298 85.4276 59.6919 83.9174 58.435C82.4071 57.2829 81.1126 55.9213 79.7102 54.6644C79.3866 54.4549 79.2787 53.9312 78.6315 54.2454C78.4157 54.7691 78.3079 55.3976 78.0921 56.026C77.4449 57.7018 75.9346 59.3777 73.2377 59.0634C72.3747 58.9587 71.6196 58.854 70.7566 58.6445C68.3833 58.016 66.3337 56.7592 64.6077 55.0833C64.0683 54.6644 63.529 54.1407 62.7738 53.5122C62.4502 54.4549 62.3423 55.0833 62.1266 55.8165C60.94 59.4824 58.5667 62.1009 55.0068 63.8814C52.2021 65.243 49.5052 65.0336 46.9162 63.3577C45.7295 62.6246 44.7587 61.5772 43.7878 60.6345C43.1405 59.5871 42.3854 58.5397 41.5224 57.4923ZM22.7521 46.4947C20.7025 49.3227 18.6529 52.0459 16.9269 54.8739C13.9063 59.6919 11.9646 64.9288 11.3173 70.5847C10.9937 73.308 11.2095 76.0312 11.5331 78.8591C11.641 79.4876 11.7488 80.116 12.3961 80.535C14.23 81.7918 16.2796 81.4776 17.682 79.8018C17.8977 79.4876 18.2214 79.1734 18.4371 78.8591C20.8104 74.9838 22.86 70.899 23.723 66.3952C23.8309 65.9762 23.8309 65.5573 23.9387 65.243C24.1545 64.5099 25.2332 64.1957 25.7726 64.9288C26.2041 65.4525 26.5278 66.1857 26.9593 66.8141C27.6065 67.7568 28.1459 68.8042 29.2246 69.4326C30.5191 70.1658 31.5979 70.1658 32.5688 69.0137C33.3239 68.1757 33.9711 67.2331 34.5105 66.1857C36.3444 62.834 38.0704 59.3777 39.7964 56.026C40.0122 55.5023 40.3358 54.9786 40.6594 54.5596C41.0909 54.0359 42.0618 54.0359 42.3854 54.5596C42.709 54.9786 42.9248 55.5023 43.2484 56.026C44.5429 58.1208 45.9453 60.1108 48.1028 61.5772C50.1524 62.9388 52.3099 63.0435 54.4674 61.9961C57.8116 60.3203 59.8612 57.7018 60.5084 54.1407C60.7242 52.9886 60.7242 51.9412 60.8321 50.789C60.8321 50.2653 60.8321 49.8464 60.94 49.3227C61.0478 48.799 61.9108 48.4848 62.3423 48.9037C62.5581 49.1132 62.7738 49.3227 62.9896 49.6369C63.529 50.3701 63.9605 51.208 64.4998 51.8364C66.6573 54.4549 69.2463 56.3402 72.6983 56.9686C74.8559 57.3876 76.0425 56.5497 76.474 54.4549C76.6897 53.3028 76.6897 52.1506 76.7976 51.1033C76.7976 50.6843 76.9055 50.2653 77.1212 49.9511C77.2291 49.5322 78.0921 49.3227 78.4157 49.6369C78.7394 49.8464 79.063 50.1606 79.2787 50.5796C80.4654 52.4649 81.9756 54.036 83.7016 55.5023C84.8883 56.5497 86.1828 57.3876 87.5851 58.1208C88.7718 58.7492 90.0663 58.9587 91.4686 58.854C93.0868 58.7492 93.8419 58.1208 94.1655 56.5497C94.3813 55.5023 94.4892 54.4549 94.7049 53.4075C94.8128 52.7791 94.7049 52.1506 94.3813 51.5222C90.8214 45.6568 85.8591 40.9436 79.7102 37.5919C72.4826 33.7165 64.7156 31.8312 56.4092 32.4597C54.6832 32.5644 52.9572 32.7739 51.2312 33.1928C48.5343 33.8213 45.9453 34.5545 43.1405 35.1829C42.709 36.4398 41.5224 37.1729 40.12 37.6966C38.9334 38.1156 37.7468 38.5345 36.5602 38.6393C35.805 38.744 35.1578 39.0582 34.5105 39.4772C33.8633 39.8962 33.216 40.5246 32.6766 41.0483C31.1664 42.4099 29.764 43.7715 28.3616 45.0284C26.7435 45.971 25.1254 46.8089 22.7521 46.4947ZM57.0564 115.623C56.8407 116.461 56.6249 117.089 56.5171 117.717C55.6541 122.85 54.2517 127.877 52.8493 132.8C51.2312 138.456 49.2894 144.112 46.5925 149.453C46.3768 149.768 46.161 150.187 46.0532 150.501C45.7295 151.234 45.8374 151.758 46.7004 152.072C47.7792 152.596 48.7501 153.119 49.9367 153.433C53.9281 154.376 57.9194 155.214 61.9108 155.947C66.2258 156.785 70.5408 156.471 74.8559 156.366C79.3866 156.366 83.8095 155.214 87.9088 153.538C89.3111 152.91 90.8214 152.281 91.5765 150.71C87.693 139.713 82.6229 129.343 76.9055 119.184C75.8267 117.194 74.8559 115.099 73.3456 113.214C68.0597 114.889 62.7738 115.413 57.0564 115.623ZM39.6885 162.232C40.12 162.441 40.5515 162.651 40.983 162.755C43.8957 163.488 46.7004 164.326 49.6131 164.955C55.7619 166.316 62.0187 167.259 68.3833 167.154C71.5117 167.154 74.748 167.05 77.8764 166.945C81.9756 166.84 85.967 166.107 89.9584 165.06C90.9293 164.745 91.7923 164.431 92.7631 163.907C93.5183 163.488 93.9498 162.86 94.0576 161.917C94.2734 159.089 93.8419 156.366 92.5474 153.538C92.1159 153.748 91.6844 153.852 91.3608 154.062C87.9088 156.052 84.1331 157.309 80.1417 157.937C75.9346 158.566 71.7275 158.566 67.4125 158.461C62.0187 158.356 56.8407 157.204 51.6627 155.947C49.5052 155.423 47.5634 154.795 45.6217 153.748C45.298 153.538 44.8665 153.433 44.5429 153.329C42.9248 155.947 40.3358 160.451 39.6885 162.232ZM38.7177 27.7464C39.4728 22.4047 39.4728 17.1677 39.257 11.9308C39.257 10.6739 39.0413 9.31231 38.8255 8.05544C38.6098 6.79857 38.5019 5.54169 37.6389 4.18008C37.4232 4.70378 37.0995 5.12274 36.9917 5.5417C36.668 6.37961 36.5601 7.32226 36.2365 8.05544C36.1286 8.36966 35.5893 8.57913 35.2656 8.57913C35.0499 8.57913 34.6184 8.36966 34.5105 8.05544C34.2948 7.74122 34.1869 7.32226 34.079 6.9033C33.7554 5.85591 33.4318 4.91326 33.0003 3.97061C32.8924 3.65639 32.5688 3.44691 32.2451 3.13269C31.49 4.07534 31.0585 4.91326 30.9506 5.85591C30.627 7.63648 30.4113 9.41704 30.1955 11.0929C30.0876 11.6166 30.1955 12.0355 30.0876 12.5592C29.9798 12.8734 29.6561 13.2924 29.3325 13.3971C29.0089 13.5019 28.4695 13.2924 28.2537 13.0829C27.9301 12.664 27.7144 12.1403 27.3908 11.6166C26.7435 10.4644 26.0962 9.20757 25.3411 8.05544C24.8017 7.32226 24.1545 6.69383 23.5072 6.06539C22.86 5.43696 21.997 5.64643 21.5655 6.3796C21.134 7.11278 20.8104 7.84596 20.5946 8.57913C19.7316 12.245 20.1631 15.8061 22.3206 19.0531C25.2332 23.5568 29.4404 26.699 33.9711 29.4222C35.5893 28.7938 37.2074 28.2701 38.7177 27.7464ZM5.16845 124.211C6.35508 124.735 7.32596 124.63 8.40471 124.211C8.83621 124.002 9.26771 123.688 9.69921 123.478C10.3465 123.164 11.1016 123.792 10.9937 124.525C10.8858 124.944 10.6701 125.468 10.5622 125.887C10.3465 126.83 10.0228 127.772 10.6701 128.61C14.0142 128.61 16.2796 127.249 17.4662 124.316C18.6529 121.488 19.1922 118.66 18.4371 115.623C18.3292 115.099 18.4371 114.47 18.3292 113.947C18.1135 112.271 17.7899 110.595 17.4662 108.919C17.3584 108.5 17.1426 107.977 16.9269 107.558C16.4954 106.825 15.7402 106.615 14.9851 107.034C14.3378 107.348 13.9063 107.872 13.9063 108.605C13.7985 109.338 13.9063 110.071 14.0142 110.805C14.0142 111.224 14.23 111.747 14.23 112.166C14.23 112.69 14.0142 113.109 13.4748 113.318C12.9355 113.528 12.504 113.318 12.1803 112.899C11.7488 112.376 11.3173 111.957 10.6701 111.747C9.26771 111.224 7.86533 110.595 6.46296 110.176C5.59995 109.862 4.62908 109.443 3.6582 109.757C3.2267 112.271 3.55032 113.004 5.3842 114.052C5.59995 114.156 5.8157 114.261 6.03145 114.366C6.6787 114.785 7.00233 115.204 6.78658 115.727C6.57083 116.251 6.13933 116.461 5.59995 116.461C5.16845 116.461 4.73695 116.461 4.41332 116.461C3.87395 116.565 3.55032 116.984 3.44245 117.508C3.33457 118.032 3.6582 118.451 4.19758 118.66C4.84483 118.87 5.49208 119.079 6.13933 119.184C6.67871 119.288 7.32596 119.393 7.86533 119.603C8.51258 119.812 8.72833 120.755 8.18896 121.174C7.86533 121.488 7.32596 121.697 7.00233 122.012C6.24721 122.535 5.3842 122.954 5.16845 124.211ZM42.2775 32.4597C45.5138 32.3549 48.5343 31.4123 51.4469 30.4696C52.5257 30.1554 52.7414 29.4222 52.8493 28.3748C53.0651 25.0232 53.0651 21.7763 52.7414 18.4246C52.5257 16.7488 52.0942 15.073 51.0154 13.7113C50.0446 12.4545 48.9658 12.245 47.7792 13.1877C46.8083 13.9208 46.0532 14.8635 45.298 15.9109C43.572 18.4246 42.3854 21.1478 41.6303 24.0805C41.1988 25.7564 40.8752 27.4322 40.8752 29.108C40.983 30.3649 41.1988 31.4123 42.2775 32.4597ZM33.4318 36.9635C33.1081 35.9161 32.6766 34.9734 32.353 33.926C32.0294 32.9834 31.7058 31.936 31.3821 31.0981C28.901 30.2602 20.8104 28.6891 18.4371 28.6891C17.5741 28.6891 16.819 28.4796 15.956 29.0033C15.4166 30.2602 15.956 31.3075 16.3875 32.4597C17.7899 36.0208 19.6237 39.3725 21.7812 42.6194C21.997 42.9336 22.1049 43.1431 22.3206 43.4573C23.1836 44.5047 24.2624 44.7142 25.449 43.981C26.0962 43.6668 26.7435 43.1431 27.2829 42.7241C29.3325 40.8388 31.3821 38.8488 33.4318 36.9635ZM19.1922 97.9217C18.545 97.0838 18.1135 96.4553 17.682 95.9316C15.3087 92.9989 13.2591 89.8568 11.7488 86.4004C11.3173 85.4577 10.9937 84.4103 10.5622 83.4677C9.91496 82.0013 8.72833 81.4776 7.11021 81.8966C5.16845 82.525 3.76608 83.6771 3.44245 85.7719C2.7952 89.8568 4.30545 93.1037 7.43383 95.7222C10.3465 98.1312 13.9063 98.5501 17.5741 98.4454C17.8977 98.4454 18.3292 98.1312 19.1922 97.9217ZM113.152 86.5051C112.936 86.8193 112.612 87.2383 112.396 87.6572C111.749 89.3331 111.533 91.1136 111.533 92.8942C111.533 93.5226 111.533 94.2558 110.778 94.57C109.807 94.8842 109.484 94.1511 109.052 93.6274C108.405 92.8942 107.758 92.161 107.003 91.5326C106.787 91.3231 106.248 91.4278 105.924 91.5326C105.708 91.6373 105.492 92.0563 105.492 92.3705C105.492 93.3132 105.816 94.1511 106.463 94.7795C107.758 96.3506 109.16 97.8169 110.563 99.388C111.965 100.959 113.799 101.273 115.741 101.064C116.711 100.959 117.682 100.959 118.653 100.959C120.487 100.959 122.321 100.645 123.939 99.9117C124.263 99.807 124.478 99.4928 124.91 99.0738C124.478 98.6549 124.155 98.3406 123.831 98.2359C123.4 98.0264 122.968 97.8169 122.429 97.6075C121.458 97.0838 121.35 96.2459 122.321 95.5127C122.645 95.3032 123.076 95.0937 123.4 94.8842C123.723 94.6748 124.047 94.3605 123.831 93.7321C123.508 93.6274 123.184 93.5226 122.752 93.5226C121.782 93.5226 121.134 94.2558 120.379 94.7795C120.163 94.989 119.516 94.989 119.3 94.7795C118.977 94.57 118.869 94.1511 118.869 93.7321C118.869 93.3132 119.193 92.9989 119.3 92.58C119.516 91.8468 119.732 91.0089 119.84 90.2757C119.84 89.9615 119.624 89.4378 119.3 89.2283C118.869 88.9141 118.33 89.1236 118.006 89.5425C117.467 90.0662 117.143 90.6947 116.711 91.3231C116.28 91.9515 116.064 92.6847 115.093 92.58C114.446 92.4752 114.23 91.9516 114.23 90.5899C114.23 89.6473 114.23 88.7046 114.122 87.6572C114.338 87.1335 114.122 86.6098 113.152 86.5051ZM102.364 74.8791C103.119 74.3554 103.551 74.2506 103.766 73.9364C104.306 73.5174 104.737 73.0985 105.169 72.5748C107.974 68.5947 109.484 64.1957 109.052 59.3777C108.837 57.2829 107.758 55.607 106.032 54.2454C104.629 53.198 102.688 53.4075 101.609 54.2454C100.314 55.2928 99.4514 56.5497 100.099 58.2255C100.207 58.435 100.314 58.6445 100.314 58.9587C101.717 63.253 102.256 67.652 102.256 72.0511C102.256 72.7843 102.364 73.6222 102.364 74.8791ZM122.105 164.85C121.674 164.85 121.242 164.745 120.919 164.955C119.948 165.478 118.977 166.002 118.33 166.735C115.848 169.144 114.446 172.182 113.583 175.324C113.367 176.267 113.583 177 114.23 177.628C114.446 177.523 114.662 177.523 114.77 177.523C118.545 175.429 120.919 172.182 122.321 168.202C122.645 167.154 122.752 166.002 122.105 164.85ZM51.3391 195.015C49.5052 195.434 48.8579 196.481 48.9658 198.052C49.0737 200.776 50.0446 203.289 51.8784 205.279C52.4178 205.908 53.0651 206.431 53.9281 206.536C54.6832 206.746 55.2226 206.327 55.4383 205.594C55.6541 204.651 55.4383 203.708 55.0068 202.766C54.2517 201.09 53.4966 199.309 52.7414 197.633C52.3099 196.795 51.7706 195.958 51.3391 195.015ZM40.5515 34.6592C39.4728 33.1928 39.257 31.517 38.0704 30.3649C36.5602 30.6791 35.1578 31.2028 34.2948 32.6692C34.5105 33.5071 34.8341 34.345 35.1578 35.1829C35.5893 36.1255 36.1286 36.335 37.2074 36.1255C38.2862 35.9161 39.3649 35.4971 40.5515 34.6592Z" fill="#1D262D"/>
<path fill-rule="evenodd" clip-rule="evenodd" d="M67.5201 89.9617C67.5201 89.1237 67.3044 88.3906 67.4122 87.5526C67.4122 87.2384 67.8437 86.9242 68.1674 86.7147C68.491 86.5052 69.2461 86.9242 69.354 87.3432C69.7855 89.5427 70.217 91.847 69.5697 94.0465C68.491 97.5029 64.7154 99.5977 61.1555 98.7598C57.3798 97.8172 55.2223 95.3034 55.0066 91.5328C55.0066 91.2185 55.0066 90.9043 55.1145 90.5901C55.2223 89.9617 55.8696 89.5427 56.409 89.6474C56.9483 89.7522 57.1641 90.1711 57.272 90.6948C57.3798 91.6375 57.4877 92.5802 57.8113 93.5228C58.5665 95.9318 61.4791 97.3982 63.9602 96.8745C65.5784 96.5603 67.4122 94.5702 67.628 92.9991C67.628 91.9517 67.5201 90.9043 67.5201 89.9617Z" fill="#1D262D"/>
<path fill-rule="evenodd" clip-rule="evenodd" d="M45.2981 85.5625C45.2981 87.4478 43.572 89.019 41.6303 89.019C39.7964 89.019 38.394 87.5526 38.394 85.772C38.394 83.8866 39.9043 82.525 41.9539 82.6297C44.1114 82.525 45.2981 83.6772 45.2981 85.5625Z" fill="#1D262D"/>
<path fill-rule="evenodd" clip-rule="evenodd" d="M81.2204 75.0886C81.1126 77.4977 78.3078 79.1735 76.1503 78.1261C74.8558 77.4976 74.1007 76.0313 74.5322 74.6697C75.0715 72.7844 77.5527 71.4227 79.4944 72.1559C80.5732 72.4701 81.3283 73.727 81.2204 75.0886Z" fill="#1D262D"/>
</svg>
