<svg width="192" height="228" viewBox="0 0 192 228" fill="none" xmlns="http://www.w3.org/2000/svg">
<path fill-rule="evenodd" clip-rule="evenodd" d="M52.3498 64.5836C57.6566 65.7918 62.3604 63.7379 67.0641 62.0465C71.1648 60.5968 75.0243 58.3013 78.6425 55.885C83.8287 52.2606 88.8942 48.3946 93.598 44.1661C94.201 43.6829 94.9247 43.0788 95.7689 42.4747C96.0102 43.0788 96.1308 43.4412 96.2514 43.9245C96.7338 48.9987 98.5429 53.4688 101.196 57.6972C104.091 62.1674 108.192 63.8587 113.378 63.7379C116.393 63.6171 118.564 62.2882 120.735 59.3887C121.338 59.2678 121.459 59.7511 121.7 60.1135C123.026 62.409 124.353 64.7045 125.68 66.8791C127.248 69.2954 129.057 71.5908 131.469 73.2822C131.952 73.6447 132.555 74.1279 133.037 74.3695C134.605 75.0944 136.293 75.3361 137.741 73.8863C137.982 73.6447 138.223 73.5239 138.585 73.2822C138.947 73.8863 139.188 74.3695 139.429 74.9736C140.032 76.1818 140.635 77.5107 141.359 78.7188C142.927 81.2559 144.736 83.6722 147.751 84.7595C147.631 85.9677 147.148 87.055 146.666 88.0215C144.495 92.9749 141.359 97.2033 137.741 101.19C131.71 107.593 124.112 111.097 115.79 113.272C110.604 114.601 105.297 114.842 99.9902 114.842C94.9247 114.842 89.9797 114.601 84.9142 113.876C79.9692 113.03 75.2655 111.943 70.803 109.768C63.3252 106.144 57.0536 100.949 52.3498 93.9414C50.4201 91.0418 49.3346 88.0215 49.214 84.5179C48.9728 78.8397 49.6965 73.403 51.2644 67.9664C51.385 66.6375 51.8674 65.671 52.3498 64.5836ZM85.1554 90.921C85.1554 96.3576 88.2912 99.9821 92.7537 100.344C94.9247 100.465 96.6132 99.7404 97.8193 98.049C99.749 95.2703 100.111 92.25 99.3872 88.988C99.146 88.0215 98.5429 87.5382 97.8193 87.7799C96.975 88.0215 96.6132 88.7464 96.8544 89.8337C96.975 90.0753 97.0956 90.317 97.0956 90.6794C97.4575 92.854 96.975 94.9079 95.6483 96.7201C94.8041 97.9282 93.7186 98.2907 92.2713 98.049C89.7385 97.5658 88.05 95.7536 87.5675 93.2165C87.3263 91.7667 87.5675 90.4378 87.8088 89.1088C87.9294 88.6256 88.1706 88.2631 88.05 87.7799C88.05 87.5382 87.6882 87.055 87.4469 86.9342C87.2057 86.8134 86.7233 86.8134 86.4821 86.9342C86.1203 87.1758 85.7584 87.5382 85.6378 88.0215C85.3966 88.988 85.276 90.317 85.1554 90.921ZM117.961 77.6315C115.79 77.6315 114.101 79.3229 114.222 81.6184C114.222 82.4641 114.584 83.3098 114.946 84.0346C115.549 85.2428 116.514 86.2093 117.961 86.0885C119.408 86.0885 120.494 85.3636 121.097 84.0346C121.459 83.4306 121.7 82.7057 121.7 81.9808C121.941 79.6854 120.011 77.5107 117.961 77.6315ZM79.6074 74.1279C79.6074 73.8863 79.4868 73.1614 79.2456 72.5573C78.6425 70.8659 77.1952 70.1411 75.5067 70.6243C73.8182 71.1076 72.8533 72.3157 72.3709 73.8863C72.0091 75.4569 72.4915 76.7858 73.577 77.994C74.3006 78.7188 75.1449 78.9605 76.1097 78.7188C78.4013 78.2356 79.728 76.7858 79.6074 74.1279Z" fill="#FFEAE3"/>
<path fill-rule="evenodd" clip-rule="evenodd" d="M148.595 82.1015C146.665 81.7391 145.701 80.6517 144.856 79.4436C142.806 76.7857 141.479 73.8862 140.514 70.745C140.273 69.8993 140.032 69.1744 139.67 68.3287C139.549 67.9663 138.946 67.6039 138.585 67.6039C138.223 67.6039 137.62 67.9663 137.499 68.3287C137.137 69.1744 136.896 70.1409 136.534 70.9866C136.052 72.3156 134.966 72.678 133.881 71.8323C132.795 71.1075 131.71 70.2618 130.866 69.2952C129.298 67.483 127.73 65.55 126.524 63.4962C124.353 59.9926 122.061 56.6098 121.338 52.3813C121.338 52.2605 121.217 52.0189 121.096 51.8981C120.735 51.6565 120.252 51.4148 119.89 51.4148C119.649 51.4148 119.287 51.7773 119.167 52.1397C119.046 52.5021 119.046 53.1062 119.046 53.4686C118.925 54.4352 118.925 55.5225 118.805 56.489C118.443 59.0261 116.754 60.4758 114.342 60.8383C110 61.4424 106.141 60.355 103.608 56.489C100.231 51.5356 98.3013 46.099 98.6631 39.9375C98.6631 39.0918 99.1456 38.0045 97.9395 37.5212C96.9746 37.1588 96.3716 38.0045 95.8892 38.6086C89.9793 44.2868 83.5871 49.361 76.7124 53.9519C71.6468 57.4555 66.0988 60.1134 60.0684 61.5632C58.9829 61.8048 57.8974 62.0464 56.812 62.1672C55.8471 62.2881 55.0028 62.288 53.9174 61.684C54.038 61.2007 54.1586 60.8383 54.2792 60.4758C54.5204 59.9926 54.7616 59.5093 55.0028 59.0261C56.6913 55.7641 58.8623 52.7438 60.6714 49.361C62.6012 45.7366 65.4958 42.7162 68.511 39.9375C71.6468 37.1588 75.0239 34.6217 78.5215 32.3263C83.7077 28.8227 89.4969 26.8896 95.6479 26.1648C100.352 25.6815 105.055 25.319 109.88 26.0439C115.307 26.7688 120.735 28.0978 125.8 30.0308C127.368 30.6349 128.815 31.4806 130.142 32.4471C132.072 33.8968 133.881 35.5882 135.69 37.1588C137.137 38.3669 138.223 39.8167 139.188 41.5081C142.323 46.5823 145.218 51.7773 147.63 57.2139C149.078 60.4758 149.801 63.9794 150.042 67.483C150.163 69.5369 150.163 71.5907 150.163 73.6445C150.163 75.5776 150.042 77.5106 149.198 79.4436C148.716 80.4101 148.716 81.135 148.595 82.1015Z" fill="#6D5447"/>
<path fill-rule="evenodd" clip-rule="evenodd" d="M80.6922 171.262C80.451 169.571 80.5716 168.121 80.9334 166.671C82.0189 160.751 83.1044 154.711 84.1898 148.791C84.7929 145.529 85.1547 142.388 85.7578 139.126C86.3608 135.501 87.0845 131.998 87.6875 128.373C88.2906 125.353 88.8936 122.333 89.4966 119.312C89.6172 118.467 89.6173 117.621 90.4615 116.896C97.4568 117.017 104.693 117.379 111.809 116.292C112.05 116.896 112.292 117.379 112.533 117.862C113.98 121.004 115.186 124.266 116.754 127.286C119.649 133.085 122.182 139.126 124.353 145.287C125.559 148.67 127.006 151.811 128.333 155.194C129.056 157.127 129.9 158.939 130.504 160.872C131.468 163.772 130.624 166.188 128.574 168.242C127.609 169.087 126.523 169.933 125.438 170.537C120.855 173.316 116.031 174.766 110.603 175.007C103.005 175.37 95.5271 174.524 88.0493 173.195C86.4814 172.954 84.9135 172.591 83.4662 172.229C82.5013 172.108 81.5365 171.625 80.6922 171.262ZM100.11 130.669C98.3011 130.306 96.7332 129.702 95.1652 129.702C92.7531 129.581 91.3058 131.031 91.4264 133.447C91.4264 134.293 91.6676 135.139 91.9088 135.864C92.2706 136.709 92.7531 137.555 93.2355 138.28C94.924 141.421 97.8186 143.354 100.351 145.65C102.161 147.22 103.849 146.495 104.935 145.287C105.296 144.925 105.538 144.562 105.779 144.2C108.07 140.092 109.276 135.864 109.035 131.152C109.035 130.185 108.794 129.34 108.432 128.494C107.347 126.078 104.693 125.474 102.643 127.165C102.04 127.648 101.557 128.373 101.075 129.098C100.713 129.581 100.472 130.185 100.11 130.669Z" fill="#FF9AAC"/>
<path fill-rule="evenodd" clip-rule="evenodd" d="M151.128 97.5656C152.334 97.324 153.057 97.5656 153.902 97.9281C157.761 99.9819 160.535 102.881 162.465 106.868C163.068 108.076 163.068 109.405 162.827 110.734C162.585 111.942 161.741 112.547 160.535 112.063C159.57 111.701 158.846 110.976 158.002 110.493C157.279 110.009 156.676 108.922 155.59 109.647C154.625 110.251 155.108 111.097 155.108 111.942C155.228 112.909 155.349 113.996 154.987 114.963C154.746 115.446 154.263 115.688 153.902 115.446C153.178 115.084 152.454 114.6 151.851 114.117C151.007 113.271 150.283 112.305 149.921 111.097C149.801 110.734 149.801 110.251 149.56 110.13C149.198 109.889 148.715 109.526 148.354 109.647C147.992 109.768 147.509 110.13 147.389 110.493C147.268 110.976 147.268 111.58 147.268 112.184C147.147 115.446 146.183 118.346 144.132 121.004C142.564 123.057 141.72 122.937 140.635 120.52C139.067 116.896 139.308 113.271 139.911 109.526C140.152 108.439 140.514 107.352 140.876 106.264C141.238 104.935 142.082 104.21 143.529 103.727C146.786 102.398 149.56 100.707 151.128 97.5656Z" fill="#6D5447"/>
<path fill-rule="evenodd" clip-rule="evenodd" d="M38.8407 80.0477C38.9613 80.2893 39.2026 80.4102 39.2026 80.7726C40.5293 84.1554 42.459 87.2966 45.233 89.8336C46.0772 90.6793 46.3185 91.6458 46.1978 92.6124C45.9566 94.787 45.7154 97.0825 45.233 99.2571C44.9918 100.224 44.5093 101.19 43.9063 102.036C42.8208 103.486 41.6147 103.486 40.4086 102.157C39.4438 101.19 39.0819 99.8612 38.8407 98.653C38.7201 97.8073 38.7201 96.9616 38.5995 96.1159C38.3583 95.0286 37.2728 94.6662 36.4286 95.5119C35.9461 95.9951 35.5843 96.4784 35.1019 96.8408C34.3782 97.4449 33.2927 96.9616 33.0515 96.1159C32.6897 94.3037 32.8103 92.3707 33.5339 90.6793C33.7752 90.1961 34.137 89.8336 34.6194 89.3504C34.9813 88.9879 35.3431 88.8671 35.7049 88.5047C36.4286 87.9006 36.5492 87.0549 36.1873 86.5717C35.7049 86.0884 34.8606 85.8468 34.137 86.33C33.6545 86.5717 33.1721 86.9341 32.8103 87.2965C31.363 88.5047 29.7951 88.3839 28.3478 87.659C25.815 86.4509 25.4532 83.0681 27.6241 81.3767C28.589 80.6518 29.7951 80.1685 30.8806 79.9269C33.0515 79.0812 36.1873 79.3228 38.8407 80.0477Z" fill="#6D5447"/>
<path fill-rule="evenodd" clip-rule="evenodd" d="M41.8557 132.118C40.0466 134.776 36.7901 136.589 33.7749 136.589C34.0161 135.984 34.1367 135.38 34.4986 134.776C34.7398 134.172 35.2222 133.689 35.4634 133.085C35.584 132.722 35.3428 132.118 35.2222 131.877C35.1016 131.635 34.4986 131.514 34.2573 131.635C33.6543 131.756 33.0513 132.239 32.4482 132.481C31.4833 132.843 31.4833 132.843 29.7948 131.877C30.2773 131.394 30.7597 130.91 31.2421 130.669C31.8452 130.306 32.4482 130.306 33.0513 129.944C33.4131 129.702 33.6543 129.098 33.5337 128.736C33.4131 128.373 33.0513 128.011 32.6894 127.89C32.3276 127.769 31.7246 127.89 31.3627 127.89C30.8803 127.89 30.3979 127.769 30.036 127.648C29.3124 127.407 28.83 126.803 28.83 126.199C28.83 125.594 29.433 125.111 30.1567 124.99C30.8803 124.99 31.6039 125.111 32.3276 124.99C32.6894 124.99 33.1719 124.628 33.4131 124.386C33.7749 123.903 33.4131 123.299 33.0513 122.937C32.3276 122.091 31.4834 121.366 30.7597 120.52C30.2773 119.916 29.9154 119.071 30.6391 118.225C31.9658 117.983 32.9307 118.708 34.0161 119.191C35.1016 119.675 36.3077 119.916 36.9107 121.124C37.1519 121.608 37.755 121.849 38.358 121.608C38.8405 121.366 39.0817 120.883 39.2023 120.279C39.2023 119.554 39.2023 118.829 39.3229 118.104C39.4435 117.5 39.8053 116.896 40.0466 116.05C40.529 116.533 40.8908 116.775 41.132 117.138C41.3732 117.621 41.4939 118.225 41.6145 118.708C42.2175 122.091 42.5793 125.474 42.2175 128.977C42.0969 129.823 41.9763 130.91 41.8557 132.118Z" fill="#FFEAE3"/>
<path fill-rule="evenodd" clip-rule="evenodd" d="M140.032 161.234C140.153 159.785 141.118 158.939 142.203 158.093C143.892 156.644 145.701 155.315 147.51 153.986C148.354 153.382 149.44 153.019 150.405 153.502C153.299 154.711 156.073 155.798 158.486 157.852C158.727 157.972 158.727 158.335 158.847 158.456C158.727 158.697 158.727 158.939 158.606 158.939C157.641 159.664 157.279 160.389 157.762 161.597C157.883 162.08 158.003 162.563 158.003 162.926C158.003 163.288 157.762 163.772 157.521 164.376C156.556 163.772 155.832 163.167 155.109 162.684C154.626 162.443 154.144 162.322 153.541 162.201C152.817 162.201 152.335 162.926 152.576 163.53C152.696 164.013 152.938 164.376 153.058 164.859C153.179 165.342 153.058 165.946 152.696 166.067C152.335 166.188 151.731 166.067 151.37 165.946C150.887 165.584 150.525 164.98 150.043 164.496C149.44 163.892 148.596 164.013 148.113 164.738C147.872 165.221 147.631 165.705 147.39 166.309C147.148 166.792 146.787 167.396 146.183 167.154C145.58 167.034 145.46 166.309 145.46 165.825C145.46 165.221 145.339 164.738 145.339 164.134C145.339 163.651 145.339 163.167 145.339 162.684C145.219 160.51 144.374 160.026 142.445 160.751C141.721 161.234 140.997 161.839 140.032 161.234Z" fill="#FFEAE3"/>
<path fill-rule="evenodd" clip-rule="evenodd" d="M152.454 74.9734C154.383 74.0069 155.71 74.611 156.916 75.9399C158.605 77.7522 159.087 80.0476 159.208 82.3431C159.328 86.0883 157.519 90.8 152.454 92.6122C151.368 92.9747 150.042 93.0955 148.956 92.9747C147.871 92.9747 147.388 92.0082 147.871 90.9208C148.474 89.5919 149.077 88.2629 149.68 86.8132C151.127 83.4304 151.971 79.9268 152.333 76.3024C152.333 75.94 152.454 75.4567 152.454 74.9734Z" fill="#FFEAE3"/>
<path fill-rule="evenodd" clip-rule="evenodd" d="M46.6812 79.2019C46.0782 78.9603 45.8369 78.9603 45.5957 78.8395C44.9927 78.1146 44.1484 77.2689 43.7866 76.4232C41.6156 72.3155 41.3744 68.087 42.7011 63.7377C43.1835 62.288 44.0278 61.0798 45.2339 60.1133C46.1988 59.3884 47.2842 59.1468 48.3697 59.6301C49.0934 59.8717 49.6964 60.2341 49.9376 61.0798C50.0582 61.5631 50.2994 62.1672 50.42 62.7712C48.1285 67.8454 47.2842 73.4028 46.6812 79.2019Z" fill="#FFEAE3"/>
<path fill-rule="evenodd" clip-rule="evenodd" d="M67.4255 191.679C67.9079 191.559 68.3903 191.438 68.9934 191.438C72.491 191.438 75.9887 192.163 79.3657 193.129C80.5718 193.492 81.6573 194.096 82.3809 195.425C81.7779 196.512 80.5718 196.874 79.6069 197.116C75.0238 198.083 71.0437 196.754 67.6667 193.492C67.0636 193.008 66.943 192.404 67.4255 191.679Z" fill="#C55E7F"/>
<path fill-rule="evenodd" clip-rule="evenodd" d="M146.062 185.397C146.424 185.397 146.785 185.397 147.027 185.518C147.992 186.122 148.715 186.968 149.198 187.934C150.283 190.23 150.524 192.767 150.283 195.304C150.283 195.787 150.042 196.15 149.801 196.633C149.559 197.237 148.595 197.479 148.112 196.995C147.75 196.633 147.268 196.27 147.027 195.787C146.665 194.821 146.182 193.733 146.062 192.646C145.821 190.592 145.821 188.538 145.7 186.485C145.821 186.122 145.941 185.76 146.062 185.397Z" fill="#C55E7F"/>
<path fill-rule="evenodd" clip-rule="evenodd" d="M146.303 94.6661C147.027 95.0286 147.871 95.391 148.594 95.7535C148.956 96.5992 148.594 97.3241 148.112 97.8073C146.665 99.3779 144.856 100.465 142.805 101.19C142.443 101.311 141.961 101.19 141.479 101.19C141.479 100.948 141.479 100.828 141.479 100.828C141.479 100.707 141.599 100.465 141.72 100.344C143.047 98.5322 144.373 96.8408 145.7 95.0286C145.7 94.787 145.941 94.787 146.303 94.6661Z" fill="#E84A6E"/>
<path fill-rule="evenodd" clip-rule="evenodd" d="M46.9225 87.659C43.7867 85.1219 42.3394 82.1015 41.1333 78.3563C42.8218 78.8396 43.1837 80.0477 44.0279 80.6518C44.8722 81.2558 45.7164 81.8599 46.5607 82.464C46.5607 84.0346 46.8019 85.6051 46.9225 87.659Z" fill="#E84A6E"/>
<path fill-rule="evenodd" clip-rule="evenodd" d="M102.764 143.958C102.402 143.958 102.281 143.958 102.04 143.837C99.2661 141.783 96.6127 139.609 94.9242 136.588C94.2006 135.38 93.5975 134.172 94.2006 132.481C95.8891 131.756 97.457 132.118 98.9043 133.447C99.5073 133.93 99.8691 134.535 100.472 135.018C101.075 135.501 102.04 135.139 102.161 134.293C102.281 133.689 102.161 133.206 102.281 132.602C102.402 131.393 102.884 130.185 103.729 129.34C104.09 128.977 104.693 128.735 105.176 128.735C105.779 128.735 106.141 129.34 106.261 129.823C106.382 130.548 106.503 131.273 106.503 131.997C106.503 135.863 105.417 139.488 103.487 142.871C103.367 143.354 103.005 143.596 102.764 143.958Z" fill="#E84A6E"/>
<path fill-rule="evenodd" clip-rule="evenodd" d="M140.513 90.1961C139.91 85.6052 134.723 83.1889 130.623 82.5849C129.899 82.4641 129.055 82.4641 128.331 82.5849C126.16 82.8265 124.11 83.5514 122.663 85.0011C118.2 89.3504 120.13 97.8074 125.316 100.586C131.829 104.09 141.598 97.5658 140.513 90.1961Z" fill="#FFC2BD"/>
<path fill-rule="evenodd" clip-rule="evenodd" d="M68.3904 80.41C68.1492 79.2019 67.7874 77.9937 67.0637 77.0272C64.4103 73.1612 59.2242 72.3155 55.6059 75.215C52.8319 77.3897 51.5052 81.3765 51.6258 84.8801C51.7464 88.867 54.2792 92.8538 58.5005 93.4579C62.36 94.062 65.9783 92.8538 68.0286 89.2294C69.5965 86.6923 69.5965 83.1887 68.3904 80.41Z" fill="#FFC2BD"/>
<path fill-rule="evenodd" clip-rule="evenodd" d="M38.9616 77.3898C39.444 76.9065 39.9265 76.3025 40.4089 75.6984C40.2883 75.2152 40.2883 74.7319 40.1677 74.2487C39.3234 71.3491 39.2028 68.3288 39.6853 65.4292C40.0471 63.1338 40.8914 60.9591 42.5799 59.1469C45.1127 56.489 48.1279 56.2474 51.0225 58.422C51.2637 58.6637 51.5049 58.9053 51.9873 59.1469C52.3492 58.5429 52.711 58.0596 52.9522 57.5764C54.6407 54.556 56.3293 51.5357 58.1384 48.6361C60.7918 44.2868 64.1688 40.3 68.1489 37.038C71.1641 34.6217 74.4205 32.3263 77.5564 30.0308C82.5013 26.648 88.0493 24.8358 93.9591 23.9901C97.5774 23.5069 101.196 23.2653 104.814 23.2653C110.121 23.3861 115.307 24.5942 120.493 25.8023C126.885 27.3729 132.313 30.6349 137.016 35.2258C140.393 38.6086 142.926 42.3538 144.977 46.5823C146.424 49.6026 147.992 52.623 149.318 55.6433C151.489 60.2343 152.213 65.1876 152.454 70.2618C152.454 70.7451 152.575 71.1075 152.575 71.7116C153.057 71.7116 153.419 71.8324 153.781 71.8324C156.193 71.7116 157.882 72.9197 159.208 74.7319C161.5 77.7522 161.982 81.2558 161.259 84.8802C160.535 88.8671 158.485 92.0083 154.866 93.9413C154.505 94.1829 154.022 94.4245 153.54 94.787C154.263 95.2702 154.867 95.6327 155.59 95.9951C159.329 98.1698 162.103 101.19 164.153 105.056C165.118 106.989 165.601 108.922 164.998 110.976C164.756 111.822 164.274 112.667 163.792 113.392C162.947 114.48 161.862 114.721 160.535 114.48C159.691 114.238 158.847 113.876 157.882 113.634C157.52 114.48 157.399 115.325 157.037 116.05C156.193 117.862 154.746 118.346 152.816 117.621C152.213 117.379 151.61 117.017 151.128 116.654C150.645 116.292 150.163 115.929 149.439 115.446C149.077 116.292 148.957 117.017 148.595 117.621C147.871 119.071 147.027 120.52 146.183 121.97C145.821 122.574 145.218 123.178 144.615 123.541C142.685 125.232 140.635 124.87 139.187 122.695C138.946 122.332 138.826 122.091 138.705 121.728C137.74 119.433 137.016 117.017 137.016 114.359C137.016 111.338 137.499 108.439 138.464 105.539C138.705 104.815 138.946 104.21 139.187 103.244C138.223 103.365 137.981 103.848 137.499 104.21C137.016 104.694 136.534 105.177 136.052 105.539C135.569 106.023 135.087 106.385 134.604 106.748C134.122 107.11 133.519 107.472 133.036 107.835C132.433 108.197 131.951 108.56 131.348 108.922C130.745 109.285 130.262 109.647 129.659 109.889C129.056 110.251 128.574 110.493 127.971 110.855C127.368 111.097 126.765 111.459 126.162 111.701C125.559 111.943 124.956 112.184 124.353 112.547C123.749 112.788 123.146 113.03 122.543 113.271C121.94 113.513 121.337 113.755 120.734 113.876C120.131 114.117 119.528 114.238 118.805 114.48C118.201 114.721 117.598 114.842 116.995 115.084C117.116 115.325 117.116 115.567 117.237 115.688C123.991 119.916 129.659 125.353 135.207 131.152C137.74 133.931 140.152 136.709 142.323 139.85C144.132 142.508 145.58 145.408 146.906 148.428C147.148 149.153 147.509 149.757 147.871 150.482C150.404 150.24 152.454 151.207 154.505 152.415C155.952 153.14 157.279 153.865 158.726 154.59C159.45 154.952 160.053 155.556 160.656 156.16C161.5 157.248 161.982 158.577 161.018 159.785C160.414 160.63 160.294 161.476 160.414 162.443C160.414 162.563 160.414 162.684 160.414 162.684C160.173 165.946 158.967 166.913 155.59 166.188C154.867 167.034 154.505 168.242 153.178 168.604C151.851 168.846 150.766 168.242 149.56 167.758C149.077 168.121 148.595 168.604 148.112 168.967C145.941 170.296 143.77 169.45 143.167 166.913C142.926 165.825 142.806 164.738 142.564 163.53C141.72 163.651 140.876 163.772 140.032 163.772C138.223 163.651 137.378 162.563 137.499 160.751C137.619 159.422 138.223 158.214 139.187 157.248C140.152 156.281 141.238 155.435 142.323 154.469C143.288 153.623 144.374 152.898 145.459 152.053C145.338 151.328 145.218 150.724 144.977 150.12C143.167 145.287 140.514 140.817 137.137 136.951C132.192 131.152 126.885 125.594 120.734 121.004C119.287 119.916 117.84 118.95 116.392 117.983C116.151 117.742 115.789 117.742 115.186 117.5C115.307 118.104 115.427 118.466 115.548 118.708C117.478 122.816 119.408 126.923 121.337 131.152C123.146 135.38 124.714 139.609 126.523 143.837C127.85 147.22 129.297 150.603 130.624 153.986C131.348 155.798 132.192 157.61 132.795 159.422C134.122 163.772 133.036 167.638 129.418 170.416C128.333 171.262 127.127 172.108 126.162 172.833C125.8 173.678 126.041 174.403 126.403 175.007C127.85 178.028 129.659 180.927 131.589 183.585C133.278 185.881 135.449 186.485 137.981 185.76C139.67 185.276 141.238 184.431 142.926 183.706C143.167 183.585 143.409 183.343 143.65 183.223C147.63 181.048 146.544 181.048 149.922 184.068C151.731 185.639 152.334 187.814 152.696 189.988C152.937 191.559 152.816 193.129 152.816 194.7C152.816 195.787 152.454 196.754 151.851 197.599C150.645 199.291 148.595 199.653 146.906 198.445C145.941 197.841 145.218 196.875 144.856 195.787C144.374 194.338 144.012 192.888 143.77 191.438C143.529 189.747 143.409 188.176 143.167 186.243C142.082 186.605 141.238 186.968 140.393 187.33C134.363 189.505 131.468 187.814 128.694 183.585C127.247 181.41 126.041 179.115 124.714 176.819C124.232 175.974 123.749 175.007 123.146 174.041C122.302 174.403 121.458 174.645 120.734 175.007C117.598 176.215 114.342 176.819 110.965 176.94C104.693 177.182 98.5423 176.94 92.2706 175.853C91.4264 175.732 90.5821 175.732 89.7378 175.732C89.376 176.699 89.0142 177.544 88.773 178.511C87.6875 182.498 86.7226 186.485 85.7578 190.471C85.3959 191.68 85.2753 193.009 85.1547 194.337C85.0341 195.908 84.3104 196.995 82.9838 197.72C81.1746 198.808 79.2449 199.412 77.1946 199.291C73.3351 199.17 69.8374 197.962 66.9428 195.546C66.3398 195.062 65.8573 194.579 65.3749 193.975C63.9276 191.921 64.6513 189.384 67.184 188.659C68.2695 188.297 69.355 188.297 70.4405 188.418C74.5412 188.901 78.7625 189.384 82.7425 191.317C82.9838 190.834 83.225 190.351 83.3456 189.747C84.4311 185.639 85.5165 181.41 86.4814 177.303C86.602 176.699 86.7226 176.095 86.8432 175.37C86.2402 175.128 85.6371 175.007 85.1547 174.886C83.4662 174.403 81.7777 173.92 80.0892 173.316C78.4006 172.712 77.7976 171.745 77.9182 169.933C78.0388 168.121 78.28 166.43 78.6419 164.617C79.7273 158.335 80.9334 152.173 82.0189 145.891C83.225 138.522 84.3104 131.152 85.999 123.903C86.1196 123.661 85.999 123.42 85.999 122.937C84.9135 123.541 84.3104 124.507 83.5868 125.474C81.5365 128.132 79.1243 130.548 76.3503 132.481C70.3199 136.83 63.5658 138.401 56.2086 136.951C52.5904 136.226 49.0927 134.897 45.4745 133.81C44.9921 133.689 44.389 133.568 43.786 133.327C41.9768 135.984 39.3234 137.193 36.5494 138.28C35.9464 138.522 35.3434 138.763 34.7403 138.884C32.4488 139.367 31.2427 138.28 31.1221 135.864C31.1221 135.622 31.2427 135.501 31.1221 135.26C31.1221 135.139 31.0015 134.897 31.0015 134.776C30.2778 134.535 29.4335 134.293 28.7099 133.81C26.9008 132.843 26.5389 131.877 27.3832 129.944C27.5038 129.702 27.6244 129.461 27.8656 129.098C27.0214 128.011 25.8153 126.923 25.9359 125.353C26.1771 123.782 27.142 122.695 28.7099 121.97C28.3481 121.124 27.9862 120.399 27.745 119.554C27.6244 118.95 27.5038 118.225 27.5038 117.621C27.745 115.688 29.1923 114.6 31.0015 114.963C31.9663 115.084 32.8106 115.446 33.6548 115.809C34.4991 116.05 35.3434 116.413 36.3082 116.775C36.7907 115.929 37.0319 115.084 37.5143 114.48C38.9616 112.305 41.3738 112.305 42.7005 114.6C43.1829 115.325 43.4241 116.171 43.5447 116.896C44.389 120.399 44.6302 123.903 44.5096 127.407C44.5096 128.011 44.389 128.494 44.389 129.098C44.389 130.427 44.5096 130.789 45.7157 131.273C49.937 132.722 54.1583 134.293 58.6208 134.776C64.41 135.501 69.7168 134.051 74.4206 130.669C78.4006 127.89 81.4159 124.266 84.0692 120.279C84.9135 119.071 85.6371 117.742 86.3608 116.654C85.999 115.809 85.3959 115.929 84.9135 115.809C84.4311 115.688 83.9486 115.567 83.5868 115.567C79.9685 114.963 76.3503 113.996 72.732 112.788C68.6313 111.338 64.8925 109.285 61.5154 106.627C58.6208 104.331 55.6056 102.157 53.1934 99.1363C51.9873 97.5657 50.9019 95.9951 49.6958 94.4245C49.334 93.9413 49.0927 93.5788 48.6103 92.854C47.8867 93.9413 48.0073 94.9078 47.766 95.8743C47.4042 97.5657 47.0424 99.1363 46.56 100.707C46.1981 101.915 45.4745 102.881 44.5096 103.727C42.7005 105.298 40.4089 105.298 38.7204 103.727C37.7555 102.881 37.1525 101.915 36.6701 100.828C36.4288 100.103 36.1876 99.4987 35.9464 98.7738C35.5846 98.7738 35.3434 98.7738 34.9815 98.8946C32.0869 99.3779 30.3984 98.1698 30.0366 95.3911C29.916 94.1829 30.0366 92.9748 30.1572 91.7666C30.1572 91.4042 30.2778 91.0417 30.2778 90.6793C29.6748 89.8336 28.8305 89.9544 27.9862 89.7128C24.2474 88.6255 22.3176 85.0011 23.6443 81.3767C24.2474 79.6853 25.4535 78.5979 27.0214 77.8731C29.5542 76.6649 32.3282 76.1817 35.2228 76.4233C36.7907 77.0274 37.7555 77.1482 38.9616 77.3898ZM52.3492 64.5836C51.8667 65.6709 51.5049 66.7582 51.1431 67.7247C49.5752 73.1613 48.9721 78.7187 49.0927 84.2762C49.2134 87.7798 50.2988 90.8001 52.2286 93.6996C56.9323 100.707 63.2039 105.902 70.6817 109.526C75.1442 111.701 79.9685 112.909 84.7929 113.634C89.7378 114.48 94.8034 114.6 99.869 114.6C105.176 114.6 110.483 114.238 115.669 113.03C123.991 110.855 131.589 107.352 137.619 100.948C141.238 97.0824 144.374 92.7331 146.545 87.7798C147.027 86.8133 147.509 85.8468 147.63 84.5178C144.615 83.4305 142.806 81.0142 141.238 78.4771C140.514 77.269 140.032 75.94 139.308 74.7319C139.067 74.2486 138.705 73.6446 138.464 73.0405C138.102 73.2821 137.861 73.403 137.619 73.6446C136.172 74.9735 134.604 74.8527 132.916 74.1278C132.313 73.8862 131.83 73.403 131.348 73.0405C129.056 71.2283 127.127 69.0537 125.559 66.6374C124.111 64.4627 122.905 62.1673 121.579 59.8718C121.337 59.5094 121.217 59.0261 120.614 59.1469C118.443 62.1673 116.272 63.4962 113.257 63.4962C108.191 63.617 103.97 61.9256 101.075 57.4555C98.4217 53.2271 96.6125 48.6361 96.1301 43.6828C96.1301 43.3203 95.8889 42.8371 95.6477 42.233C94.8034 42.9579 94.2004 43.4411 93.4767 43.9244C88.6524 48.0321 83.7074 52.0189 78.5212 55.6433C74.903 58.1804 71.0435 60.3551 66.9428 61.8048C62.3597 63.7379 57.656 65.7917 52.3492 64.5836ZM148.595 82.1015C148.715 81.135 148.715 80.2893 149.077 79.6853C149.922 77.8731 150.042 75.94 150.042 73.8862C150.042 71.8324 150.042 69.7785 149.922 67.7247C149.801 64.1003 148.957 60.7175 147.509 57.4555C145.097 52.0189 142.203 46.8239 139.067 41.7498C138.102 40.1792 137.016 38.7294 135.569 37.4005C133.76 35.8299 131.951 34.1385 130.021 32.6887C128.694 31.7222 127.247 30.8765 125.679 30.2724C120.493 28.2186 115.186 27.0105 109.759 26.2856C105.055 25.6815 100.231 25.9232 95.5271 26.4064C89.376 27.1313 83.5868 29.0643 78.4006 32.5679C74.903 34.8634 71.5259 37.4005 68.3901 40.1792C65.3749 42.9579 62.4803 45.9782 60.5506 49.6026C58.862 52.8646 56.6911 55.885 54.882 59.2677C54.6407 59.751 54.2789 60.2342 54.1583 60.7175C54.0377 61.0799 53.9171 61.5632 53.7965 61.9256C54.7613 62.5297 55.7262 62.5297 56.6911 62.4089C57.7766 62.2881 58.862 62.0465 59.9475 61.8048C65.978 60.3551 71.526 57.6972 76.5915 54.1936C83.3456 49.6026 89.8585 44.5285 95.7683 38.8502C96.3713 38.2462 96.9744 37.4005 97.8186 37.7629C99.0247 38.2462 98.5423 39.3335 98.5423 40.1792C98.1804 46.3407 100.11 51.7773 103.487 56.7307C106.02 60.5967 109.879 61.684 114.221 61.0799C116.634 60.7175 118.201 59.2678 118.684 56.7307C118.805 55.7642 118.925 54.6768 118.925 53.7103C118.925 53.2271 118.925 52.7438 119.046 52.3814C119.166 52.1397 119.528 51.6565 119.769 51.6565C120.131 51.6565 120.614 51.8981 120.975 52.1397C121.096 52.2606 121.217 52.5022 121.217 52.623C121.94 56.8515 124.232 60.2342 126.403 63.7378C127.609 65.7917 129.177 67.7247 130.745 69.5369C131.589 70.5034 132.675 71.3491 133.76 72.074C134.966 72.7989 135.931 72.5573 136.413 71.2283C136.775 70.3826 136.896 69.4161 137.378 68.5704C137.499 68.208 138.102 67.8455 138.464 67.8455C138.826 67.8455 139.429 68.208 139.549 68.5704C139.911 69.2953 140.152 70.141 140.393 70.9867C141.479 74.1278 142.685 77.1482 144.735 79.6853C145.7 80.6518 146.665 81.8599 148.595 82.1015ZM80.6922 171.262C81.6571 171.624 82.5013 171.987 83.4662 172.349C85.0341 172.712 86.602 173.074 88.0493 173.316C95.5271 174.766 103.005 175.491 110.603 175.128C115.91 174.886 120.855 173.316 125.438 170.658C126.523 170.054 127.609 169.208 128.574 168.363C130.624 166.309 131.468 163.772 130.504 160.993C129.9 159.06 129.056 157.127 128.333 155.315C127.006 152.053 125.559 148.791 124.353 145.408C122.182 139.246 119.649 133.206 116.754 127.407C115.186 124.386 113.98 121.124 112.533 117.983C112.292 117.5 112.05 117.017 111.809 116.413C104.573 117.379 97.4568 117.017 90.4615 117.017C89.7379 117.862 89.7378 118.708 89.4966 119.433C88.8936 122.453 88.2905 125.474 87.6875 128.494C86.9638 132.118 86.3608 135.622 85.7578 139.246C85.1547 142.508 84.7929 145.65 84.1898 148.912C83.1044 154.831 82.0189 160.872 80.9334 166.792C80.5716 168.121 80.3304 169.691 80.6922 171.262ZM151.128 97.5657C149.56 100.707 146.665 102.277 143.65 103.486C142.323 103.969 141.479 104.694 140.997 106.023C140.635 107.11 140.273 108.197 140.032 109.285C139.429 113.03 139.187 116.654 140.755 120.279C141.72 122.695 142.564 122.816 144.253 120.762C146.303 118.225 147.268 115.204 147.389 111.943C147.389 111.338 147.268 110.734 147.509 110.251C147.63 109.889 148.112 109.405 148.474 109.405C148.836 109.285 149.319 109.647 149.68 109.889C149.922 110.13 150.042 110.493 150.042 110.855C150.283 112.063 151.007 113.03 151.972 113.876C152.575 114.48 153.299 114.842 154.022 115.204C154.505 115.446 154.987 115.205 155.108 114.721C155.47 113.755 155.349 112.667 155.228 111.701C155.108 110.855 154.746 110.01 155.711 109.405C156.796 108.801 157.399 109.768 158.123 110.251C158.967 110.855 159.811 111.459 160.656 111.822C161.741 112.305 162.706 111.822 162.947 110.493C163.189 109.164 163.188 107.835 162.585 106.627C160.776 102.761 157.882 99.7403 154.022 97.6865C153.178 97.5657 152.334 97.3241 151.128 97.5657ZM38.841 80.0477C36.067 79.3228 33.0518 79.0812 30.8808 79.8061C29.7954 80.1685 28.5893 80.6518 27.6244 81.2558C25.4535 82.9472 25.8153 86.33 28.3481 87.5382C29.7954 88.263 31.3633 88.3839 32.8106 87.1757C33.1724 86.8133 33.6548 86.4508 34.1373 86.2092C34.8609 85.8468 35.7052 85.9676 36.1876 86.4508C36.6701 86.9341 36.4288 87.7798 35.7052 88.3839C35.3434 88.7463 34.8609 88.8671 34.6197 89.2295C34.2579 89.592 33.7754 90.0752 33.5342 90.5585C32.8106 92.3707 32.69 94.1829 33.0518 95.9951C33.293 96.8408 34.3785 97.2032 35.1021 96.72C35.5846 96.3576 35.9464 95.7535 36.4288 95.3911C37.2731 94.6662 38.3586 95.0286 38.5998 95.9951C38.7204 96.8408 38.7204 97.6865 38.841 98.5322C39.0822 99.8611 39.4441 101.069 40.4089 102.036C41.615 103.244 42.9417 103.365 43.9066 101.915C44.5096 101.069 44.9921 100.103 45.2333 99.1363C45.7157 96.9616 45.9569 94.787 46.1981 92.4915C46.3187 91.525 46.0775 90.4377 45.2333 89.7128C42.5799 87.1757 40.6502 84.1554 39.2028 80.6518C39.2028 80.4101 38.9616 80.2893 38.841 80.0477ZM41.8562 132.118C41.9768 130.91 41.9768 129.823 42.0974 128.736C42.4593 125.232 42.0974 121.849 41.4944 118.466C41.3738 117.862 41.2532 117.379 41.012 116.896C40.8914 116.533 40.4089 116.292 39.9265 115.809C39.5647 116.654 39.3235 117.258 39.2028 117.862C39.0822 118.587 39.0822 119.312 39.0822 120.037C39.0822 120.641 38.841 121.124 38.238 121.366C37.6349 121.608 37.0319 121.487 36.7907 120.883C36.1876 119.675 34.9815 119.312 33.8961 118.95C32.8106 118.466 31.7251 117.862 30.519 117.983C29.7954 118.829 30.1572 119.675 30.6396 120.279C31.3633 121.124 32.2075 121.849 32.9312 122.695C33.293 123.178 33.6548 123.661 33.293 124.145C33.0518 124.507 32.5694 124.749 32.2075 124.749C31.4839 124.87 30.7602 124.749 30.0366 124.749C29.1923 124.749 28.7099 125.353 28.7099 125.957C28.7099 126.561 29.1923 127.165 29.916 127.407C30.3984 127.528 30.8808 127.648 31.2427 127.648C31.7251 127.648 32.2075 127.527 32.5694 127.648C32.9312 127.769 33.4136 128.132 33.4136 128.494C33.5342 128.856 33.1724 129.461 32.9312 129.702C32.4488 130.065 31.7251 130.185 31.1221 130.427C30.6396 130.789 30.1572 131.273 29.6748 131.635C31.3633 132.722 31.3633 132.722 32.3281 132.239C32.9312 131.998 33.5342 131.635 34.1373 131.394C34.3785 131.273 34.9815 131.394 35.1021 131.635C35.3434 131.998 35.464 132.481 35.3434 132.843C35.2227 133.447 34.7403 133.931 34.3785 134.535C34.1373 135.139 33.8961 135.622 33.6548 136.347C36.7907 136.589 40.1677 134.776 41.8562 132.118ZM140.032 161.235C140.997 161.718 141.72 161.235 142.444 160.872C144.374 160.026 145.218 160.63 145.338 162.805C145.338 163.288 145.338 163.772 145.338 164.255C145.338 164.859 145.338 165.342 145.459 165.946C145.459 166.55 145.58 167.154 146.183 167.275C146.786 167.396 147.148 166.913 147.389 166.43C147.63 165.946 147.751 165.342 148.112 164.859C148.595 164.134 149.439 164.013 150.042 164.617C150.525 165.101 150.886 165.705 151.369 166.067C151.731 166.309 152.213 166.43 152.696 166.188C153.178 166.067 153.299 165.463 153.057 164.98C152.937 164.496 152.696 164.134 152.575 163.651C152.454 163.047 152.937 162.322 153.54 162.322C154.022 162.322 154.625 162.443 155.108 162.805C155.952 163.288 156.676 163.892 157.52 164.496C157.761 163.892 158.002 163.53 158.002 163.047C158.002 162.563 158.002 162.08 157.761 161.718C157.279 160.51 157.761 159.785 158.605 159.06C158.726 158.939 158.726 158.697 158.847 158.577C158.726 158.335 158.605 158.093 158.485 157.973C156.073 156.04 153.178 154.831 150.404 153.623C149.439 153.261 148.354 153.502 147.509 154.107C145.7 155.435 143.891 156.764 142.203 158.214C141.238 158.939 140.273 159.785 140.032 161.235ZM152.454 74.9735C152.334 75.4568 152.213 75.94 152.213 76.4233C151.851 80.0477 151.007 83.5513 149.56 86.9341C148.957 88.263 148.354 89.592 147.751 91.0418C147.268 92.1291 147.751 92.9748 148.836 93.0956C150.042 93.0956 151.248 93.0956 152.334 92.7331C157.399 90.9209 159.208 86.2092 159.088 82.464C158.967 80.0477 158.485 77.8731 156.796 76.0609C155.831 74.6111 154.505 74.007 152.454 74.9735ZM46.6806 79.202C47.2836 73.5238 48.1279 67.8455 50.4194 62.7713C50.1782 62.0465 50.0576 61.5632 49.937 61.0799C49.6958 60.2343 49.0927 59.8718 48.3691 59.6302C47.2836 59.2677 46.1981 59.3886 45.2333 60.1134C44.0272 61.0799 43.1829 62.2881 42.7005 63.7378C41.3738 68.0871 41.615 72.3156 43.786 76.4233C44.2684 77.269 44.992 78.1147 45.5951 78.8396C45.7157 78.9604 46.0775 78.9604 46.6806 79.202ZM67.4253 191.68C66.9428 192.404 67.0634 193.009 67.5459 193.492C70.9229 196.754 74.903 198.083 79.4861 197.116C80.5716 196.875 81.6571 196.512 82.2601 195.425C81.5365 194.096 80.451 193.492 79.2449 193.129C75.8679 192.163 72.3702 191.438 68.8726 191.438C68.5107 191.317 67.9077 191.559 67.4253 191.68ZM146.062 185.397C145.941 185.76 145.7 186.122 145.7 186.364C145.821 188.418 145.821 190.471 146.062 192.525C146.183 193.613 146.665 194.7 147.027 195.666C147.268 196.15 147.63 196.512 148.112 196.875C148.595 197.358 149.439 197.116 149.801 196.512C150.042 196.15 150.163 195.666 150.283 195.183C150.525 192.646 150.283 190.23 149.198 187.814C148.715 186.726 147.992 186.001 147.027 185.397C146.786 185.397 146.545 185.397 146.062 185.397ZM146.303 94.6662C146.062 94.787 145.821 94.9078 145.7 95.0286C144.374 96.8408 143.047 98.5322 141.72 100.344C141.6 100.465 141.6 100.707 141.479 100.828C141.479 100.948 141.479 101.069 141.479 101.19C141.961 101.19 142.444 101.311 142.806 101.19C144.856 100.465 146.665 99.3779 148.112 97.8073C148.595 97.3241 149.077 96.5992 148.595 95.7535C147.751 95.391 147.027 95.0286 146.303 94.6662ZM46.9218 87.659C46.8012 85.6051 46.56 84.0345 46.4394 82.464C45.4745 81.8599 44.7508 81.2558 43.9066 80.6518C43.0623 80.0477 42.7005 78.8396 41.012 78.3563C42.3387 82.1015 43.786 85.1219 46.9218 87.659Z" fill="#1D262D"/>
<path fill-rule="evenodd" clip-rule="evenodd" d="M85.154 90.921C85.2746 90.317 85.5159 88.988 85.8777 87.7799C85.9983 87.4174 86.3601 86.9342 86.7219 86.6925C86.9632 86.5717 87.4456 86.5717 87.6868 86.6925C87.928 86.8134 88.2899 87.1758 88.2899 87.5382C88.2899 88.0215 88.0486 88.3839 88.0486 88.8672C87.6868 90.1961 87.4456 91.6459 87.8074 92.9749C88.2898 95.512 89.9784 97.3242 92.5112 97.8074C93.9585 98.049 95.0439 97.6866 95.8882 96.4785C97.2149 94.6663 97.6973 92.6124 97.3355 90.4378C97.3355 90.1961 97.0943 89.9545 97.0943 89.5921C96.8531 88.5048 97.2149 87.7799 98.0591 87.5382C98.6622 87.4174 99.3858 87.9007 99.6271 88.7464C100.351 92.0084 99.9889 95.0287 98.0591 97.8074C96.8531 99.4988 95.1645 100.344 92.9936 100.103C88.2899 99.9821 85.0334 96.3576 85.154 90.921Z" fill="#1D262D"/>
<path fill-rule="evenodd" clip-rule="evenodd" d="M117.96 77.6315C120.01 77.6315 121.94 79.6853 121.699 81.9808C121.578 82.7057 121.337 83.4305 121.096 84.0346C120.493 85.2427 119.407 85.9676 117.96 86.0884C116.513 86.0884 115.548 85.2427 114.945 84.0346C114.583 83.3097 114.342 82.464 114.221 81.6183C114.1 79.3229 115.668 77.6315 117.96 77.6315Z" fill="#1D262D"/>
<path fill-rule="evenodd" clip-rule="evenodd" d="M79.6067 74.1278C79.6067 76.7857 78.4006 78.3563 76.1091 78.8395C75.1442 79.0811 74.2999 78.8395 73.5763 78.1146C72.4908 77.0273 72.0084 75.5775 72.3702 74.007C72.732 72.4364 73.8175 71.2282 75.506 70.745C77.1945 70.2617 78.6418 70.9866 79.2449 72.678C79.4861 73.1613 79.6067 73.7653 79.6067 74.1278Z" fill="#1D262D"/>
<path fill-rule="evenodd" clip-rule="evenodd" d="M100.111 130.669C100.352 130.185 100.593 129.581 100.955 129.098C101.437 128.373 101.92 127.648 102.523 127.165C104.573 125.474 107.226 126.078 108.312 128.494C108.674 129.34 108.915 130.306 108.915 131.152C109.156 135.864 107.83 140.213 105.659 144.2C105.417 144.562 105.176 144.925 104.814 145.287C103.729 146.616 102.04 147.341 100.231 145.649C97.6984 143.354 94.8038 141.421 93.1153 138.28C92.6328 137.434 92.1504 136.709 91.7886 135.864C91.5474 135.139 91.3062 134.293 91.3062 133.447C91.3062 131.031 92.6328 129.581 95.045 129.702C96.7335 129.702 98.3015 130.306 100.111 130.669ZM102.764 143.958C103.005 143.716 103.367 143.354 103.608 142.992C105.538 139.609 106.623 135.984 106.623 132.118C106.623 131.393 106.503 130.669 106.382 129.944C106.262 129.34 106.02 128.856 105.297 128.856C104.814 128.856 104.211 129.098 103.849 129.46C103.005 130.306 102.523 131.514 102.402 132.722C102.282 133.326 102.402 133.81 102.282 134.414C102.161 135.139 101.196 135.622 100.593 135.139C99.99 134.655 99.5075 134.051 99.0251 133.568C97.5778 132.36 96.0099 131.877 94.3214 132.602C93.7183 134.172 94.442 135.501 95.045 136.709C96.7335 139.85 99.3869 142.025 102.161 143.958C102.161 143.958 102.402 143.837 102.764 143.958Z" fill="#1D262D"/>
</svg>
