<svg width="26" height="25" viewBox="0 0 26 25" fill="none" xmlns="http://www.w3.org/2000/svg">
<path d="M14.778 18.4C11.978 20.2 11.678 24.2 8.07798 25C6.07798 22.9 7.07802 20.2 6.67802 17.8C5.07802 17.2 3.478 16.8 1.978 16.1C-0.521997 14.9 -0.722009 13 1.77799 11.8C5.47799 10.1 7.57798 7.80001 7.57798 3.60001C7.57798 2.40001 8.478 1.1 8.978 0C11.178 0 11.678 1.7 12.278 2.8C13.778 5.4 15.678 6.4 18.678 5.8C20.278 5.5 22.178 6.00001 23.878 6.40001C25.378 6.70001 25.578 7.90001 24.478 8.90001C23.178 10.1 21.678 11.1 20.178 12.3C20.878 13.4 21.478 14.5 22.078 15.6C22.478 16.2 22.878 16.8 23.078 17.5C23.878 19.9 22.778 21.2 20.378 20.7C19.378 20.5 18.378 20 17.478 19.7C16.578 19.3 15.778 18.9 14.778 18.4ZM2.67802 13.5C2.67802 13.8 2.77799 14.1 2.77799 14.4C4.97799 14.8 7.17802 15.3 9.67802 15.8C8.77802 18 7.87797 19.9 9.37797 22.4C10.478 20.4 11.478 18.8 12.278 17.2C12.878 15.9 13.578 15.4 14.978 16.2C15.678 16.6 16.478 17 17.178 17.3C18.478 17.9 19.578 18.9 21.578 18.3C20.078 16.1 18.778 14 17.278 11.8C18.678 10.7 19.978 9.6 21.878 8C19.978 7.9 18.778 7.50001 17.878 7.90001C14.778 9.10001 13.278 7.2 11.678 5.3C11.078 4.6 10.578 3.9 10.078 3.2C9.87798 3.2 9.57797 3.3 9.37797 3.3C9.07797 5.7 8.77797 8.10001 8.37797 10.4C6.47797 11.5 4.57802 12.5 2.67802 13.5Z" fill="#37395C"/>
</svg>
