<svg width="125" height="300" viewBox="0 0 125 300" fill="none" xmlns="http://www.w3.org/2000/svg">
<path d="M65.778 45.4C62.978 47.2 62.678 51.2 59.078 52C57.078 49.9 58.078 47.2 57.678 44.8C56.078 44.2 54.478 43.8 52.978 43.1C50.478 41.9 50.278 40 52.778 38.8C56.478 37.1 58.578 34.8 58.578 30.6C58.578 29.4 59.478 28.1 59.978 27C62.178 27 62.678 28.7 63.278 29.8C64.778 32.4 66.678 33.4 69.678 32.8C71.278 32.5 73.178 33 74.878 33.4C76.378 33.7 76.578 34.9 75.478 35.9C74.178 37.1 72.678 38.1 71.178 39.3C71.878 40.4 72.478 41.5 73.078 42.6C73.478 43.2 73.878 43.8 74.078 44.5C74.878 46.9 73.778 48.2 71.378 47.7C70.378 47.5 69.378 47 68.478 46.7C67.578 46.3 66.778 45.9 65.778 45.4ZM53.678 40.5C53.678 40.8 53.778 41.1 53.778 41.4C55.978 41.8 58.178 42.3 60.678 42.8C59.778 45 58.878 46.9 60.378 49.4C61.478 47.4 62.478 45.8 63.278 44.2C63.878 42.9 64.578 42.4 65.978 43.2C66.678 43.6 67.478 44 68.178 44.3C69.478 44.9 70.578 45.9 72.578 45.3C71.078 43.1 69.778 41 68.278 38.8C69.678 37.7 70.978 36.6 72.878 35C70.978 34.9 69.778 34.5 68.878 34.9C65.778 36.1 64.278 34.2 62.678 32.3C62.078 31.6 61.578 30.9 61.078 30.2C60.878 30.2 60.578 30.3 60.378 30.3C60.078 32.7 59.778 35.1 59.378 37.4C57.478 38.5 55.578 39.5 53.678 40.5Z" fill="#37395C"/>
<path d="M70.0768 262.563C68.0798 260.765 66.2822 259.168 64.4849 257.57L64.4768 257.563C63.9768 257.063 63.4768 256.463 63.1768 255.863C62.5768 254.463 63.5768 253.063 65.0768 253.163C67.2768 253.163 69.4768 253.263 71.6768 253.463C72.9768 253.563 73.7768 253.163 74.4768 252.063C75.3373 250.649 76.2734 249.273 77.2154 247.888C77.8059 247.02 78.3988 246.149 78.9768 245.263C80.1768 243.563 81.0768 243.563 81.8768 245.363C82.7768 247.363 83.5768 249.363 84.1768 251.463C84.6768 253.363 85.5768 254.263 87.4768 254.663C90.0768 255.263 92.6768 256.063 95.2768 256.863C96.2768 257.163 97.2768 257.563 97.2768 258.963C97.2768 260.163 96.8768 261.263 95.7768 261.763C94.4391 262.376 93.1014 262.927 91.7463 263.485C90.6703 263.928 89.5833 264.376 88.4768 264.863C88.5108 265.611 88.5564 266.36 88.6018 267.105C88.6898 268.548 88.7768 269.977 88.7768 271.363C88.7768 272.263 88.7768 273.263 88.4768 274.163C87.7768 276.463 85.8768 276.963 84.1768 275.263C82.7768 273.963 81.3768 272.463 80.0768 270.963C79.0768 269.863 78.2768 269.763 76.8768 270.463C74.3768 271.763 71.7768 272.863 69.0768 273.563C66.5768 274.263 65.7768 273.163 66.7768 270.663C67.3046 269.291 67.888 267.891 68.4831 266.463C69.0156 265.185 69.5574 263.885 70.0768 262.563ZM68.9768 271.463C72.8768 270.863 75.9768 269.163 78.6768 266.863C79.8874 267.67 80.7724 268.803 81.6602 269.939C82.9724 271.619 84.291 273.307 86.6768 273.963C87.8768 270.163 86.9768 266.663 85.4768 263.363C85.7758 263.28 86.0692 263.199 86.3576 263.121C87.8056 262.724 89.126 262.363 90.3768 261.863C91.3588 261.495 92.3409 261.051 93.4385 260.555C94.1292 260.243 94.8657 259.91 95.6768 259.563C95.2297 259.322 94.8773 259.117 94.5788 258.943C94.0093 258.611 93.6361 258.394 93.1768 258.263C92.4101 258.063 91.6435 257.852 90.8768 257.641C89.3435 257.218 87.8102 256.796 86.2768 256.463C83.9768 255.963 82.5768 254.963 82.3768 252.363C82.2768 250.463 81.8768 248.463 80.1768 246.663C79.7726 247.31 79.3725 247.948 78.9764 248.58C77.4129 251.075 75.913 253.469 74.4768 255.863C71.4768 255.263 68.6768 255.363 64.9768 255.663C65.9566 256.438 66.8364 257.164 67.6638 257.847C68.8632 258.836 69.9525 259.734 71.0768 260.563C71.9901 261.222 72.44 261.496 72.5441 261.866C72.6451 262.226 72.4202 262.678 71.9768 263.663C71.6931 264.282 71.3696 264.887 71.0421 265.5C70.0998 267.264 69.1252 269.088 68.9768 271.463Z" fill="#37395C"/>
<path d="M70.0768 262.563C68.0798 260.765 66.2822 259.168 64.4849 257.57L64.4768 257.563C63.9768 257.063 63.4768 256.463 63.1768 255.863C62.5768 254.463 63.5768 253.063 65.0768 253.163C67.2768 253.163 69.4768 253.263 71.6768 253.463C72.9768 253.563 73.7768 253.163 74.4768 252.063C75.3373 250.649 76.2734 249.273 77.2154 247.888C77.8059 247.02 78.3988 246.149 78.9768 245.263C80.1768 243.563 81.0768 243.563 81.8768 245.363C82.7768 247.363 83.5768 249.363 84.1768 251.463C84.6768 253.363 85.5768 254.263 87.4768 254.663C90.0768 255.263 92.6768 256.063 95.2768 256.863C96.2768 257.163 97.2768 257.563 97.2768 258.963C97.2768 260.163 96.8768 261.263 95.7768 261.763C94.4391 262.376 93.1014 262.927 91.7463 263.485C90.6703 263.928 89.5833 264.376 88.4768 264.863C88.5108 265.611 88.5564 266.36 88.6018 267.105C88.6898 268.548 88.7768 269.977 88.7768 271.363C88.7768 272.263 88.7768 273.263 88.4768 274.163C87.7768 276.463 85.8768 276.963 84.1768 275.263C82.7768 273.963 81.3768 272.463 80.0768 270.963C79.0768 269.863 78.2768 269.763 76.8768 270.463C74.3768 271.763 71.7768 272.863 69.0768 273.563C66.5768 274.263 65.7768 273.163 66.7768 270.663C67.3046 269.291 67.888 267.891 68.4831 266.463C69.0156 265.185 69.5574 263.885 70.0768 262.563ZM68.9768 271.463C72.8768 270.863 75.9768 269.163 78.6768 266.863C79.8874 267.67 80.7724 268.803 81.6602 269.939C82.9724 271.619 84.291 273.307 86.6768 273.963C87.8768 270.163 86.9768 266.663 85.4768 263.363C85.7758 263.28 86.0692 263.199 86.3576 263.121C87.8056 262.724 89.126 262.363 90.3768 261.863C91.3588 261.495 92.3409 261.051 93.4385 260.555C94.1292 260.243 94.8657 259.91 95.6768 259.563C95.2297 259.322 94.8773 259.117 94.5788 258.943C94.0093 258.611 93.6361 258.394 93.1768 258.263C92.4101 258.063 91.6435 257.852 90.8768 257.641C89.3435 257.218 87.8102 256.796 86.2768 256.463C83.9768 255.963 82.5768 254.963 82.3768 252.363C82.2768 250.463 81.8768 248.463 80.1768 246.663C79.7726 247.31 79.3725 247.948 78.9764 248.58C77.4129 251.075 75.913 253.469 74.4768 255.863C71.4768 255.263 68.6768 255.363 64.9768 255.663C65.9566 256.438 66.8364 257.164 67.6638 257.847C68.8632 258.836 69.9525 259.734 71.0768 260.563C71.9901 261.222 72.44 261.496 72.5441 261.866C72.6451 262.226 72.4202 262.678 71.9768 263.663C71.6931 264.282 71.3696 264.887 71.0421 265.5C70.0998 267.264 69.1252 269.088 68.9768 271.463Z" stroke="#37395C"/>
</svg>
