<svg width="198" height="200" viewBox="0 0 198 200" fill="none" xmlns="http://www.w3.org/2000/svg">
<path d="M128.524 73.0162C134.936 76.222 138.142 82.3282 140.126 89.3503C141.195 93.3193 142.263 97.1357 142.721 101.257C144.248 114.691 140.126 126.445 131.119 136.215C123.181 144.917 112.343 147.97 100.741 146.291C87.9181 144.459 77.0796 138.658 68.6836 128.583C62.2721 120.797 61.8141 111.485 63.3406 102.021C64.8672 91.9454 69.1415 82.9388 75.4004 75.4587C82.5751 66.6047 92.803 62.6357 104.252 62.483C105.168 62.483 106.084 62.483 106.847 62.941C113.869 66.4521 122.113 67.368 128.524 73.0162ZM74.6371 82.7861C69.1415 90.7242 66.0884 100.189 66.0884 110.569C66.0884 116.37 67.4623 121.866 71.2787 126.293C79.3694 136.063 90.0552 141.558 102.573 142.932C109.29 143.695 115.549 142.169 121.502 139.116C130.356 134.536 134.783 126.751 137.836 117.591C141.805 105.684 139.057 94.6932 134.478 83.8547C133.715 81.8702 132.035 79.8857 130.203 78.5118C125.929 75.1534 121.502 72.1003 116.007 70.7264C112.801 69.9631 110.053 67.9786 107 66.7574C105.779 66.2994 104.252 65.9941 102.878 66.1467C91.4291 67.5206 81.0486 71.1844 74.6371 82.7861Z" fill="#37395C"/>
<path d="M164.551 151.328C162.414 150.259 161.345 149.801 160.429 149.038C156.002 145.985 151.423 143.085 146.996 139.879C146.232 139.268 145.011 137.742 145.316 137.131C146.08 135.452 147.606 135.91 148.827 136.826C153.865 140.337 158.903 143.695 163.788 147.359C164.398 147.97 164.246 149.343 164.551 151.328Z" fill="#37395C"/>
<path d="M157.528 115.912C163.94 116.676 169.436 118.507 175.084 120.645C175.542 120.797 175.694 122.171 176 123.087C175.084 123.392 174.473 123.85 173.863 123.698C169.283 122.629 164.703 121.408 160.124 120.187C158.292 119.729 157.376 118.813 157.528 115.912Z" fill="#37395C"/>
<path d="M60.4407 91.4874C54.1819 90.1135 48.0757 88.587 42.1221 87.2131C41.2062 84.9232 42.2748 84.16 43.6487 84.4653C49.1442 85.5339 54.4872 86.6024 59.9827 87.9763C60.5934 88.129 61.0513 89.6555 61.5093 90.4188C61.204 90.8768 60.8987 91.1821 60.4407 91.4874Z" fill="#37395C"/>
<path d="M72.5 169.494C72.1947 168.425 71.4314 167.204 71.7368 166.441C74.0266 161.556 76.3164 156.671 78.9115 151.786C79.2168 151.328 80.4381 150.87 81.0487 151.023C81.5067 151.175 82.1173 152.549 81.9646 153.007C79.3695 158.503 76.7744 163.998 74.1792 169.494C73.416 169.494 72.958 169.494 72.5 169.494Z" fill="#37395C"/>
<path d="M38 116.065C40.5951 112.706 44.1062 114.538 46.854 113.928C49.7544 113.317 52.8075 113.317 56.0133 113.012C56.0133 113.164 56.3186 114.08 56.7765 115.607C50.9757 116.828 45.6327 117.897 39.9845 117.744C39.5265 117.591 38.9159 116.675 38 116.065Z" fill="#37395C"/>
<path d="M174.626 87.8236C175.084 89.6555 174.015 90.4187 172.489 90.8767C168.825 91.9453 165.009 92.7086 161.345 93.6245C159.666 94.0825 158.75 93.3192 158.292 91.7926C161.955 88.5869 169.894 86.6024 174.626 87.8236Z" fill="#37395C"/>
<path d="M107.152 52.2551C106.541 45.9962 107.61 40.0427 108.831 34.0891C111.579 33.6311 112.19 35.005 112.037 36.6842C111.426 41.2639 110.816 45.9962 110.053 50.5758C109.9 51.3391 108.984 51.9497 108.373 52.713C107.915 52.713 107.457 52.4077 107.152 52.2551Z" fill="#37395C"/>
<path d="M89.1398 55.9187C88.3765 55.3081 87.1553 54.6975 86.6973 53.9342C84.7128 49.9652 83.0336 45.9962 81.3544 42.0271C81.0491 41.2639 81.5071 40.1953 81.6597 39.2794C82.5757 39.7373 84.1022 39.89 84.5602 40.6532C86.392 44.4696 87.9186 48.286 89.5978 52.255C89.9031 53.171 90.0557 54.2395 90.2084 55.1555C89.7504 55.3081 89.4451 55.6134 89.1398 55.9187Z" fill="#37395C"/>
<path d="M136.309 168.12C135.088 166.136 133.714 163.846 132.493 161.709C131.119 159.419 130.051 157.129 128.524 154.992C127.761 153.923 126.997 152.702 128.371 151.939C128.982 151.633 130.508 152.397 131.272 153.007C131.882 153.465 132.188 154.381 132.646 155.145C134.325 158.198 136.157 161.098 137.836 164.151C138.752 165.83 139.21 167.204 136.309 168.12Z" fill="#37395C"/>
<path d="M148.37 68.2839C151.576 64.4676 154.018 61.4145 156.613 58.6667C157.071 58.2087 158.14 58.2087 158.903 58.056C159.056 58.8193 159.514 59.7352 159.361 60.3459C158.903 61.4144 157.987 62.3304 157.224 63.2463C155.392 65.3835 153.56 67.368 151.728 69.5051C150.813 70.5737 149.897 72.2529 148.523 70.7264C147.912 70.1158 148.37 68.4366 148.37 68.2839Z" fill="#37395C"/>
<path d="M73.7216 67.8258C69.2946 65.536 66.0888 61.7196 62.1198 58.8192C61.5092 58.3612 61.5092 57.14 61.2039 56.0714C63.4937 56.2241 70.5158 60.8037 73.1109 63.8568C73.8742 64.7727 74.1795 65.994 74.7901 67.0626C74.4848 67.2152 74.0269 67.5205 73.7216 67.8258Z" fill="#37395C"/>
<path d="M47.4648 144.917C47.7702 143.695 47.6175 142.474 48.0755 142.016C51.5865 139.421 55.2502 137.131 58.914 134.841C59.3719 134.536 61.0511 134.994 61.2038 135.299C61.5091 136.063 61.5091 137.589 60.8985 138.047C57.5401 140.49 53.8763 142.779 50.3653 144.917C49.9073 145.222 48.8387 144.917 47.4648 144.917Z" fill="#37395C"/>
<path d="M128.829 58.056C127.913 57.1401 126.845 56.3768 126.997 55.9189C128.218 50.8813 130.814 46.4543 133.103 41.8746C135.393 42.4853 135.851 43.5538 135.088 45.0804C133.256 49.2021 131.272 53.1711 128.829 58.056Z" fill="#37395C"/>
<path d="M107.305 175.295C105.626 173.768 104.252 173.158 104.252 172.547C104.099 167.815 104.252 163.235 104.252 157.282C105.779 158.656 107.305 159.266 107.305 159.877C107.305 164.456 107.305 169.189 107.305 175.295Z" fill="#37395C"/>
<path d="M89.9027 111.027C92.0399 109.653 92.9558 110.111 93.8717 111.638C94.7877 113.317 95.8563 114.996 97.0775 116.37C101.352 121.255 107.916 121.102 112.038 115.912C113.412 114.08 114.785 112.248 116.159 110.417C116.465 110.569 116.923 110.722 117.228 110.722C117.381 111.79 118.144 113.164 117.686 113.775C114.785 118.049 112.19 122.782 106.084 123.545C102.573 123.85 99.52 123.392 96.9248 120.95C94.0244 118.049 91.5819 114.996 89.9027 111.027Z" fill="#37395C"/>
<path d="M113.259 94.8457C112.648 94.8457 110.969 95.4563 110.053 94.9984C107.61 93.6245 107 88.8922 108.832 86.6023C110.053 85.0758 111.58 84.3125 113.411 85.5337C115.396 86.755 115.701 91.3346 113.259 94.8457Z" fill="#37395C"/>
<path d="M102.42 96.0671C100.741 96.0671 99.6719 96.5251 99.0613 96.0671C96.4662 94.6932 95.3976 89.045 97.0768 86.7552C98.4507 84.7707 101.504 84.9233 102.114 87.0605C102.725 89.9609 102.267 92.8614 102.42 96.0671Z" fill="#37395C"/>
</svg>
