<svg width="65" height="123" viewBox="0 0 65 123" fill="none" xmlns="http://www.w3.org/2000/svg">
<g clip-path="url(#clip0_1555_94)">
<path fill-rule="evenodd" clip-rule="evenodd" d="M20.5033 72.1879C20.5033 72.1879 18.7346 80.9529 5.18115 85.4365L3.70923 83.1804C3.70923 83.1804 13.325 78.7325 16.3654 71.0813L20.5033 72.1879Z" fill="#F8CEB4"/>
<path fill-rule="evenodd" clip-rule="evenodd" d="M44.2377 73.2682C44.2377 73.2682 52.9703 74.7271 61.9596 63.5418L60.4029 61.3452C60.4029 61.3452 52.8502 68.8275 44.6922 68.9607L44.2377 73.2682Z" fill="#F8CEB4"/>
<path fill-rule="evenodd" clip-rule="evenodd" d="M34.9327 116.903C34.9327 116.903 40.3894 120.473 38.0697 122.212C36.3057 123.543 32.5823 120.706 31.6191 117.874C31.1858 116.601 31.7227 116.248 31.9724 115.77C32.7472 114.295 33.3713 115.646 33.3713 115.646L34.9327 116.903Z" fill="#898786"/>
<path fill-rule="evenodd" clip-rule="evenodd" d="M35.6157 116.115C35.6157 116.115 39.8949 119.944 38.5878 121.727C37.2808 123.509 33.2677 119.918 32.3045 117.086C31.3413 114.254 34.0567 114.859 34.0567 114.859L35.6157 116.115Z" fill="#E9E7E7"/>
<path fill-rule="evenodd" clip-rule="evenodd" d="M42.5373 101.948C42.5373 101.948 38.2981 112.657 35.0929 116.522C34.9783 116.677 34.8176 116.79 34.6346 116.846C34.4515 116.901 34.2555 116.896 34.0755 116.831C33.6625 116.717 33.3076 116.449 33.0817 116.082C33.0817 116.082 36.0161 106.46 36.6378 102.224L42.5373 101.948Z" fill="#F8CEB4"/>
<path fill-rule="evenodd" clip-rule="evenodd" d="M37.5493 119.847C37.2191 119.788 36.8807 119.797 36.5542 119.874C36.2277 119.95 35.9197 120.092 35.6487 120.292C35.3284 120.53 34.9775 120.013 35.3002 119.778C35.6374 119.534 36.0193 119.36 36.4237 119.267C36.828 119.174 37.2467 119.163 37.6553 119.235C37.7295 119.255 37.7936 119.303 37.8349 119.369C37.8762 119.434 37.8917 119.513 37.8785 119.59C37.8652 119.666 37.8241 119.735 37.7632 119.783C37.7023 119.83 37.626 119.853 37.5493 119.847Z" fill="#FEFEFE"/>
<path fill-rule="evenodd" clip-rule="evenodd" d="M36.9534 118.835C36.1668 118.609 35.4602 119 34.8173 119.428C34.4876 119.647 34.1367 119.135 34.4688 118.914C35.2365 118.405 36.1173 117.962 37.0593 118.224C37.4385 118.331 37.3372 118.938 36.9557 118.835" fill="#FEFEFE"/>
<path fill-rule="evenodd" clip-rule="evenodd" d="M36.334 117.936C35.4485 117.76 34.8315 118.188 34.0873 118.593C33.7434 118.781 33.3807 118.269 33.7387 118.078C34.6289 117.603 35.3873 117.112 36.4376 117.322C36.5152 117.339 36.5832 117.385 36.6276 117.452C36.672 117.518 36.6894 117.6 36.676 117.679C36.6627 117.758 36.6197 117.829 36.556 117.876C36.4923 117.924 36.4128 117.946 36.334 117.936Z" fill="#FEFEFE"/>
<path fill-rule="evenodd" clip-rule="evenodd" d="M34.0755 116.832C33.6634 116.717 33.3093 116.449 33.084 116.082C33.084 116.082 33.4561 114.861 33.9624 113.102C35.2271 114.157 36.1456 114.292 36.6731 114.245C36.2001 115.04 35.672 115.802 35.0929 116.522C34.9787 116.677 34.8181 116.791 34.6348 116.847C34.4516 116.903 34.2554 116.897 34.0755 116.832Z" fill="#BBB6B4"/>
<path fill-rule="evenodd" clip-rule="evenodd" d="M21.9022 117.353C21.9022 117.353 27.3589 120.922 25.0391 122.662C23.2775 123.99 19.5471 121.153 18.5909 118.324C18.1576 117.048 18.6922 116.696 18.9442 116.22C19.719 114.742 20.3431 116.094 20.3431 116.094L21.9022 117.353Z" fill="#898786"/>
<path fill-rule="evenodd" clip-rule="evenodd" d="M22.5875 116.565C22.5875 116.565 26.8666 120.389 25.5572 122.174C24.2478 123.959 20.2371 120.368 19.2739 117.536C18.3106 114.704 21.026 115.308 21.026 115.308L22.5875 116.565Z" fill="#E9E7E7"/>
<path fill-rule="evenodd" clip-rule="evenodd" d="M29.5066 102.398C29.5066 102.398 25.2675 113.107 22.0622 116.97C21.9481 117.125 21.7875 117.239 21.6042 117.294C21.4209 117.35 21.2248 117.345 21.0448 117.279C20.6327 117.164 20.2787 116.896 20.0533 116.529C20.0533 116.529 22.9854 106.91 23.6095 102.674L29.5066 102.398Z" fill="#F8CEB4"/>
<path fill-rule="evenodd" clip-rule="evenodd" d="M24.521 120.296C24.191 120.238 23.8528 120.247 23.5263 120.323C23.1998 120.399 22.8918 120.541 22.6204 120.739C22.2978 120.977 21.9493 120.461 22.2719 120.227C22.6089 119.983 22.9907 119.809 23.3951 119.715C23.7995 119.622 24.2183 119.611 24.627 119.682C24.7045 119.7 24.7726 119.746 24.817 119.813C24.8614 119.879 24.8787 119.96 24.8653 120.039C24.852 120.119 24.809 120.189 24.7453 120.237C24.6816 120.285 24.6021 120.306 24.5233 120.296" fill="#FEFEFE"/>
<path fill-rule="evenodd" clip-rule="evenodd" d="M23.9228 119.285C23.1362 119.047 22.432 119.449 21.7891 119.875C21.457 120.097 21.1061 119.585 21.4382 119.364C22.2059 118.852 23.0867 118.412 24.0288 118.671C24.4056 118.78 24.3043 119.385 23.9228 119.285Z" fill="#FEFEFE"/>
<path fill-rule="evenodd" clip-rule="evenodd" d="M23.3151 118.383C22.4296 118.209 21.8126 118.638 21.0707 119.04C20.7245 119.228 20.3642 118.716 20.7222 118.528C21.6124 118.052 22.3707 117.562 23.4187 117.771C23.499 117.785 23.5705 117.831 23.6176 117.898C23.6646 117.965 23.6833 118.048 23.6696 118.13C23.6558 118.211 23.6108 118.283 23.5443 118.33C23.4778 118.378 23.3954 118.397 23.3151 118.383Z" fill="#FEFEFE"/>
<path fill-rule="evenodd" clip-rule="evenodd" d="M21.0472 117.279C20.6347 117.165 20.2799 116.898 20.0533 116.532C20.0533 116.532 20.4254 115.311 20.9318 113.55C22.1965 114.606 23.1173 114.739 23.6425 114.692C23.1713 115.488 22.644 116.25 22.0646 116.969C21.9502 117.124 21.7896 117.238 21.6064 117.294C21.4232 117.349 21.2272 117.344 21.0472 117.279Z" fill="#BBB6B4"/>
<path fill-rule="evenodd" clip-rule="evenodd" d="M0.890123 39.7053C1.59665 36.7923 5.12925 36.1355 6.95444 38.4202C7.91531 39.5173 8.40045 40.969 8.94918 42.316C9.43668 43.5059 10.1267 44.8719 10.2303 46.1808C10.2845 46.8948 9.79936 48.0371 9.00335 48.1585C7.5173 48.3846 6.71186 46.5307 6.08306 45.5192C5.14103 43.9938 3.08505 43.9033 1.86512 42.6634C1.12328 41.9161 0.63342 40.7595 0.890123 39.6958" fill="#F8CEB4"/>
<path fill-rule="evenodd" clip-rule="evenodd" d="M36.6425 68.2827L23.7438 67.9328L23.6166 51.2858L36.0561 50.8574L36.6425 68.2827Z" fill="#F8CEB4"/>
<path fill-rule="evenodd" clip-rule="evenodd" d="M23.5648 51.2882L23.6967 61.6476C25.6561 62.7519 27.6344 63.3278 29.6433 63.2588C32.0199 63.1752 34.3406 62.5078 36.4047 61.3145L36.0538 50.8574L23.5648 51.2882Z" fill="#F2BD9C"/>
<path fill-rule="evenodd" clip-rule="evenodd" d="M18.5156 11.7421C2.99329 17.5109 1.64854 32.9204 4.79963 41.5116C8.37934 51.745 18.89 61.7665 29.0192 61.4167C39.5205 61.0549 46.8683 54.9911 51.5243 46.8472C57.3884 36.6139 56.1072 18.7341 38.9129 11.7183C30.2509 8.18425 18.5156 11.7445 18.5156 11.7421Z" fill="#F8CEB4"/>
<path fill-rule="evenodd" clip-rule="evenodd" d="M25.3876 39.6697C23.6943 40.5003 22.5615 42.0758 23.3788 43.9868C24.0853 45.6098 26.4875 45.7122 27.7568 44.9078C28.3692 44.5222 28.1007 44.151 27.5001 44.5294C26.6429 45.0696 25.1639 44.2462 24.5963 43.6179C23.5931 42.5113 24.1748 40.8073 25.3711 40.2195C25.8422 39.9934 26.1342 39.3032 25.3876 39.6697Z" fill="#E8A983"/>
<path fill-rule="evenodd" clip-rule="evenodd" d="M18.8405 38.0776C18.8716 38.9954 18.6327 39.902 18.154 40.6826C17.6752 41.4633 16.9781 42.0829 16.1509 42.4631C15.3236 42.8434 14.4033 42.9672 13.5064 42.8189C12.6095 42.6706 11.7763 42.2568 11.1121 41.6299C10.4479 41.003 9.98265 40.1912 9.7751 39.2971C9.56756 38.403 9.62707 37.4667 9.94612 36.6068C10.2652 35.7468 10.8294 35.0018 11.5675 34.466C12.3056 33.9301 13.1843 33.6275 14.0927 33.5963C14.6957 33.575 15.297 33.6741 15.8621 33.8879C16.4272 34.1016 16.9451 34.4259 17.3861 34.8421C17.8271 35.2584 18.1825 35.7584 18.4321 36.3135C18.6816 36.8687 18.8204 37.4682 18.8405 38.0776Z" fill="#FEFEFE"/>
<path fill-rule="evenodd" clip-rule="evenodd" d="M14.2034 43.2155C12.9113 43.211 11.6727 42.6937 10.7545 41.7752C9.83619 40.8566 9.31176 39.6103 9.29416 38.3048C9.27655 36.9992 9.76718 35.7389 10.6603 34.7954C11.5535 33.8519 12.7777 33.3008 14.0692 33.2606C15.3759 33.2202 16.6453 33.7042 17.5998 34.6068C18.5544 35.5094 19.1165 36.7572 19.1632 38.0775C19.1852 38.731 19.0796 39.3825 18.8525 39.9947C18.6253 40.607 18.281 41.168 17.8392 41.6458C17.3975 42.1236 16.8669 42.5088 16.2778 42.7794C15.6887 43.0499 15.0526 43.2006 14.4059 43.2227H14.2034M14.2646 33.9413H14.0927C12.9705 33.9642 11.9025 34.4337 11.1209 35.2478C10.3393 36.0619 9.90724 37.1548 9.91856 38.289C9.92989 39.4232 10.3837 40.5071 11.1814 41.3051C11.9791 42.1031 13.0562 42.5507 14.1787 42.5507C15.3011 42.5507 16.3782 42.1031 17.1759 41.3051C17.9736 40.5071 18.4275 39.4232 18.4388 38.289C18.4501 37.1548 18.018 36.0619 17.2364 35.2478C16.4548 34.4337 15.3869 33.9642 14.2646 33.9413Z" fill="#E8A983"/>
<path fill-rule="evenodd" clip-rule="evenodd" d="M17.4511 38.175C17.4725 38.8143 17.306 39.4457 16.9726 39.9894C16.6392 40.5331 16.1538 40.9648 15.5777 41.23C15.0017 41.4952 14.3608 41.5819 13.736 41.4792C13.1112 41.3766 12.5305 41.0892 12.0673 40.6532C11.604 40.2173 11.279 39.6525 11.1332 39.03C10.9874 38.4075 11.0274 37.7554 11.2482 37.1559C11.4689 36.5564 11.8605 36.0364 12.3735 35.6617C12.8865 35.2869 13.4979 35.0741 14.1304 35.0503C14.5516 35.0347 14.9717 35.1032 15.3666 35.2519C15.7616 35.4005 16.1236 35.6264 16.4321 35.9167C16.7405 36.2069 16.9893 36.5558 17.1641 36.9433C17.339 37.3308 17.4365 37.7494 17.4511 38.175Z" fill="#4E851A"/>
<path fill-rule="evenodd" clip-rule="evenodd" d="M15.8119 38.3821C15.8483 38.6774 15.7955 38.9768 15.6605 39.2412C15.5255 39.5056 15.3146 39.7225 15.0553 39.8636C14.7961 40.0047 14.5008 40.0633 14.208 40.0317C13.9153 40.0001 13.6388 39.8799 13.4149 39.6867C13.191 39.4935 13.0301 39.2364 12.9533 38.9492C12.8766 38.662 12.8875 38.358 12.9848 38.0772C13.082 37.7964 13.261 37.5518 13.4982 37.3756C13.7354 37.1994 14.0198 37.0998 14.3141 37.0899C14.4964 37.0752 14.6798 37.0971 14.8538 37.1541C15.0278 37.2111 15.189 37.3023 15.3281 37.4223C15.4672 37.5423 15.5815 37.6888 15.6645 37.8535C15.7476 38.0182 15.7976 38.1979 15.8119 38.3821Z" fill="#070707"/>
<path fill-rule="evenodd" clip-rule="evenodd" d="M39.0777 28.9912C41.8873 28.896 44.0869 29.8313 46.0251 31.3949C46.7199 31.9541 48.9337 30.8047 48.0952 30.1312C45.8819 28.3096 43.0835 27.3729 40.2317 27.4991C39.5958 27.5205 38.927 27.7585 38.5831 28.213C38.3029 28.5771 38.5054 29.0103 39.0847 28.9912" fill="#BA9904"/>
<path fill-rule="evenodd" clip-rule="evenodd" d="M16.509 29.8266C13.6971 29.8742 11.5492 30.9523 9.67931 32.6634C9.01518 33.275 6.74725 32.2065 7.55975 31.4735C9.65515 29.491 12.4117 28.3773 15.282 28.3535C15.9179 28.3535 16.6009 28.5534 16.973 29.0032C17.2721 29.365 17.0907 29.8219 16.502 29.8338" fill="#BA9904"/>
<path fill-rule="evenodd" clip-rule="evenodd" d="M12.5054 38.1513C12.5122 38.3513 12.4603 38.5488 12.356 38.7189C12.2518 38.889 12.0999 39.0241 11.9197 39.107C11.7395 39.1899 11.539 39.2169 11.3436 39.1846C11.1481 39.1523 10.9666 39.0622 10.8219 38.9256C10.6772 38.789 10.5758 38.6121 10.5306 38.4173C10.4854 38.2225 10.4984 38.0185 10.5679 37.8312C10.6374 37.6438 10.7604 37.4815 10.9213 37.3648C11.0821 37.2481 11.2736 37.1823 11.4715 37.1755C11.7364 37.1672 11.9939 37.2651 12.1876 37.4479C12.3813 37.6308 12.4955 37.8836 12.5054 38.1513Z" fill="#FCFAE2"/>
<path fill-rule="evenodd" clip-rule="evenodd" d="M12.7173 40.4217C12.721 40.5355 12.6912 40.6479 12.6316 40.7446C12.5721 40.8413 12.4856 40.918 12.3829 40.965C12.2803 41.012 12.1661 41.0272 12.055 41.0087C11.9438 40.9901 11.8405 40.9387 11.7582 40.8609C11.6759 40.7831 11.6183 40.6824 11.5927 40.5715C11.5671 40.4606 11.5745 40.3445 11.6142 40.2379C11.6538 40.1313 11.7238 40.0389 11.8154 39.9725C11.9069 39.9061 12.0159 39.8687 12.1285 39.8648C12.2034 39.8623 12.278 39.8747 12.3481 39.9013C12.4182 39.9279 12.4825 39.9682 12.5372 40.02C12.5918 40.0717 12.6359 40.1338 12.6668 40.2027C12.6977 40.2717 12.7149 40.3461 12.7173 40.4217Z" fill="#FCFAE2"/>
<path fill-rule="evenodd" clip-rule="evenodd" d="M45.4317 37.2946C45.4628 38.2125 45.2239 39.1191 44.7452 39.8997C44.2664 40.6803 43.5693 41.2999 42.742 41.6802C41.9148 42.0604 40.9945 42.1842 40.0976 42.0359C39.2007 41.8876 38.3675 41.4739 37.7033 40.847C37.0391 40.2201 36.5738 39.4082 36.3663 38.5141C36.1587 37.62 36.2183 36.6838 36.5373 35.8238C36.8563 34.9639 37.4206 34.2189 38.1587 33.683C38.8968 33.1472 39.7755 32.8445 40.6838 32.8134C41.9013 32.7723 43.0851 33.2211 43.9753 34.0613C44.8655 34.9016 45.3893 36.0645 45.4317 37.2946Z" fill="#FEFEFE"/>
<path fill-rule="evenodd" clip-rule="evenodd" d="M40.8086 42.4326C39.5132 42.4063 38.2805 41.8644 37.3783 40.9248C36.4761 39.9851 35.9773 38.7237 35.9904 37.4145C36.0034 36.1053 36.5272 34.8543 37.4479 33.9332C38.3686 33.0121 39.6119 32.4954 40.9075 32.4954C42.2031 32.4954 43.4464 33.0121 44.3671 33.9332C45.2878 34.8543 45.8116 36.1053 45.8246 37.4145C45.8377 38.7237 45.3389 39.9851 44.4367 40.9248C43.5345 41.8644 42.3018 42.4063 41.0064 42.4326H40.8086ZM40.8675 33.1512H40.6955C39.5733 33.1741 38.5054 33.6436 37.7238 34.4577C36.9422 35.2718 36.5101 36.3647 36.5214 37.4989C36.5327 38.6331 36.9865 39.717 37.7842 40.515C38.5819 41.313 39.659 41.7606 40.7815 41.7606C41.904 41.7606 42.9811 41.313 43.7788 40.515C44.5765 39.717 45.0303 38.6331 45.0416 37.4989C45.0529 36.3647 44.6209 35.2718 43.8393 34.4577C43.0577 33.6436 41.9897 33.1741 40.8675 33.1512Z" fill="#E8A983"/>
<path fill-rule="evenodd" clip-rule="evenodd" d="M44.0799 37.335C44.1019 37.9743 43.9358 38.6058 43.6024 39.1496C43.2691 39.6933 42.7836 40.1249 42.2073 40.3897C41.6311 40.6544 40.9901 40.7404 40.3654 40.6368C39.7408 40.5331 39.1607 40.2445 38.6985 39.8075C38.2363 39.3705 37.9128 38.8046 37.769 38.1817C37.6252 37.5588 37.6676 36.9067 37.8908 36.3082C38.114 35.7096 38.5079 35.1914 39.0227 34.8192C39.5376 34.447 40.1501 34.2376 40.7828 34.2174C41.6287 34.1905 42.4508 34.5034 43.0688 35.0878C43.6868 35.6722 44.0504 36.4803 44.0799 37.335Z" fill="#4E851A"/>
<path fill-rule="evenodd" clip-rule="evenodd" d="M42.4431 37.5422C42.4795 37.8369 42.4268 38.1359 42.2921 38.3999C42.1573 38.6639 41.9467 38.8806 41.688 39.0215C41.4292 39.1624 41.1343 39.2209 40.842 39.1894C40.5497 39.1579 40.2737 39.0379 40.0501 38.8451C39.8265 38.6522 39.6658 38.3956 39.5892 38.1088C39.5125 37.8221 39.5234 37.5186 39.6205 37.2382C39.7175 36.9578 39.8962 36.7136 40.133 36.5377C40.3699 36.3617 40.6538 36.2623 40.9476 36.2523C41.3151 36.2234 41.6789 36.3429 41.9593 36.5848C42.2396 36.8266 42.4136 37.1709 42.4431 37.5422Z" fill="#070707"/>
<path fill-rule="evenodd" clip-rule="evenodd" d="M39.1789 37.3779C39.1877 37.5785 39.1373 37.7772 39.0339 37.9487C38.9306 38.1203 38.7791 38.2568 38.5987 38.341C38.4183 38.4252 38.2172 38.4532 38.021 38.4215C37.8248 38.3898 37.6423 38.2998 37.4969 38.163C37.3515 38.0261 37.2497 37.8487 37.2044 37.6531C37.1591 37.4576 37.1725 37.2529 37.2428 37.0651C37.313 36.8773 37.437 36.7148 37.599 36.5985C37.7609 36.4821 37.9535 36.4171 38.1521 36.4117C38.4172 36.4027 38.675 36.5004 38.8689 36.6834C39.0627 36.8663 39.1768 37.1196 39.186 37.3874" fill="#FCFAE2"/>
<path fill-rule="evenodd" clip-rule="evenodd" d="M39.3957 39.6483C39.3993 39.7621 39.3695 39.8745 39.31 39.9712C39.2505 40.0679 39.1639 40.1446 39.0613 40.1916C38.9586 40.2386 38.8445 40.2538 38.7333 40.2352C38.6221 40.2167 38.5188 40.1653 38.4366 40.0875C38.3543 40.0096 38.2967 39.9089 38.2711 39.798C38.2454 39.6871 38.2529 39.571 38.2925 39.4644C38.3321 39.3578 38.4022 39.2655 38.4937 39.1991C38.5853 39.1327 38.6943 39.0952 38.8069 39.0914C38.8817 39.0888 38.9564 39.1012 39.0265 39.1279C39.0966 39.1545 39.1608 39.1948 39.2155 39.2465C39.2702 39.2982 39.3142 39.3603 39.3451 39.4293C39.3761 39.4982 39.3932 39.5726 39.3957 39.6483Z" fill="#FCFAE2"/>
<path fill-rule="evenodd" clip-rule="evenodd" d="M58.1703 38.2109C57.313 35.486 53.9194 35.1004 52.3203 37.3827C51.4771 38.4917 51.1074 39.903 50.6717 41.219C50.2831 42.3875 49.7155 43.7274 49.7014 44.9792C49.7014 45.6598 50.229 46.7165 50.9944 46.7807C52.4215 46.8973 53.0692 45.0815 53.6038 44.0796C54.4116 42.5636 56.3498 42.3447 57.4308 41.0953C58.0878 40.3361 58.4788 39.1914 58.1679 38.2109" fill="#F8CEB4"/>
<path fill-rule="evenodd" clip-rule="evenodd" d="M29.9094 104.037C29.9094 104.037 29.5467 100.91 31.3789 100.917C33.0628 100.917 33.2112 103.48 33.0392 103.93C33.0392 103.93 34.4688 104.497 37.7918 104.382C41.1148 104.268 42.1557 103.616 42.1557 103.616C42.1557 103.616 44.0398 101.588 43.8585 96.0386L19.3351 96.8834C19.3351 96.8834 19.4364 101.772 21.2191 104.337C21.2191 104.337 22.5521 104.906 25.5266 104.813C28.501 104.72 29.9094 104.037 29.9094 104.037Z" fill="#2B629C"/>
<path fill-rule="evenodd" clip-rule="evenodd" d="M19.4034 98.0043C19.3704 97.6545 19.3351 96.8834 19.3351 96.8834L43.8632 96.0386C43.8396 96.1718 43.8632 97.0476 43.8632 97.1523L19.4034 98.0043Z" fill="#0A3364"/>
<path fill-rule="evenodd" clip-rule="evenodd" d="M20.7599 98.9587L23.2398 98.4304L23.2539 98.8731L20.7599 98.9587Z" fill="#0A3364"/>
<path fill-rule="evenodd" clip-rule="evenodd" d="M39.9232 98.4756L39.9185 98.033L42.4172 98.4423L39.9232 98.4756Z" fill="#0A3364"/>
<path fill-rule="evenodd" clip-rule="evenodd" d="M23.7202 64.9078C23.7202 64.9078 29.3488 70.0316 36.5106 64.4675C36.5106 64.4675 44.3035 65.3647 48.4061 68.0373L42.4595 75.6528L45.62 96.0552L18.0657 97.0072L19.5729 76.5643L13.1177 69.0702C13.1177 69.0702 18.1552 65.2886 23.7155 64.9078" fill="#D63A26"/>
<path fill-rule="evenodd" clip-rule="evenodd" d="M3.62913 36.7973C2.38329 29.7744 2.54579 19.6386 7.27478 14.1435C12.7338 7.82503 20.3313 6.4947 28.2608 6.20674C37.1654 5.88546 46.6304 8.46045 50.9378 16.4401C52.551 19.4506 53.1657 22.1517 53.9123 25.5977C54.5293 28.9081 54.5882 33.1371 54.8213 36.3285C54.6212 30.336 48.6063 16.521 34.1603 19.1698C32.1067 19.5458 29.5773 21.8161 22.7335 20.4073C17.6913 19.3697 12.3712 19.8314 8.06608 22.7871C4.74308 25.167 4.06246 29.9052 3.59145 34.0557L3.62913 36.7973Z" fill="#DEB407"/>
<path fill-rule="evenodd" clip-rule="evenodd" d="M3.55615 23.4247C4.68423 19.5146 5.46612 16.7921 7.61394 13.2509C9.63695 9.71679 12.3029 6.55873 11.9072 2.30357C13.5723 3.04608 14.2199 7.30125 13.9043 9.16705C17.192 1.85854 26.0353 -1.11389 33.2701 0.371132C29.4031 1.56106 25.1263 1.8514 23.6426 6.43498C25.9011 6.0899 28.1313 4.94758 30.6395 4.59298C33.3817 4.10081 36.1792 4.00465 38.9482 4.3074C44.0116 4.9333 47.8315 6.13512 52.0942 9.18608C49.798 8.3341 46.767 8.17227 44.4049 9.18608C45.7049 10.3403 48.604 10.376 50.2784 11.3827C51.4206 12.1011 52.4316 13.0133 53.267 14.0791C54.3339 15.7759 54.9038 17.7559 55.5962 19.5979C46.6846 13.239 32.5447 12.5274 22.2813 14.6121C18.021 15.426 13.6783 17.4418 9.70525 19.1791C7.21829 20.1976 5.12228 21.6017 3.55851 23.7983L3.55615 23.4247Z" fill="#DEB407"/>
<path fill-rule="evenodd" clip-rule="evenodd" d="M26.5204 2.68923C24.7289 2.3158 22.9145 2.06534 21.0896 1.93957C23.5066 0.764753 26.1385 0.109186 28.8189 0.0142791C29.1016 0 29.3818 0 29.6738 0C30.8856 0.00528487 32.0939 0.129622 33.2818 0.371256C31.28 0.992396 29.1675 1.36603 27.3941 2.2204C27.0989 2.36241 26.8119 2.52133 26.5345 2.69637" fill="#C6A101"/>
<path fill-rule="evenodd" clip-rule="evenodd" d="M54.7719 35.4953C54.4092 32.1636 52.544 27.0992 48.8395 23.4343C47.8758 20.4232 46.5233 17.5538 44.817 14.9001C47.0386 15.4291 49.205 16.1718 51.2864 17.1182C51.8502 18.2569 52.3228 19.4395 52.6994 20.6546C53.1705 22.2015 53.5331 23.8008 53.9241 25.5999C54.3103 27.6775 54.4775 30.1216 54.6071 32.4325C54.633 32.8775 54.6542 33.3178 54.6777 33.7485C54.7107 34.3514 54.7444 34.9337 54.779 35.4953" fill="#C6A101"/>
<path fill-rule="evenodd" clip-rule="evenodd" d="M55.5938 19.5909C54.2369 18.6337 52.7949 17.8059 51.2864 17.1183C49.2049 16.1719 47.0386 15.4292 44.817 14.9003C41.762 10.1425 37.3173 6.46368 32.0996 4.37421C33.3891 4.20827 34.688 4.12877 35.9878 4.13622C36.1448 4.13622 36.3097 4.13622 36.4824 4.13622C37.3051 4.15526 38.1294 4.21 38.9552 4.30043C44.0139 4.92633 47.8338 6.12577 52.0918 9.17436C50.8358 8.71868 49.5121 8.48287 48.1777 8.47706C47.3863 8.46698 46.5963 8.54681 45.8226 8.71505C45.3389 8.82387 44.8659 8.97681 44.4096 9.17198C45.7096 10.3262 48.6087 10.3619 50.2831 11.3686C51.4253 12.087 52.4363 12.9992 53.2717 14.0649C54.3362 15.7594 54.9061 17.7347 55.5985 19.5767" fill="#C6A101"/>
<path d="M36.858 74.8772L24.454 75.304L24.5881 79.2855L36.9922 78.8587L36.858 74.8772Z" fill="#DA553B"/>
<path d="M37.0362 80.0286L24.6322 80.4553L24.72 83.0597L37.124 82.633L37.0362 80.0286Z" fill="#DA553B"/>
<path d="M37.1627 83.7185L24.7587 84.1453L24.8153 85.8268L37.2194 85.4001L37.1627 83.7185Z" fill="#DA553B"/>
<path d="M37.2567 86.5081L24.8527 86.9348L24.881 87.7768L37.2851 87.35L37.2567 86.5081Z" fill="#DA553B"/>
<path d="M37.3055 88.0312L24.9015 88.458L24.9236 89.1145L37.3277 88.6877L37.3055 88.0312Z" fill="#DA553B"/>
<path fill-rule="evenodd" clip-rule="evenodd" d="M26.6311 56.2549C27.1777 55.932 27.7931 55.7465 28.4254 55.7137C29.0577 55.681 29.6886 55.8021 30.265 56.0669C30.6253 56.2311 30.9197 55.6837 30.557 55.5195C29.8833 55.206 29.1447 55.0613 28.4038 55.0978C27.663 55.1343 26.9418 55.3508 26.3014 55.729C25.9576 55.9289 26.2873 56.4548 26.6311 56.2549Z" fill="#E8A983"/>
<path fill-rule="evenodd" clip-rule="evenodd" d="M17.444 46.1095C17.444 46.1095 27.0597 54.9672 38.748 45.3765C38.748 45.3765 35.1965 52.3756 27.6791 52.635C21.5442 52.8468 17.4487 46.1095 17.4487 46.1095" fill="#070707"/>
<path fill-rule="evenodd" clip-rule="evenodd" d="M24.6151 52.1687C25.0603 51.8926 26.9891 50.7931 28.2655 51.5832C28.2655 51.5832 30.4628 50.6194 31.6074 51.8212C30.3513 52.3148 29.0214 52.5892 27.6744 52.6327C26.6338 52.6618 25.5966 52.5006 24.6128 52.1568" fill="#D63A26"/>
<path fill-rule="evenodd" clip-rule="evenodd" d="M60.5888 63.2802C61.2812 63.6133 62.414 63.7085 63.0947 62.9755C63.2505 62.8216 63.3735 62.6371 63.4562 62.4333C63.5389 62.2295 63.5796 62.0108 63.5756 61.7906C63.5716 61.5704 63.5231 61.3534 63.4332 61.1528C63.3432 60.9522 63.2135 60.7724 63.0523 60.6242C62.3976 60.0031 61.3142 60.0935 60.6336 60.8265C59.953 61.5595 59.7787 62.8899 60.5888 63.2802Z" fill="#F8CEB4"/>
<path fill-rule="evenodd" clip-rule="evenodd" d="M62.951 62.9278C63.6834 62.8302 64.6843 62.39 64.9787 61.6594C65.1035 61.3476 64.6443 61.1001 64.5077 61.4214C64.291 61.9568 63.4715 62.3376 62.9227 62.4114C62.5954 62.4542 62.6095 62.9802 62.9392 62.935" fill="#F8CEB4"/>
<path fill-rule="evenodd" clip-rule="evenodd" d="M63.3514 61.7499C63.5587 61.5904 63.8224 61.5714 64.0438 61.4072C64.2586 61.2432 64.4524 61.053 64.6208 60.8407C64.8257 60.5766 64.4489 60.2149 64.2416 60.4814C64.0903 60.6856 63.9083 60.8646 63.7023 61.0121C63.5068 61.1406 63.269 61.1573 63.0806 61.3024C62.8192 61.5047 63.0806 61.9545 63.3514 61.7499Z" fill="#F8CEB4"/>
<path fill-rule="evenodd" clip-rule="evenodd" d="M62.9393 61.1907C63.157 60.9894 63.3937 60.8101 63.6458 60.6552C63.8752 60.4636 64.0738 60.2372 64.2346 59.9841C64.4206 59.7033 63.959 59.4605 63.7635 59.7461C63.5942 60.0053 63.3747 60.2271 63.1183 60.3982C62.91 60.5147 62.7209 60.6632 62.5577 60.8384C62.3458 61.0978 62.7226 61.4572 62.9346 61.1978" fill="#F8CEB4"/>
<path fill-rule="evenodd" clip-rule="evenodd" d="M62.5059 60.686C62.9029 60.3194 63.2787 59.93 63.6316 59.5199C63.8836 59.2248 63.4479 58.8059 63.1936 59.1058C62.8407 59.5159 62.4648 59.9053 62.0678 60.2719C61.7829 60.5361 62.2233 60.9478 62.5059 60.686Z" fill="#F8CEB4"/>
<path fill-rule="evenodd" clip-rule="evenodd" d="M60.8291 61.1263C60.7678 60.5694 61.7593 59.9197 62.1385 59.6294C62.5177 59.339 62.1385 58.7155 61.7593 59.0011C61.147 59.477 60.0048 60.2481 60.1108 61.1429C60.1626 61.6189 60.8903 61.5904 60.8385 61.1191" fill="#F8CEB4"/>
<path fill-rule="evenodd" clip-rule="evenodd" d="M6.05722 84.7868C5.82172 85.6721 5.00922 86.7669 3.82933 86.8073C3.57189 86.8275 3.3131 86.7942 3.06882 86.7097C2.82453 86.6252 2.59991 86.4911 2.40873 86.3158C2.21754 86.1404 2.06382 85.9274 1.95699 85.6899C1.85016 85.4523 1.79248 85.1952 1.78748 84.9344C1.75215 83.8563 2.6777 82.952 3.85523 82.9115C5.03277 82.871 6.3469 83.7492 6.05722 84.7868Z" fill="#F8CEB4"/>
<path fill-rule="evenodd" clip-rule="evenodd" d="M3.45016 86.217C2.95795 86.6525 1.98059 87.0952 1.33059 86.8715C0.956137 86.7382 0.817188 87.3474 1.18693 87.476C2.06302 87.783 3.23349 87.2261 3.89291 86.643C4.19201 86.3789 3.73983 85.9552 3.44309 86.217" fill="#F8CEB4"/>
<path fill-rule="evenodd" clip-rule="evenodd" d="M2.35499 84.6511C2.07289 84.6621 1.79412 84.7167 1.52836 84.813C1.17708 84.9088 0.810585 84.9338 0.449736 84.8867C0.0611487 84.8344 -0.0872209 85.4389 0.306076 85.4912C0.655784 85.5446 1.01144 85.5446 1.36115 85.4912C1.70263 85.4317 2.02763 85.2675 2.37618 85.277C2.77419 85.2889 2.75064 84.6678 2.35499 84.6559" fill="#F8CEB4"/>
<path fill-rule="evenodd" clip-rule="evenodd" d="M2.24199 83.7706C1.60778 83.8415 0.970086 83.8756 0.332021 83.8729C-0.127218 83.8729 -0.101312 84.5868 0.355572 84.5868C0.993608 84.5884 1.63124 84.5543 2.26554 84.4845C2.71771 84.4322 2.69651 83.7134 2.24199 83.7706Z" fill="#F8CEB4"/>
<path fill-rule="evenodd" clip-rule="evenodd" d="M4.55942 82.6831C3.83877 81.8906 2.26087 82.3166 1.36359 82.4998C0.821921 82.6093 1.08098 83.4399 1.62265 83.3304C2.16431 83.2209 3.52319 82.8306 3.97772 83.3304C4.35453 83.7445 4.94094 83.1043 4.56884 82.6926" fill="#F8CEB4"/>
</g>
<defs>
<clipPath id="clip0_1555_94">
<rect width="65" height="123" fill="white"/>
</clipPath>
</defs>
</svg>
